<?xml version="1.0" encoding="UTF-8"?>
<svg id="Layer_1" xmlns="http://www.w3.org/2000/svg" version="1.1" viewBox="0 0 324.8 174.5">
  <!-- Generator: Adobe Illustrator 29.1.0, SVG Export Plug-In . SVG Version: 2.1.0 Build 142)  -->
  <defs>
    <style>
      .st0 {
        fill: #010101;
      }

      .st1 {
        mix-blend-mode: multiply;
        opacity: .7;
      }

      .st1, .st2 {
        fill: #85888a;
      }

      .st1, .st3 {
        isolation: isolate;
      }

      .st4 {
        fill: #434249;
      }

      .st5 {
        fill: #ed2224;
      }

      .st6 {
        fill: #3381a0;
      }

      .st7 {
        fill: #83c341;
      }

      .st8 {
        fill: #055770;
      }

      .st9 {
        fill: #fff;
      }

      .st10 {
        fill: #003340;
      }

      .st11 {
        fill: #d7dee0;
      }

      .st12 {
        fill: #e6e9ea;
      }

      .st13 {
        fill: #f9bfc0;
      }

      .st14 {
        fill: #bfc5c7;
      }

      .st15 {
        fill: #17161e;
      }

      .st16 {
        fill: #071d24;
      }
    </style>
  </defs>
  <g class="st3">
    <g id="Layer_11" data-name="Layer_1">
      <g>
        <path class="st9" d="M77.5,73.6v14.5H28l-1.1-11.5,26.5-52.5h14.3l-15,26.4-8.5,23.1h33.3ZM71.6,24.1v81.2h-18.4V24.1h18.4Z"/>
        <path class="st9" d="M135.3,57.3v14.8c0,5.8-.6,10.9-1.8,15.2-1.2,4.3-2.9,7.9-5.1,10.7-2.2,2.8-4.8,4.9-7.7,6.3-3,1.4-6.2,2.1-9.8,2.1s-5.5-.4-8-1.3-4.8-2.2-6.8-4-3.7-4.1-5.2-6.8c-1.5-2.7-2.6-5.9-3.3-9.6s-1.2-7.9-1.2-12.6v-14.8c0-5.9.6-11,1.8-15.3,1.2-4.3,2.9-7.9,5.1-10.7s4.8-4.9,7.8-6.3,6.2-2.1,9.8-2.1,5.5.4,8,1.3,4.7,2.2,6.8,4c2,1.8,3.8,4.1,5.2,6.8,1.5,2.7,2.6,5.9,3.3,9.6.8,3.7,1.1,7.9,1.1,12.6h0ZM117,74.5v-19.5c0-2.6,0-4.9-.3-6.8-.2-1.9-.5-3.6-.8-4.9-.4-1.3-.8-2.4-1.3-3.3-.5-.8-1.1-1.5-1.7-1.8-.6-.4-1.3-.6-2-.6s-1.8.3-2.5.9c-.7.6-1.4,1.6-2,2.9-.6,1.3-1,3.1-1.3,5.4-.3,2.2-.4,5-.4,8.2v19.5c0,2.6,0,4.9.3,6.9.2,2,.5,3.6.8,5s.8,2.5,1.3,3.3,1.1,1.4,1.8,1.8c.7.4,1.3.6,2,.6s1.7-.3,2.4-.9c.7-.6,1.4-1.6,1.9-2.9.6-1.4,1-3.2,1.3-5.4.3-2.2.4-5,.4-8.3h0Z"/>
        <path class="st9" d="M194.3,73.6v14.5h-49.4l-1.1-11.5,26.5-52.5h14.3l-15,26.4-8.5,23.1h33.3,0ZM188.4,24.1v81.2h-18.4V24.1h18.4Z"/>
      </g>
      <g>
        <path class="st9" d="M7.6,131.6c0,.3,0,.6-.3.9-.2.2-.5.4-.9.4s-.7-.1-.9-.4c-.2-.2-.3-.5-.3-.9s0-.6.3-.9c.2-.2.5-.4.9-.4s.7.1.9.4c.2.2.3.5.3.9ZM5.5,147.2v-12h2l.2,12h-2.2Z"/>
        <path class="st9" d="M16.3,136.5h-3.7v-1.8h3.7c.7,0,1.2-.1,1.7-.4.4-.3.7-.7.9-1.1.2-.5.3-1,.3-1.7s0-1.1-.3-1.6c-.2-.5-.5-.9-.9-1.2s-1-.5-1.7-.5h-3.2v14.9h-2.1v-16.7h5.3c1.1,0,2,.2,2.7.7.7.4,1.3,1,1.7,1.8s.6,1.7.6,2.6-.2,2-.6,2.7-1,1.3-1.7,1.7-1.7.6-2.7.6Z"/>
        <path class="st9" d="M30.2,135.5v1.5h-1.4c-.5,0-.9,0-1.3.2-.4.1-.7.3-1,.5s-.5.5-.6.8-.2.6-.2,1,0,.9.2,1.2c.1.3.3.5.6.6.3.1.6.2,1,.2s1-.1,1.4-.4.7-.5.9-.9c.2-.3.3-.7.3-.9l.4,1c0,.3-.1.6-.3,1-.2.3-.4.7-.7,1-.3.3-.6.6-1,.8s-.8.3-1.3.3-1.4-.1-1.9-.4c-.5-.3-1-.7-1.3-1.2s-.4-1.2-.4-2,.1-1.2.3-1.7c.2-.5.5-.9.9-1.3s.9-.7,1.5-.9,1.3-.3,2.1-.3h1.8ZM29.9,140.9v-6.8c0-.5,0-.9-.2-1.2s-.4-.5-.7-.7c-.3-.1-.7-.2-1.1-.2s-.8,0-1.1.3c-.3.2-.5.4-.7.7s-.2.6-.2,1h-2c0-.4,0-.9.3-1.3.2-.4.5-.8.8-1.2.4-.4.8-.6,1.3-.9.5-.2,1.1-.3,1.7-.3s1.4.1,2,.4c.6.2,1.1.7,1.4,1.2s.5,1.3.5,2.2v7.4c0,.5.2.9.3,1.2v.2h-2.1c0-.2-.2-.6-.2-1v-1.1h0ZM26.9,128.8l2.2-3.4h2.6l-3.1,3.4h-1.7Z"/>
        <path class="st9" d="M34.6,137.4v-1.2c0-1,0-1.9.3-2.7.2-.7.5-1.3.8-1.8s.8-.8,1.3-1.1c.5-.2,1.1-.3,1.7-.3s1.2.1,1.7.4c.5.3.9.6,1.2,1.1s.6,1.1.7,1.8c.2.7.3,1.5.4,2.4v1.6c0,.9-.2,1.7-.4,2.4s-.4,1.3-.7,1.8-.7.9-1.2,1.1c-.5.3-1,.4-1.7.4s-1.2-.1-1.7-.4c-.5-.2-.9-.6-1.3-1.1-.4-.5-.6-1.1-.8-1.8s-.3-1.6-.3-2.6h0ZM41.8,130.6h1.8v12.5c0,1.1-.2,2-.6,2.7s-.9,1.2-1.6,1.6c-.7.3-1.5.5-2.3.5s-.7,0-1.2-.2c-.5-.1-1-.3-1.4-.5-.5-.2-.9-.5-1.2-.9l.8-1.4c.4.4.9.8,1.4,1s1,.3,1.4.3,1,0,1.4-.3c.4-.2.7-.5.9-.9s.3-1,.3-1.7v-9.9l.2-2.7h0ZM36.7,136.3v1.2c0,.7,0,1.3,0,1.8,0,.5.3.9.5,1.3.2.3.5.6.8.7.3.2.7.2,1.2.2s1-.1,1.4-.4c.4-.3.6-.6.9-1.1.2-.5.4-.9.5-1.5v-3.3c0-.4-.2-.8-.3-1.1,0-.4-.3-.7-.5-1s-.5-.5-.8-.7-.7-.3-1.1-.3-.9,0-1.2.3c-.3.2-.6.4-.8.8-.2.3-.4.8-.5,1.3s0,1.1,0,1.8h-.1Z"/>
        <path class="st9" d="M46.7,127.3c0-.3,0-.6.3-.9.2-.2.5-.4.9-.4s.7,0,.9.4.3.5.3.9,0,.6-.3.8c-.2.2-.5.4-.9.4s-.7-.1-.9-.4c-.2-.2-.3-.5-.3-.8ZM48.9,130.6v12.4h-2v-12.4h2Z"/>
        <path class="st9" d="M54.1,133.3v9.8h-2v-12.4h1.9v2.7h0ZM53.6,136.3h-.8c0-.9,0-1.7.3-2.4.2-.7.5-1.4.9-1.9s.8-1,1.4-1.2,1.1-.4,1.8-.4,1,0,1.4.2.8.4,1.1.8.5.8.7,1.4c.2.6.2,1.3.2,2.1v8.2h-2v-8.2c0-.7,0-1.2-.2-1.6,0-.4-.4-.7-.6-.9-.3-.2-.6-.3-1.1-.3s-.8.1-1.1.3-.6.5-.9.9c-.3.4-.5.8-.6,1.3s-.2,1-.2,1.6h-.3Z"/>
        <path class="st9" d="M69.9,135.5v1.5h-1.4c-.5,0-.9,0-1.3.2-.4.1-.7.3-1,.5s-.5.5-.6.8-.2.6-.2,1,0,.9.2,1.2c0,.3.3.5.6.6.3.1.6.2,1,.2s1-.1,1.4-.4.7-.5.9-.9c.2-.3.3-.7.3-.9l.4,1c0,.3,0,.6-.3,1-.2.3-.4.7-.7,1-.3.3-.6.6-1,.8s-.8.3-1.3.3-1.4-.1-1.9-.4c-.5-.3-1-.7-1.3-1.2s-.4-1.2-.4-2,0-1.2.3-1.7.5-.9.9-1.3.9-.7,1.5-.9,1.3-.3,2.1-.3h1.8ZM69.6,140.9v-6.8c0-.5,0-.9-.2-1.2s-.4-.5-.7-.7c-.3-.1-.7-.2-1.1-.2s-.8,0-1.1.3c-.3.2-.5.4-.7.7s-.2.6-.2,1h-2c0-.4,0-.9.3-1.3.2-.4.5-.8.8-1.2.4-.4.8-.6,1.3-.9.5-.2,1.1-.3,1.7-.3s1.4.1,2,.4c.6.2,1.1.7,1.4,1.2s.5,1.3.5,2.2v7.4c0,.5.2.9.3,1.2v.2h-2.1c0-.2-.2-.6-.2-1v-1.1h0Z"/>
        <path class="st9" d="M82.2,133.3v9.8h-2v-12.4h1.9v2.7h0ZM81.7,136.3h-.8c0-.9,0-1.7.3-2.4.2-.7.5-1.4.9-1.9s.8-1,1.4-1.2,1.1-.4,1.8-.4,1,0,1.4.2.8.4,1.1.8.5.8.7,1.4c.2.6.2,1.3.2,2.1v8.2h-2v-8.2c0-.7,0-1.2-.2-1.6,0-.4-.4-.7-.6-.9-.3-.2-.6-.3-1.1-.3s-.8.1-1.1.3c-.3.2-.6.5-.9.9s-.5.8-.6,1.3-.2,1-.2,1.6h-.3Z"/>
        <path class="st9" d="M91.1,137.4v-1.2c0-1,0-1.8.4-2.5.2-.7.6-1.3,1-1.8s.9-.9,1.5-1.1,1.2-.4,1.9-.4,1.3.1,1.9.4,1.1.6,1.5,1.1.8,1.1,1,1.8.4,1.6.4,2.5v1.2c0,1,0,1.8-.4,2.5-.2.7-.6,1.3-1,1.8s-.9.9-1.5,1.1c-.6.2-1.2.4-1.9.4s-1.3-.1-1.9-.4c-.6-.2-1.1-.6-1.5-1.1s-.8-1.1-1-1.8-.4-1.6-.4-2.5ZM93.2,136.2v1.2c0,.7,0,1.3.2,1.8,0,.5.3.9.6,1.3s.5.6.9.8c.3.2.7.3,1.1.3s.9,0,1.2-.3c.3-.2.6-.4.9-.8s.4-.8.5-1.3.2-1.1.2-1.8v-1.2c0-.7,0-1.3-.2-1.8,0-.5-.3-.9-.6-1.3s-.6-.6-.9-.8-.7-.3-1.1-.3-.8,0-1.1.3c-.3.2-.6.4-.9.8s-.4.8-.6,1.3c0,.5-.2,1.1-.2,1.8Z"/>
        <path class="st9" d="M113.2,143.3c-.7,0-1.4-.1-2-.3s-1.1-.6-1.5-1c-.4-.5-.7-1-1-1.7s-.3-1.5-.3-2.5v-1.4c0-1.1,0-2,.4-2.8s.6-1.4,1-1.8c.4-.5.9-.8,1.5-1s1.1-.3,1.7-.3,1.4.1,2,.4,1,.6,1.3,1.1.6,1.1.8,1.8.2,1.6.2,2.5v1.2h-7.8v-1.7h5.7v-.3c0-.6,0-1.2-.3-1.7,0-.5-.4-.9-.7-1.2-.3-.3-.8-.4-1.4-.4s-.7,0-1,.2c-.3.1-.6.3-.8.7s-.4.7-.5,1.3c0,.5-.2,1.2-.2,2.1v1.4c0,.7,0,1.2.2,1.7,0,.5.3.9.6,1.2.2.3.6.5.9.7.4.1.8.2,1.2.2.7,0,1.2-.1,1.7-.4.4-.3.8-.6,1.2-1l1.1,1.3c-.2.3-.5.6-.9.9-.4.3-.8.5-1.3.7s-1.1.3-1.9.3v-.2Z"/>
        <path class="st9" d="M121.9,133.3v9.8h-2v-12.4h1.9v2.7h0ZM121.4,136.3h-.8c0-.9,0-1.7.3-2.4.2-.7.5-1.4.9-1.9s.8-1,1.4-1.2,1.1-.4,1.8-.4,1,0,1.4.2.8.4,1.1.8.5.8.7,1.4c.2.6.2,1.3.2,2.1v8.2h-2v-8.2c0-.7,0-1.2-.2-1.6,0-.4-.4-.7-.6-.9-.3-.2-.6-.3-1.1-.3s-.8.1-1.1.3c-.3.2-.6.5-.9.9s-.5.8-.6,1.3-.2,1-.2,1.6h-.3Z"/>
        <path class="st9" d="M135.6,141.5c.4,0,.8,0,1.1-.2s.6-.4.8-.8c.2-.4.3-.8.4-1.4h1.9c0,.8-.2,1.6-.6,2.2-.4.6-.9,1.1-1.5,1.5-.6.3-1.3.5-2.1.5s-1.5-.1-2.1-.4-1.1-.6-1.5-1.1-.7-1.1-.9-1.8-.3-1.5-.3-2.4v-1.4c0-.9,0-1.7.3-2.4.2-.7.5-1.3.9-1.8s.9-.9,1.5-1.1,1.3-.4,2.1-.4,1.6.2,2.2.5,1.1.9,1.4,1.5.5,1.5.6,2.4h-1.9c0-.6-.1-1.1-.3-1.5s-.5-.7-.8-.9-.7-.3-1.2-.3-1,0-1.3.3c-.3.2-.6.5-.8.8s-.3.8-.4,1.3-.1,1-.1,1.6v1.4c0,.6,0,1.2.1,1.7s.2.9.4,1.3c.2.4.5.6.8.8.4.2.8.3,1.3.3v-.2Z"/>
        <path class="st9" d="M141.7,137.4v-1.2c0-1,.1-1.8.4-2.5.2-.7.6-1.3,1-1.8s.9-.9,1.5-1.1,1.2-.4,1.9-.4,1.3.1,1.9.4,1.1.6,1.5,1.1.8,1.1,1,1.8.4,1.6.4,2.5v1.2c0,1-.1,1.8-.4,2.5-.2.7-.6,1.3-1,1.8s-.9.9-1.5,1.1c-.6.2-1.2.4-1.9.4s-1.3-.1-1.9-.4c-.6-.2-1.1-.6-1.5-1.1s-.8-1.1-1-1.8-.4-1.6-.4-2.5ZM143.7,136.2v1.2c0,.7,0,1.3.2,1.8.1.5.3.9.6,1.3s.5.6.9.8c.3.2.7.3,1.1.3s.9,0,1.2-.3c.3-.2.6-.4.9-.8s.4-.8.5-1.3.2-1.1.2-1.8v-1.2c0-.7,0-1.3-.2-1.8-.1-.5-.3-.9-.6-1.3s-.6-.6-.9-.8c-.3-.2-.7-.3-1.1-.3s-.8,0-1.1.3c-.3.2-.6.4-.9.8s-.4.8-.6,1.3c-.1.5-.2,1.1-.2,1.8h0Z"/>
        <path class="st9" d="M156,133.3v9.8h-2v-12.4h1.9v2.7h.1ZM155.5,136.3h-.8c0-.9,0-1.7.3-2.4.2-.7.5-1.4.9-1.9s.8-1,1.4-1.2,1.1-.4,1.8-.4,1,0,1.4.2.8.4,1.1.8.5.8.7,1.4c.2.6.2,1.3.2,2.1v8.2h-2v-8.2c0-.7,0-1.2-.2-1.6-.1-.4-.4-.7-.6-.9-.3-.2-.6-.3-1.1-.3s-.8.1-1.1.3-.6.5-.9.9c-.3.4-.5.8-.6,1.3s-.2,1-.2,1.6h-.3Z"/>
        <path class="st9" d="M169.9,130.6v1.6h-5.8v-1.6h5.8ZM166,127.6h2v12.4c0,.4,0,.7.2,1s.2.4.4.4.3.1.5.1h.8v1.7c-.1,0-.3.1-.6.2s-.5,0-.9,0-.8-.1-1.2-.3-.7-.6-.9-1c-.2-.5-.3-1.1-.3-2v-12.4h0Z"/>
        <path class="st9" d="M174.4,132.6v10.5h-2v-12.4h2v2h0ZM177.4,130.5v2h-.9c-.4,0-.7,0-1,.2s-.5.4-.7.6c-.2.3-.4.6-.5,1s-.2.8-.3,1.2l-.5.3c0-.8,0-1.5.2-2.1s.3-1.2.6-1.8.6-.9,1-1.2.9-.4,1.4-.4h.5c.2,0,.3,0,.4.1h-.2Z"/>
        <path class="st9" d="M185.9,135.5v1.5h-1.4c-.5,0-.9,0-1.3.2-.4.1-.7.3-1,.5s-.5.5-.6.8-.2.6-.2,1,0,.9.2,1.2c.1.3.3.5.6.6s.6.2,1,.2,1-.1,1.4-.4.7-.5.9-.9c.2-.3.3-.7.3-.9l.4,1c0,.3-.1.6-.3,1-.2.3-.4.7-.7,1s-.6.6-1,.8-.8.3-1.3.3-1.4-.1-1.9-.4c-.5-.3-1-.7-1.3-1.2s-.4-1.2-.4-2,.1-1.2.3-1.7.5-.9.9-1.3.9-.7,1.5-.9,1.3-.3,2.1-.3h1.8ZM185.6,140.9v-6.8c0-.5,0-.9-.2-1.2s-.4-.5-.7-.7c-.3-.1-.7-.2-1.1-.2s-.8,0-1.1.3c-.3.2-.5.4-.7.7s-.2.6-.2,1h-2c0-.4,0-.9.3-1.3.2-.4.5-.8.8-1.2.4-.4.8-.6,1.3-.9.5-.2,1.1-.3,1.7-.3s1.4.1,2,.4c.6.2,1.1.7,1.4,1.2s.5,1.3.5,2.2v7.4c0,.5.2.9.3,1.2v.2h-2.1c0-.2-.2-.6-.2-1v-1.1h0Z"/>
        <path class="st9" d="M190.3,137.4v-1.2c0-1,0-1.9.3-2.7.2-.7.5-1.3.9-1.8s.8-.8,1.3-1.1c.5-.2,1.1-.3,1.7-.3s1.2.1,1.7.4.9.6,1.2,1.1.6,1.1.7,1.8c.2.7.3,1.5.4,2.4v1.6c0,.9-.2,1.7-.4,2.4s-.4,1.3-.7,1.8-.7.9-1.2,1.1c-.5.3-1,.4-1.7.4s-1.2-.1-1.7-.4c-.5-.2-.9-.6-1.3-1.1-.4-.5-.7-1.1-.9-1.8s-.3-1.6-.3-2.6h0ZM192.4,136.3v1.2c0,.7,0,1.3.1,1.8s.3.9.5,1.3c.2.3.5.6.8.7.3.2.7.2,1.2.2s1-.1,1.4-.4.6-.6.9-1.1.4-.9.5-1.5v-3.3c0-.4-.2-.8-.3-1.1-.1-.4-.3-.7-.5-1s-.5-.5-.8-.7-.7-.3-1.1-.3-.9,0-1.2.3c-.3.2-.6.4-.8.8-.2.3-.4.8-.5,1.3s-.2,1.1-.2,1.8h0ZM197.3,140.6v-15.2h2v17.7h-1.9l-.2-2.4h0Z"/>
        <path class="st9" d="M208.9,135.5v1.5h-1.4c-.5,0-.9,0-1.3.2-.4.1-.7.3-1,.5s-.5.5-.6.8-.2.6-.2,1,0,.9.2,1.2c.1.3.3.5.6.6s.6.2,1,.2,1-.1,1.4-.4.7-.5.9-.9c.2-.3.3-.7.3-.9l.4,1c0,.3-.1.6-.3,1-.2.3-.4.7-.7,1s-.6.6-1,.8-.8.3-1.3.3-1.4-.1-1.9-.4c-.5-.3-1-.7-1.3-1.2s-.4-1.2-.4-2,.1-1.2.3-1.7.5-.9.9-1.3.9-.7,1.5-.9,1.3-.3,2.1-.3h1.8ZM208.5,140.9v-6.8c0-.5,0-.9-.2-1.2s-.4-.5-.7-.7c-.3-.1-.7-.2-1.1-.2s-.8,0-1.1.3c-.3.2-.5.4-.7.7s-.2.6-.2,1h-2c0-.4,0-.9.3-1.3.2-.4.5-.8.8-1.2.4-.4.8-.6,1.3-.9.5-.2,1.1-.3,1.7-.3s1.4.1,2,.4c.6.2,1.1.7,1.4,1.2s.5,1.3.5,2.2v7.4c0,.5.2.9.3,1.2v.2h-2.1c0-.2-.2-.6-.2-1v-1.1h0Z"/>
        <path class="st9" d="M214,142c0-.3,0-.6.3-.9.2-.2.5-.4.9-.4s.7.1.9.4c.2.2.3.5.3.9s0,.6-.3.9c-.2.2-.5.4-.9.4s-.7-.1-.9-.4c-.2-.2-.3-.5-.3-.9ZM216.2,126.3v12h-2l-.2-12h2.2Z"/>
      </g>
      <g>
        <path class="st6" d="M321.8,162.4c0,3.6-15.3,6.6-34.2,6.6s-34.2-2.9-34.2-6.6,15.3-6.6,34.2-6.6,34.2,2.9,34.2,6.6Z"/>
        <g>
          <g>
            <polygon class="st8" points="272.2 21.7 271.2 21.7 271.2 16.8 266.4 15.2 273.2 13.3 271.2 12.2 271.2 7.1 272.2 7.1 272.2 11.6 275.9 13.6 270 15.3 272.2 16.1 272.2 21.7"/>
            <rect class="st0" x="270.1" y="19.3" width="3.1" height="6.6"/>
            <path class="st0" d="M274,5.3c0,1.3-1,2.3-2.3,2.3s-2.3-1-2.3-2.3,1-2.3,2.3-2.3,2.3,1,2.3,2.3Z"/>
            <path class="st5" d="M273.2,5.1c0,.9-.7,1.6-1.6,1.6s-1.6-.7-1.6-1.6.7-1.6,1.6-1.6,1.6.7,1.6,1.6Z"/>
            <path class="st13" d="M272.9,4.6c0,.4-.3.7-.6.7s-.6-.3-.6-.7.3-.7.6-.7.6.3.6.7Z"/>
          </g>
          <rect class="st10" x="268.3" y="62.5" width="6.7" height="14.7"/>
          <g>
            <path class="st14" d="M264.5,80s-7.2-3.1-9.9-.9c-2.7,2.1-22.2,19.9-21.2,36.2.3,4.6,2.1,14.8,3.4,16.4,1.3,1.6,12.6.8,13-2.5s-2.4-16.9-2.4-16.9c0,0,13.6-10.3,15.4-16.6,1.8-6.3,1.7-15.8,1.7-15.8h0Z"/>
            <path class="st10" d="M234.2,121.4c1.6-.8,3.6-1.4,5.5-1.8l-1.7-10.6,4.4-7.5,17.6-22.9c1.2.2,2.3.6,3.2.9l-16.9,22.1c3.4,1.5,5.1,4.4,5.8,7-1,.9-1.9,1.6-2.7,2.2-.2-1.9-1.1-5.2-4.9-6.7l-3.2,5.5,1.6,9.6c2.2-.2,4.2-.2,5.9-.2.2,1,.4,2.1.5,3.1-4.3,0-11,.3-14.4,2.5-.2-1-.4-2.1-.6-3.2h-.1Z"/>
            <g>
              <path class="st15" d="M248.6,119h0c-1.5,0-3.2,0-4.9.2v-.2c1.8,0,3.5-.2,4.9,0h0Z"/>
              <path class="st15" d="M239.7,119.6l-1.7-10.6,4.4-7.5,17.6-22.9c.3,0,.6,0,.9.2l-17.5,22.8-4.4,7.5,1.7,10.6c-2,.4-3.9.9-5.5,1.8.1.9.3,1.7.5,2.6-.3.2-.6.3-.8.5-.2-1-.4-2.1-.6-3.2,1.6-.8,3.6-1.4,5.5-1.8h0Z"/>
            </g>
            <g>
              <path class="st4" d="M249.7,89.1c0,.2.1.4.4.4s.4,0,.4-.4-.1-.4-.4-.4-.4,0-.4.4Z"/>
              <path class="st4" d="M247.2,92.3c0,.2.1.4.4.5.2,0,.4,0,.4-.4s-.1-.4-.4-.4-.4,0-.4.4h0Z"/>
              <path class="st4" d="M244.7,95.3c0,.2.1.4.4.4s.4,0,.5-.4c0-.2-.1-.4-.4-.4s-.4,0-.4.4h-.1Z"/>
            </g>
          </g>
          <path class="st14" d="M250.1,128.7s-1.1,2.8-1.1,6.4,5.4,29.9,7.8,29.9,10,.4,10-1.8,1.4-25.2,1.4-25.2l-18.1-9.3h0Z"/>
          <path class="st11" d="M306.1,109.7c-2.8-13.1-7.7-31.2-13.3-32.1-8.9-1.4-23.3,1.4-23.3,1.4,0,0-12.2,1.4-14.1,3.3s-17.1,21.9-10.8,41.3c6.4,19.5,23.2,22.8,39.4,20.1,2.8-.5,5.4-1.4,7.8-2.6,11.3-5.9,17-18.9,14.4-31.4h-.1Z"/>
          <path class="st1" d="M292.8,77.6c-8.9-1.4-23.3,1.4-23.3,1.4h-.5c4.6,4.7,8.5,19.5,10.8,30.7,2.7,12.5-3.1,25.5-14.4,31.4-1.1.6-2.2,1-3.3,1.5,6.7,2.4,14.3,2.4,21.8,1.2,2.8-.5,5.4-1.4,7.8-2.6,11.3-5.9,17-18.9,14.4-31.4-2.8-13.1-7.7-31.2-13.3-32.1h0Z"/>
          <path class="st10" d="M304.3,127.7c-5-8.6-18.2-6.3-21.8,8-.8,3-.4,5.8.5,8.2,9.9-1.5,17.5-7.5,21.3-16.2Z"/>
          <path class="st10" d="M298.8,87.2c-.5-1.7-1.8-2.9-3.9-3.4s-7.4,1.2-7.3,6.7c0,5.5.8,9.7,5.3,10.3,4.5.6,7.4-8.6,5.9-13.6Z"/>
          <path class="st16" d="M252.9,154.7c.2.9.5,1.8.7,2.6,2,.6,4.3.9,6.7.9s4.5-.3,6.8-1.1c0-.8,0-1.6.1-2.5-5.3,2.2-10.6,1.3-14.4,0h.1Z"/>
          <path class="st16" d="M266.9,162.1c0-.6,0-1.4.1-2.4-4.7,1.4-9.4.8-12.7,0,.3,1,.6,1.9.9,2.6,3.8.7,7.9.7,11.7-.3h0Z"/>
          <path class="st16" d="M262.1,119.3c0,2.1-1.7,3.8-3.8,3.8s-3.8-1.7-3.8-3.8,1.7-3.8,3.8-3.8,3.8,1.7,3.8,3.8Z"/>
          <path class="st7" d="M261.1,119.3c0,1.6-1.3,2.8-2.8,2.8s-2.8-1.3-2.8-2.8,1.3-2.8,2.8-2.8,2.8,1.3,2.8,2.8Z"/>
          <path class="st16" d="M259.3,130.5c-6.1,0-11.1-5-11.1-11.1s5-11.1,11.1-11.1,1.5,0,2.2.2h0c5.1,1,8.8,5.6,8.8,10.9s-5,11.1-11.1,11.1h.1ZM259.3,109.9c-5.3,0-9.5,4.3-9.5,9.5s4.3,9.5,9.5,9.5,9.5-4.3,9.5-9.5-3.2-8.4-7.6-9.4h0c-.6,0-1.3-.2-1.9-.2h0Z"/>
          <path class="st16" d="M259.3,127.5c-4.4,0-8.1-3.6-8.1-8.1s3.6-8.1,8.1-8.1.6,0,.8,0h0c4.1.4,7.2,3.9,7.2,8s-3.6,8.1-8.1,8.1h.1ZM259.3,112.9c-3.6,0-6.5,2.9-6.5,6.5s2.9,6.5,6.5,6.5,6.5-2.9,6.5-6.5-2.5-6.2-5.9-6.5h-.7.1Z"/>
          <path class="st16" d="M243.8,120.9l5.2.5v-1.5c.1,0-5.5-.5-5.5-.5,0,.5.2,1,.3,1.6h0Z"/>
          <path class="st16" d="M306.5,111.8l-.2-.3c-10.9,9.4-36.4,8.3-36.6,8.3v1.5c10.6.5,28.2-1.1,37-8.2,0-.5,0-.9-.2-1.4h0Z"/>
          <path class="st16" d="M259.4,109.1h-1.5c0-6.5,7-31.1,7.3-32.1l1.5.4c0,.3-7.2,25.4-7.2,31.7h0Z"/>
          <path class="st11" d="M254.1,78.2s3.4,18.6,11.8,17.8c8.4-.8,19.6-18.8,20.8-18.8h4.1s-1.2-6.7-4.8-6.7-29.7,1.1-30.9,2.3c-1.2,1.2-1.1,5.4-1.1,5.4h.1Z"/>
          <path class="st10" d="M288.2,71.4c.1.5-2.7.8-4,.8s-12.5,17.9-20.8,18.8c-2.9.3-5.2-1.7-6.9-4.5,1.9,4.8,4.9,9.9,9.4,9.4,8.4-.8,19.6-18.8,20.8-18.8s4.1.2,4.1.2c0,0-.7-4.1-2.6-5.9Z"/>
          <path class="st10" d="M255.3,82.3c-1.1,1.3-2.7,3.9-3.5,5.3-17.3,30-4.3,59,29.2,56.1,1.9-.3,5.5-.2,10.7-2.5-4.1,2.4-7.3,3.1-12.1,3.8-35.1,4.3-47.9-29.7-28.3-57.6,1.2-1.7,2.5-3.4,4-4.9v-.2Z"/>
          <path class="st11" d="M283.4,135.9c-2.7,9.7,7.8,31.8,7.8,31.8,0,0,7.2,3.3,12.2-1.7,0,0,2.9-31.2-1.8-37.7-3.5-4.9-15.5-2.1-18.2,7.6h0Z"/>
          <path class="st1" d="M301.6,128.3c-1.8-2.5-5.9-3-9.8-1.5.7.4,1.3.9,1.7,1.5,3.9,5.4,2.6,27.5,2,35.1-.2,2.1-1.4,3.9-3.3,4.7h0c2.2.7,7.3,1.8,11.2-2.1,0,0,2.9-31.2-1.8-37.7h0Z"/>
          <path class="st16" d="M296.9,161.4c2.4-.4,4.8-1.3,7.1-2.7,0-.9,0-1.9.1-2.9-5.6,4.2-12.2,4-16.5,3.1.3.9.7,1.7,1,2.5,2.4.3,5.3.4,8.3-.1h0Z"/>
          <g>
            <path class="st11" d="M294.8,78.6c-.6-.6-1.5-.9-2.6-1-4.1-.5-7.6,2.8-7.8,6.9-.1,3.1,0,6.8.4,9.9,1.1,6.5,13.5,18.2,13.5,18.2,0,0-4.3,13.2-4.3,16.5s11.1,5.4,12.6,3.9,4.4-11.4,5.2-15.9c2.7-16.1-14.7-35.9-17.1-38.3v-.2Z"/>
            <path class="st10" d="M308,110.1l-3.6-7.9-14.8-24.5c-1,.3-1.9.8-2.7,1.4l13.7,22.7c-3.6,1.2-5.6,3.8-6.6,6.3.9,1,1.7,1.8,2.4,2.5.4-1.8,1.7-5.1,5.6-6.1l2.6,5.8-2.6,9.4c-2.1-.4-4.2-.7-5.8-.9v.2h0v.5h0v.3h0v.3h0v.3h0c-.1.4-.2.8-.3,1.1,4.3.4,10.9,1.5,14,4.1,0,0,0-.2.1-.4h0c0-.2.2-.5.2-.8h0c.2-.6.4-1.3.6-1.9-1.5-1-3.4-1.8-5.3-2.4l2.9-10.4-.4.4Z"/>
            <path class="st15" d="M308,110.1l-3.6-7.9-14.8-24.5c-.3,0-.5.2-.8.3l14.7,24.3,3.6,7.9-2.9,10.4c1.9.6,3.8,1.3,5.3,2.4-.2.8-.5,1.7-.7,2.5.3.2.5.4.8.6,0,0,.8-2.4.9-3.1-1.5-1-3.4-1.8-5.3-2.4l2.9-10.4h-.1Z"/>
            <g>
              <path class="st4" d="M298.6,89.1c0,.2-.2.4-.4.4s-.4-.2-.4-.4.2-.4.4-.4.4.2.4.4Z"/>
              <path class="st4" d="M300.7,92.6c0,.2-.2.4-.4.4s-.4-.2-.4-.4.2-.4.4-.4.4.2.4.4Z"/>
              <circle class="st4" cx="302.4" cy="95.8" r=".4"/>
            </g>
          </g>
          <path class="st11" d="M270.3,23.2h3c7.3,0,13.3,6,13.3,13.3v25.8c0,2.9-2.3,5.2-5.2,5.2h-17.8c-3.6,0-6.6-2.9-6.6-6.6v-24.5c0-7.3,6-13.3,13.3-13.3h0Z"/>
          <path class="st11" d="M270.3,23.2h3c7.3,0,13.3,6,13.3,13.3v25.8c0,2.9-2.3,5.2-5.2,5.2h-17.8c-3.6,0-6.6-2.9-6.6-6.6v-24.5c0-7.3,6-13.3,13.3-13.3h0Z"/>
          <path class="st2" d="M273.3,23.2h-3c7.4,0,13.3,6,13.3,13.3v25.8c0,2.9-2.3,5.2-5.2,5.2h3c2.9,0,5.2-2.3,5.2-5.2v-25.8c0-7.4-6-13.3-13.3-13.3Z"/>
          <path class="st12" d="M268.6,25.3c5.1.8,5.8,5.9,3.1,10-2.8,4.2-5.3,7.6-6.8,7.6s-4.3-3.4-5-8.3c-.8-5,3.7-10.1,8.8-9.3h-.1Z"/>
          <path class="st10" d="M263.9,44c0,1.5-1.2,2.7-2.7,2.7s-2.7-1.2-2.7-2.7,1.2-2.7,2.7-2.7,2.7,1.2,2.7,2.7Z"/>
          <path class="st10" d="M277.6,44.5c0,1.5-1.2,2.7-2.7,2.7s-2.7-1.2-2.7-2.7,1.2-2.7,2.7-2.7,2.7,1.2,2.7,2.7Z"/>
        </g>
      </g>
    </g>
  </g>
</svg>