<?xml version="1.0" encoding="UTF-8"?>
<svg id="Layer_1" xmlns="http://www.w3.org/2000/svg" version="1.1" viewBox="0 0 37.1 33.6">
  <!-- Generator: Adobe Illustrator 29.1.0, SVG Export Plug-In . SVG Version: 2.1.0 Build 142)  -->
  <defs>
    <style>
      .st0 {
        fill: #010101;
      }
    </style>
  </defs>
  <path class="st0" d="M4.8,33.6c-1,0-1.9-.2-2.6-.6-.7-.4-1.3-1-1.7-1.7s-.6-1.5-.6-2.4.2-1.7.7-2.5L14.4,2.4c.4-.8,1-1.4,1.8-1.8.7-.4,1.5-.6,2.3-.6s1.6.2,2.3.6,1.3,1,1.8,1.8l13.7,23.9c.2.4.4.8.5,1.2.1.4.2.8.2,1.3,0,.9-.2,1.7-.6,2.4-.4.7-.9,1.3-1.7,1.7-.7.4-1.6.6-2.6.6H4.8ZM4.8,30.8h27.4c.6,0,1.1-.2,1.5-.6.4-.4.5-.9.5-1.4s0-.7-.3-1.1L20.2,3.8c-.2-.3-.4-.6-.7-.7-.3-.1-.6-.2-.9-.2s-.6,0-1,.2c-.3.1-.6.4-.7.7L3.1,27.7c0,.2-.2.4-.2.6,0,.2,0,.4,0,.5,0,.5.2,1,.5,1.4s.8.6,1.4.6ZM18.5,27.4c-.5,0-1-.2-1.3-.5s-.6-.8-.6-1.3.2-.9.6-1.3.8-.5,1.3-.5,1,.2,1.3.5c.4.4.6.8.6,1.3s-.2,1-.6,1.3-.8.5-1.3.5ZM18.5,21.7c-.9,0-1.4-.5-1.4-1.4l-.2-9.4c0-.4.1-.8.4-1.1.3-.3.7-.4,1.2-.4s.9.1,1.2.5.5.7.5,1.1l-.3,9.3c0,.9-.5,1.4-1.3,1.4Z"/>
</svg>