<?xml version="1.0" encoding="UTF-8"?>
<svg id="Layer_1" xmlns="http://www.w3.org/2000/svg" version="1.1" viewBox="0 0 29.7 37.8">
  <!-- Generator: Adobe Illustrator 29.1.0, SVG Export Plug-In . SVG Version: 2.1.0 Build 142)  -->
  <defs>
    <style>
      .st0 {
        fill: #010101;
      }
    </style>
  </defs>
  <path class="st0" d="M5.5,37.9c-1.8,0-3.2-.5-4.1-1.4-.9-.9-1.4-2.3-1.4-4.2V5.6C0,3.7.5,2.3,1.4,1.4,2.3.5,3.7,0,5.5,0h8.4c.7,0,1.2,0,1.7.1.5,0,1,.3,1.4.5.4.2.9.6,1.3,1.1l9.7,9.9c.5.5.8.9,1.1,1.4.2.4.4.9.5,1.4,0,.5.1,1.2.1,1.9v16.1c0,1.8-.5,3.2-1.4,4.1-.9.9-2.3,1.4-4.1,1.4H5.5ZM5.6,35.1h18.5c.9,0,1.6-.2,2.1-.7.5-.5.7-1.1.7-2v-15.9h-10.1c-1.1,0-1.9-.3-2.5-.8-.6-.6-.8-1.4-.8-2.5V2.8h-7.9c-.9,0-1.6.2-2.1.7s-.7,1.2-.7,2v26.7c0,.9.2,1.6.7,2,.5.5,1.2.7,2.1.7ZM21.4,21.3c.3,0,.6.1.8.3.2.2.3.5.3.8s-.1.6-.3.8-.5.3-.8.3H8c-.3,0-.6-.1-.8-.3-.2-.2-.3-.5-.3-.8s.1-.6.3-.8c.2-.2.5-.3.8-.3h13.4ZM21.4,27.5c.3,0,.6.1.8.3.2.2.3.5.3.8s-.1.5-.3.8-.5.3-.8.3H8c-.3,0-.6-.1-.8-.3-.2-.2-.3-.5-.3-.8s.1-.6.3-.8.5-.3.8-.3h13.4ZM17.1,13.8h9.2L16.2,3.4v9.4c0,.4,0,.6.2.8.1.2.4.2.8.2Z"/>
</svg>