<?xml version="1.0" encoding="UTF-8"?>
<svg id="Layer_1" xmlns="http://www.w3.org/2000/svg" version="1.1" viewBox="0 0 19 16">
  <!-- Generator: Adobe Illustrator 29.3.1, SVG Export Plug-In . SVG Version: 2.1.0 Build 151)  -->
  <defs>
    <style>
      .st0 {
        fill: #fff;
      }
    </style>
  </defs>
  <path class="st0" d="M2.7,14.6c-.9,0-1.5-.2-2-.7s-.7-1.1-.7-2V2.7c0-.9.2-1.5.7-2S1.8,0,2.7,0h10.6c.9,0,1.5.2,2,.7s.7,1.1.7,2v4.2c-.1,0-.3,0-.4,0s-.3,0-.5,0-.3,0-.5,0-.3,0-.5,0v-1.9c0-.3,0-.5-.2-.7s-.4-.2-.7-.2H2.8c-.3,0-.5,0-.7.2s-.2.4-.2.7v6.9c0,.3,0,.5.2.7s.4.2.7.2h7.2c0,.3.1.7.2,1s.3.6.4.9H2.7ZM4.1,9c-.1,0-.2,0-.3,0s0-.1,0-.3v-.5c0-.1,0-.2,0-.3s.2,0,.3,0h.5c.1,0,.2,0,.3,0s0,.1,0,.3v.5c0,.1,0,.2,0,.3s-.2,0-.3,0h-.5ZM4.1,11.4c-.1,0-.2,0-.3,0s0-.1,0-.3v-.5c0-.1,0-.2,0-.3s.2,0,.3,0h.5c.1,0,.2,0,.3,0s0,.1,0,.3v.5c0,.1,0,.2,0,.3s-.2,0-.3,0h-.5ZM6.5,6.6c-.1,0-.2,0-.3,0s0-.1,0-.3v-.5c0-.1,0-.2,0-.3s.2,0,.3,0h.5c.1,0,.2,0,.3,0s0,.1,0,.3v.5c0,.1,0,.2,0,.3s-.2,0-.3,0h-.5ZM6.5,9c-.1,0-.2,0-.3,0s0-.1,0-.3v-.5c0-.1,0-.2,0-.3s.2,0,.3,0h.5c.1,0,.2,0,.3,0s0,.1,0,.3v.5c0,.1,0,.2,0,.3s-.2,0-.3,0h-.5ZM6.5,11.4c-.1,0-.2,0-.3,0s0-.1,0-.3v-.5c0-.1,0-.2,0-.3s.2,0,.3,0h.5c.1,0,.2,0,.3,0s0,.1,0,.3v.5c0,.1,0,.2,0,.3s-.2,0-.3,0h-.5ZM9,6.6c-.1,0-.2,0-.3,0,0,0,0-.1,0-.3v-.5c0-.1,0-.2,0-.3,0,0,.2,0,.3,0h.4c.1,0,.2,0,.3,0s0,.1,0,.3v.5c0,.1,0,.2,0,.3s-.2,0-.3,0h-.4ZM9,9c-.1,0-.2,0-.3,0,0,0,0-.1,0-.3v-.5c0-.1,0-.2,0-.3,0,0,.2,0,.3,0h.4c.1,0,.2,0,.3,0s0,.1,0,.3v.5c0,.1,0,.2,0,.3s-.2,0-.3,0h-.4ZM9,11.4c-.1,0-.2,0-.3,0,0,0,0-.1,0-.3v-.5c0-.1,0-.2,0-.3,0,0,.2,0,.3,0h.4c.1,0,.2,0,.3,0s0,.1,0,.3v.5c0,.1,0,.2,0,.3s-.2,0-.3,0h-.4ZM15,15.9c-.5,0-1.1-.1-1.5-.3s-.9-.5-1.3-.9-.7-.8-.9-1.3-.3-1-.3-1.5.1-1.1.3-1.5.5-.9.9-1.3.8-.7,1.3-.9,1-.3,1.5-.3,1.1.1,1.6.3.9.5,1.3.9.7.8.9,1.3.3,1,.3,1.6-.1,1.1-.3,1.5-.5.9-.9,1.3-.8.7-1.3.9-1,.3-1.5.3ZM11.4,6.6c-.1,0-.2,0-.3,0s0-.1,0-.3v-.5c0-.1,0-.2,0-.3s.2,0,.3,0h.5c.1,0,.2,0,.3,0s0,.1,0,.3v.5c0,.1,0,.2,0,.3s-.1,0-.3,0h-.5ZM13.2,12.6h1.9c.2,0,.3,0,.4-.2s.2-.3.2-.4v-2.2c0-.2,0-.3-.2-.4s-.3-.2-.4-.2-.3,0-.4.2-.2.3-.2.4v1.6h-1.3c-.2,0-.3,0-.4.2s-.2.3-.2.4,0,.3.2.4.3.2.4.2Z"/>
</svg>