<?xml version="1.0" encoding="UTF-8"?>
<svg id="Layer_1" xmlns="http://www.w3.org/2000/svg" version="1.1" viewBox="0 0 27.1 18.3">
  <!-- Generator: Adobe Illustrator 29.1.0, SVG Export Plug-In . SVG Version: 2.1.0 Build 142)  -->
  <defs>
    <style>
      .st0 {
        fill: #231f20;
      }
    </style>
  </defs>
  <path class="st0" d="M13.6,17.9c-1.3,0-2.6-.2-3.8-.5s-2.3-.7-3.3-1.3-1.9-1.1-2.7-1.8-1.5-1.3-2-1.9-1-1.2-1.3-1.8-.4-1-.4-1.3.1-.6.3-1.1.5-.9.9-1.5.9-1.1,1.5-1.6,1.3-1.1,2-1.6l1.7,1.7c-.6.4-1.1.8-1.6,1.2s-.9.8-1.2,1.2-.6.7-.8,1-.3.5-.3.7c0,.2.1.5.4.9s.6.8,1.1,1.3,1,1,1.7,1.5,1.4.9,2.2,1.3,1.7.7,2.6,1,1.9.4,2.9.4,1,0,1.6-.1,1-.2,1.5-.3l1.8,1.8c-.7.2-1.5.4-2.3.6s-1.6.2-2.5.2ZM21.4,18.1L4.6,1.4c-.2-.2-.2-.3-.2-.6s0-.4.2-.6C4.8,0,5,0,5.2,0s.4,0,.6.2l16.7,16.7c.2.2.2.3.2.6s0,.4-.2.6c-.2.2-.3.3-.6.2s-.4,0-.6-.2ZM13.6,14.4c-.7,0-1.4-.1-2-.4s-1.2-.6-1.6-1.1-.8-1-1.1-1.6-.4-1.3-.4-2,0-.6,0-.9.2-.6.3-.9l6.6,6.6c-.3.1-.6.2-.9.3s-.6,0-.9,0ZM13.6.8c1.3,0,2.6.2,3.8.5s2.3.7,3.3,1.3,1.9,1.1,2.7,1.8,1.5,1.3,2,1.9,1,1.2,1.3,1.8.4,1,.4,1.3-.2.9-.5,1.5-.9,1.3-1.6,2.1-1.5,1.4-2.5,2.1l-1.6-1.6c.6-.4,1.1-.8,1.5-1.2s.8-.8,1.1-1.1.6-.7.7-1,.2-.5.2-.7-.1-.5-.4-.9-.6-.8-1.1-1.3-1-1-1.7-1.5-1.4-.9-2.2-1.4-1.7-.8-2.6-1-1.9-.4-2.9-.4-1,0-1.4.1-.9.2-1.3.3l-1.8-1.8c.7-.2,1.4-.4,2.2-.5s1.5-.2,2.4-.2ZM13.6,4.2c.7,0,1.4.1,2,.4s1.2.6,1.6,1.1.8,1,1.1,1.6.4,1.3.4,2,0,.6,0,.8-.1.5-.2.8l-6.4-6.4c.2,0,.5-.2.8-.2s.5,0,.8,0Z"/>
</svg>