<?xml version="1.0" encoding="UTF-8"?>
<svg id="Layer_1" xmlns="http://www.w3.org/2000/svg" version="1.1" viewBox="0 0 41.6 32.4">
  <!-- Generator: Adobe Illustrator 29.1.0, SVG Export Plug-In . SVG Version: 2.1.0 Build 142)  -->
  <defs>
    <style>
      .st0 {
        fill: #010101;
      }
    </style>
  </defs>
  <path class="st0" d="M5.4,32.6c-1.9,0-3.2-.5-4.2-1.4-.9-.9-1.4-2.3-1.4-4.1V5.5C-.1,3.7.3,2.3,1.3,1.4S3.6,0,5.4,0h30.6c1.9,0,3.3.5,4.2,1.4.9.9,1.4,2.3,1.4,4.1v21.6c0,1.8-.5,3.2-1.4,4.1-.9.9-2.3,1.4-4.2,1.4H5.4ZM5.5,29.7h30.5c.9,0,1.5-.2,2-.7.5-.5.7-1.2.7-2.1V5.6c0-.9-.2-1.6-.7-2.1-.5-.5-1.2-.7-2-.7H5.5c-.9,0-1.6.2-2,.7-.5.5-.7,1.2-.7,2.1v21.3c0,.9.2,1.6.7,2.1.5.5,1.1.7,2,.7ZM7.3,20.4c-.7,0-1.3-.2-1.7-.6-.4-.4-.6-1-.6-1.7v-3.6c0-.7.2-1.3.6-1.7.4-.4,1-.6,1.7-.6h26.8c.7,0,1.3.2,1.7.6.4.4.6,1,.6,1.7v3.6c0,.7-.2,1.3-.6,1.7-.4.4-1,.6-1.7.6H7.3ZM8.9,8.9c-.3,0-.6-.1-.8-.3-.2-.2-.3-.5-.3-.8s.1-.6.3-.8c.2-.2.5-.3.8-.3h15c.3,0,.6.1.8.3.2.2.3.5.3.8s-.1.6-.3.8c-.2.2-.5.3-.8.3h-15ZM8.9,17.4h8.7c.3,0,.6-.1.8-.3.2-.2.3-.5.3-.8s-.1-.5-.3-.8c-.2-.2-.5-.3-.8-.3h-8.7c-.3,0-.6.1-.8.3-.2.2-.3.5-.3.8s.1.6.3.8c.2.2.5.3.8.3ZM8.9,25.8c-.3,0-.6,0-.8-.3-.2-.2-.3-.5-.3-.8s.1-.6.3-.8c.2-.2.5-.3.8-.3h15c.3,0,.6.1.8.3.2.2.3.5.3.8s-.1.6-.3.8c-.2.2-.5.3-.8.3h-15Z"/>
</svg>