<?xml version="1.0" encoding="UTF-8"?>
<svg id="Layer_1" xmlns="http://www.w3.org/2000/svg" version="1.1" viewBox="0 0 360 322">
  <!-- Generator: Adobe Illustrator 29.1.0, SVG Export Plug-In . SVG Version: 2.1.0 Build 142)  -->
  <defs>
    <style>
      .st0 {
        fill: #e0e0e0;
      }

      .st1, .st2, .st3, .st4 {
        stroke-miterlimit: 10;
        stroke-width: .8px;
      }

      .st1, .st3 {
        fill: #00b3cf;
      }

      .st1, .st4 {
        stroke: #2d429b;
      }

      .st5 {
        fill: #231f20;
      }

      .st6 {
        fill: #ebebeb;
      }

      .st7 {
        fill: #a56959;
      }

      .st2 {
        fill: #0296b9;
        stroke: #2b459c;
      }

      .st3 {
        stroke: #3d5aa9;
      }

      .st8 {
        fill: #263238;
      }

      .st9 {
        fill: #fbae34;
      }

      .st10 {
        fill: #fff;
      }

      .st11 {
        fill: #fafafa;
      }

      .st12 {
        opacity: .8;
      }

      .st13 {
        opacity: .3;
      }

      .st14 {
        fill: #f5f5f5;
      }

      .st15 {
        fill: #00e0e0;
      }

      .st16 {
        fill: #455a64;
      }

      .st17 {
        display: none;
      }

      .st18 {
        fill: #7c4435;
      }
    </style>
  </defs>
  <g id="Background_Simple" class="st17">
    <path class="st14" d="M-9,97.7C6.4,57.2,52.8,33.7,96,37.2c43.2,3.5,82.1,30,109,64,15.9,20,28.9,43.4,50.6,56.9,21.2,13.2,47.6,15,72.4,11.9,24.8-3.1,48.8-10.5,73.4-14.4,48.3-7.5,102.4,1.1,136.2,36.4,22,23.1,33,55.9,30.9,87.7-2.1,31.9-16.7,56.3-39.3,78.9-29.1,29.2-86,45-126.9,49.7-110,12.6-218.2,1.4-285.6-42.2C28.2,309-47.6,203.4-9,97.7"/>
  </g>
  <path class="st5" d="M1048,66.9c-.7,0-1.3-.2-1.7-.6-.4-.4-.6-1-.6-1.8v-7c0-.8.2-1.4.6-1.8s1-.6,1.7-.6h9.3c.7,0,1.3.2,1.7.6s.6,1,.6,1.8v7c0,.8-.2,1.4-.6,1.8-.4.4-1,.6-1.7.6h-9.3ZM1047.5,55.8v-3.2c0-1.3.2-2.3.7-3.2.5-.8,1.1-1.5,1.9-1.9.8-.4,1.6-.6,2.5-.6s1.7.2,2.5.6c.8.4,1.4,1,1.9,1.9.5.8.7,1.9.7,3.2v3.2h-1.6v-3.4c0-.9-.2-1.6-.5-2.2-.3-.6-.8-1-1.3-1.3-.5-.3-1.1-.4-1.8-.4s-1.2.1-1.8.4-1,.7-1.3,1.3c-.3.6-.5,1.3-.5,2.2v3.4h-1.6Z"/>
  <path class="st5" d="M1052.7,155c-1.4,0-2.7-.3-3.9-.8s-2.3-1.2-3.2-2.1-1.6-2-2.1-3.2-.8-2.5-.8-3.9.3-2.7.8-3.9,1.2-2.3,2.1-3.2,2-1.6,3.2-2.1,2.5-.8,3.9-.8,2.7.3,3.9.8,2.3,1.2,3.2,2.1,1.6,2,2.1,3.2.8,2.5.8,3.9-.3,2.7-.8,3.9-1.2,2.3-2.1,3.2-2,1.6-3.2,2.1-2.5.8-3.9.8ZM1052.7,152.6c1,0,2-.2,2.9-.6s1.7-.9,2.4-1.6,1.2-1.5,1.6-2.4.6-1.9.6-2.9-.2-2-.6-2.9-.9-1.7-1.6-2.4-1.5-1.2-2.4-1.6-1.9-.6-2.9-.6-2,.2-2.9.6-1.7.9-2.4,1.6-1.2,1.5-1.6,2.4-.6,1.9-.6,2.9.2,2,.6,2.9.9,1.7,1.6,2.4,1.5,1.2,2.4,1.6,1.9.6,2.9.6ZM1050.1,149.4c-.3,0-.5,0-.7-.3s-.3-.4-.3-.7,0-.5.3-.8l2-2.6-1.9-2.5c-.2-.3-.3-.5-.3-.8s0-.5.3-.7.4-.3.7-.3.4,0,.6.2.3.3.5.5l1.5,2.3h0l1.5-2.3c.2-.3.3-.4.5-.5s.3-.2.6-.2.5,0,.7.3.3.4.3.7-.1.5-.3.8l-2,2.6,1.9,2.6c.2.3.3.5.3.8s0,.5-.3.7-.4.3-.8.3-.4,0-.6-.2-.3-.3-.5-.5l-1.5-2.3h0l-1.5,2.3c-.2.3-.3.4-.5.5s-.3.1-.6.1Z"/>
  <path class="st5" d="M1052.7,95.2c-1.3,0-2.6-.2-3.8-.5-1.2-.3-2.3-.8-3.3-1.3-1-.5-1.9-1.1-2.7-1.8s-1.5-1.3-2-1.9-1-1.2-1.3-1.8-.4-1-.4-1.3.1-.8.4-1.3.7-1.1,1.3-1.8,1.2-1.3,2-1.9c.8-.6,1.7-1.2,2.7-1.8s2.1-1,3.3-1.3c1.2-.3,2.5-.5,3.8-.5s2.7.2,3.9.5c1.2.3,2.3.8,3.3,1.3s1.9,1.1,2.7,1.8c.8.6,1.5,1.3,2,1.9s1,1.2,1.3,1.8.4,1,.4,1.3-.1.8-.4,1.3-.7,1.1-1.3,1.8-1.2,1.3-2,1.9-1.7,1.2-2.7,1.8c-1,.5-2.1,1-3.3,1.3-1.2.3-2.5.5-3.9.5ZM1052.7,92.8c1,0,1.9-.1,2.8-.4.9-.2,1.7-.6,2.5-.9s1.5-.8,2.1-1.3c.6-.5,1.2-.9,1.6-1.4.4-.5.8-.9,1-1.3s.4-.7.4-.9-.1-.5-.4-.8c-.2-.4-.6-.8-1-1.2-.4-.5-1-.9-1.6-1.4-.6-.5-1.3-.9-2.1-1.3s-1.6-.7-2.5-1c-.9-.2-1.8-.4-2.8-.4s-1.9.1-2.8.4c-.9.2-1.7.6-2.5,1s-1.5.8-2.1,1.3c-.6.5-1.2.9-1.6,1.4-.4.5-.8.9-1,1.2-.2.4-.4.6-.4.8s.1.5.4.9.6.8,1,1.3c.4.5,1,.9,1.6,1.4.6.5,1.3.9,2.1,1.3s1.6.7,2.5.9c.9.2,1.8.4,2.8.4ZM1052.7,91.5c-.7,0-1.3-.1-1.9-.4-.6-.3-1.1-.6-1.6-1.1-.4-.5-.8-1-1.1-1.6-.3-.6-.4-1.2-.4-1.9s.1-1.3.4-1.9c.3-.6.6-1.1,1.1-1.6.4-.4,1-.8,1.6-1.1.6-.3,1.2-.4,1.9-.4s1.3.1,1.9.4,1.1.6,1.6,1.1c.5.4.8,1,1.1,1.6.3.6.4,1.2.4,1.9s-.1,1.3-.4,1.9c-.3.6-.6,1.1-1.1,1.6-.4.5-1,.8-1.6,1.1s-1.2.4-1.9.4ZM1052.7,88.1c.4,0,.8-.1,1.1-.4.3-.3.4-.6.4-1.1s-.1-.8-.4-1.1c-.3-.3-.6-.4-1.1-.4s-.8.1-1.1.4-.4.6-.4,1.1.1.8.4,1.1.6.4,1.1.4Z"/>
  <path class="st5" d="M1052.7,123.3c-1.3,0-2.6-.2-3.8-.5s-2.3-.7-3.3-1.3-1.9-1.1-2.7-1.8-1.5-1.3-2-1.9-1-1.2-1.3-1.8-.4-1-.4-1.3.1-.6.3-1.1.5-.9.9-1.5.9-1.1,1.5-1.6,1.3-1.1,2-1.6l1.7,1.7c-.6.4-1.1.8-1.6,1.2s-.9.8-1.2,1.2-.6.7-.8,1-.3.5-.3.7c0,.2.1.5.4.9s.6.8,1.1,1.3,1,1,1.7,1.5,1.4.9,2.2,1.3,1.7.7,2.6,1,1.9.4,2.9.4,1,0,1.6-.1,1-.2,1.5-.3l1.8,1.8c-.7.2-1.5.4-2.3.6s-1.6.2-2.5.2ZM1060.5,123.5l-16.7-16.7c-.2-.2-.2-.3-.2-.6s0-.4.2-.6c.2-.2.3-.2.6-.2s.4,0,.6.2l16.7,16.7c.2.2.2.3.2.6s0,.4-.2.6c-.2.2-.3.3-.6.2s-.4,0-.6-.2ZM1052.7,119.8c-.7,0-1.4-.1-2-.4s-1.2-.6-1.6-1.1-.8-1-1.1-1.6-.4-1.3-.4-2,0-.6,0-.9.2-.6.3-.9l6.6,6.6c-.3.1-.6.2-.9.3s-.6,0-.9,0ZM1052.7,106.2c1.3,0,2.6.2,3.8.5s2.3.7,3.3,1.3,1.9,1.1,2.7,1.8,1.5,1.3,2,1.9,1,1.2,1.3,1.8.4,1,.4,1.3-.2.9-.5,1.5-.9,1.3-1.6,2.1-1.5,1.4-2.5,2.1l-1.6-1.6c.6-.4,1.1-.8,1.5-1.2s.8-.8,1.1-1.1.6-.7.7-1,.2-.5.2-.7-.1-.5-.4-.9-.6-.8-1.1-1.3-1-1-1.7-1.5-1.4-.9-2.2-1.4-1.7-.8-2.6-1-1.9-.4-2.9-.4-1,0-1.4.1-.9.2-1.3.3l-1.8-1.8c.7-.2,1.4-.4,2.2-.5s1.5-.2,2.4-.2ZM1052.7,109.6c.7,0,1.4.1,2,.4s1.2.6,1.6,1.1.8,1,1.1,1.6.4,1.3.4,2,0,.6,0,.8-.1.5-.2.8l-6.4-6.4c.2,0,.5-.2.8-.2s.5,0,.8,0Z"/>
  <path d="M1121.3,148.5c-1.9,0-3.2-.5-4.2-1.4-.9-.9-1.4-2.3-1.4-4.1v-21.6c0-1.8.5-3.2,1.4-4.1s2.3-1.4,4.2-1.4h30.6c1.9,0,3.3.5,4.2,1.4.9.9,1.4,2.3,1.4,4.1v21.6c0,1.8-.5,3.2-1.4,4.1-.9.9-2.3,1.4-4.2,1.4h-30.6ZM1121.3,145.7h30.5c.9,0,1.5-.2,2-.7.5-.5.7-1.2.7-2.1v-21.3c0-.9-.2-1.6-.7-2.1-.5-.5-1.2-.7-2-.7h-30.5c-.9,0-1.6.2-2,.7-.5.5-.7,1.2-.7,2.1v21.3c0,.9.2,1.6.7,2.1.5.5,1.1.7,2,.7ZM1123.2,136.4c-.7,0-1.3-.2-1.7-.6-.4-.4-.6-1-.6-1.7v-3.6c0-.7.2-1.3.6-1.7.4-.4,1-.6,1.7-.6h26.8c.7,0,1.3.2,1.7.6.4.4.6,1,.6,1.7v3.6c0,.7-.2,1.3-.6,1.7-.4.4-1,.6-1.7.6h-26.8ZM1124.8,124.9c-.3,0-.6-.1-.8-.3-.2-.2-.3-.5-.3-.8s.1-.6.3-.8c.2-.2.5-.3.8-.3h15c.3,0,.6.1.8.3.2.2.3.5.3.8s-.1.6-.3.8c-.2.2-.5.3-.8.3h-15ZM1124.8,133.4h8.7c.3,0,.6-.1.8-.3.2-.2.3-.5.3-.8s-.1-.5-.3-.8c-.2-.2-.5-.3-.8-.3h-8.7c-.3,0-.6.1-.8.3-.2.2-.3.5-.3.8s.1.6.3.8c.2.2.5.3.8.3ZM1124.8,141.8c-.3,0-.6,0-.8-.3-.2-.2-.3-.5-.3-.8s.1-.6.3-.8c.2-.2.5-.3.8-.3h15c.3,0,.6.1.8.3.2.2.3.5.3.8s-.1.6-.3.8c-.2.2-.5.3-.8.3h-15Z"/>
  <path d="M1126.3,208.7c-1.8,0-3.2-.5-4.1-1.4s-1.4-2.3-1.4-4.2v-26.8c0-1.8.5-3.2,1.4-4.2s2.3-1.4,4.1-1.4h8.4c.7,0,1.2,0,1.7.1s1,.3,1.4.5c.4.2.9.6,1.3,1.1l9.7,9.9c.5.5.8.9,1.1,1.4.2.4.4.9.5,1.4,0,.5.1,1.2.1,1.9v16.1c0,1.8-.5,3.2-1.4,4.1-.9.9-2.3,1.4-4.1,1.4h-18.8ZM1126.5,205.9h18.5c.9,0,1.6-.2,2.1-.7.5-.5.7-1.1.7-2v-15.9h-10.1c-1.1,0-1.9-.3-2.5-.8-.6-.6-.8-1.4-.8-2.5v-10.3h-7.9c-.9,0-1.6.2-2.1.7s-.7,1.2-.7,2v26.7c0,.9.2,1.6.7,2,.5.5,1.2.7,2.1.7ZM1142.2,192.1c.3,0,.6.1.8.3.2.2.3.5.3.8s-.1.6-.3.8c-.2.2-.5.3-.8.3h-13.4c-.3,0-.6-.1-.8-.3-.2-.2-.3-.5-.3-.8s.1-.6.3-.8c.2-.2.5-.3.8-.3h13.4ZM1142.2,198.3c.3,0,.6.1.8.3.2.2.3.5.3.8s-.1.5-.3.8-.5.3-.8.3h-13.4c-.3,0-.6-.1-.8-.3-.2-.2-.3-.5-.3-.8s.1-.6.3-.8c.2-.2.5-.3.8-.3h13.4ZM1138,184.6h9.2l-10.2-10.4v9.4c0,.4,0,.6.2.8.1.2.4.2.8.2Z"/>
  <path d="M1124.8,314.4c-1,0-1.9-.2-2.6-.6s-1.3-1-1.7-1.7c-.4-.7-.6-1.5-.6-2.4s.2-1.7.7-2.5l13.7-23.9c.4-.8,1-1.4,1.8-1.8.7-.4,1.5-.6,2.3-.6s1.6.2,2.3.6c.7.4,1.3,1,1.8,1.8l13.7,23.9c.2.4.4.8.5,1.2.1.4.2.8.2,1.3,0,.9-.2,1.7-.6,2.4-.4.7-.9,1.3-1.7,1.7s-1.6.6-2.6.6h-27.4ZM1124.8,311.7h27.4c.6,0,1.1-.2,1.5-.6.4-.4.5-.9.5-1.4s0-.7-.3-1.1l-13.7-23.9c-.2-.3-.4-.6-.7-.7-.3-.1-.6-.2-.9-.2s-.6,0-1,.2c-.3.1-.6.4-.7.7l-13.7,23.9c0,.2-.2.4-.2.6s0,.4,0,.5c0,.5.2,1,.5,1.4.4.4.8.6,1.4.6ZM1138.5,308.3c-.5,0-1-.2-1.3-.5s-.6-.8-.6-1.3.2-.9.6-1.3.8-.5,1.3-.5,1,.2,1.3.5.6.8.6,1.3-.2,1-.6,1.3-.8.5-1.3.5ZM1138.5,302.5c-.9,0-1.4-.5-1.4-1.4l-.2-9.4c0-.4.1-.8.4-1.1s.7-.4,1.2-.4.9.2,1.2.5.5.7.5,1.1l-.3,9.3c0,.9-.5,1.4-1.3,1.4Z"/>
  <path d="M1126.4,365.5c-1.9,0-3.2-.5-4.2-1.4-.9-.9-1.4-2.3-1.4-4.1v-17c0-1.8.5-3.2,1.4-4.1s2.3-1.4,4.2-1.4h33.4c1.8,0,3.2.5,4.2,1.4.9.9,1.4,2.3,1.4,4.1v17c0,1.8-.5,3.2-1.4,4.1-.9.9-2.3,1.4-4.2,1.4h-33.4ZM1126.4,362.7h33.3c.9,0,1.5-.2,2-.7.5-.5.7-1.2.7-2.1v-16.7c0-.9-.2-1.6-.7-2.1s-1.2-.7-2-.7h-33.3c-.9,0-1.6.2-2,.7s-.7,1.2-.7,2.1v16.7c0,.9.2,1.6.7,2.1.5.5,1.1.7,2,.7ZM1128,347.4c-.5,0-.8-.3-.8-.8v-1.6c0-.5.3-.8.8-.8h1.6c.5,0,.8.3.8.8v1.6c0,.5-.3.8-.8.8h-1.6ZM1128,353.1c-.5,0-.8-.3-.8-.8v-1.6c0-.5.3-.8.8-.8h1.6c.5,0,.8.3.8.8v1.6c0,.5-.3.8-.8.8h-1.6ZM1128,358.8c-.5,0-.8-.3-.8-.8v-1.6c0-.5.3-.8.8-.8h1.6c.5,0,.8.3.8.8v1.6c0,.5-.3.8-.8.8h-1.6ZM1133.7,347.4c-.5,0-.8-.3-.8-.8v-1.6c0-.5.3-.8.8-.8h1.6c.5,0,.8.3.8.8v1.6c0,.5-.3.8-.8.8h-1.6ZM1133.7,353.1c-.5,0-.8-.3-.8-.8v-1.6c0-.5.3-.8.8-.8h1.6c.5,0,.8.3.8.8v1.6c0,.5-.3.8-.8.8h-1.6ZM1133.9,358.8c-.6,0-1-.3-1-1v-1.3c0-.6.3-1,1-1h18.3c.6,0,1,.3,1,1v1.3c0,.6-.3,1-1,1h-18.3ZM1139.4,347.4c-.5,0-.8-.3-.8-.8v-1.6c0-.5.3-.8.8-.8h1.6c.5,0,.8.3.8.8v1.6c0,.5-.3.8-.8.8h-1.6ZM1139.4,353.1c-.5,0-.8-.3-.8-.8v-1.6c0-.5.3-.8.8-.8h1.6c.5,0,.8.3.8.8v1.6c0,.5-.3.8-.8.8h-1.6ZM1145.1,347.4c-.5,0-.8-.3-.8-.8v-1.6c0-.5.3-.8.8-.8h1.6c.5,0,.8.3.8.8v1.6c0,.5-.3.8-.8.8h-1.6ZM1145.1,353.1c-.5,0-.8-.3-.8-.8v-1.6c0-.5.3-.8.8-.8h1.6c.5,0,.8.3.8.8v1.6c0,.5-.3.8-.8.8h-1.6ZM1150.8,347.4c-.5,0-.8-.3-.8-.8v-1.6c0-.5.3-.8.8-.8h1.6c.5,0,.8.3.8.8v1.6c0,.5-.3.8-.8.8h-1.6ZM1150.8,353.1c-.5,0-.8-.3-.8-.8v-1.6c0-.5.3-.8.8-.8h1.6c.5,0,.8.3.8.8v1.6c0,.5-.3.8-.8.8h-1.6ZM1156.5,347.4c-.5,0-.8-.3-.8-.8v-1.6c0-.5.3-.8.8-.8h1.6c.5,0,.8.3.8.8v1.6c0,.5-.3.8-.8.8h-1.6ZM1156.5,353.1c-.5,0-.8-.3-.8-.8v-1.6c0-.5.3-.8.8-.8h1.6c.5,0,.8.3.8.8v1.6c0,.5-.3.8-.8.8h-1.6ZM1156.5,358.8c-.5,0-.8-.3-.8-.8v-1.6c0-.5.3-.8.8-.8h1.6c.5,0,.8.3.8.8v1.6c0,.5-.3.8-.8.8h-1.6Z"/>
  <path class="st5" d="M1052.7,39.2c-1.4,0-2.7-.3-3.9-.8s-2.3-1.2-3.2-2.1-1.6-2-2.1-3.2-.8-2.5-.8-3.9.3-2.7.8-3.9,1.2-2.3,2.1-3.2,2-1.6,3.2-2.1,2.5-.8,3.9-.8,2.7.3,3.9.8,2.3,1.2,3.2,2.1,1.6,2,2.1,3.2.8,2.5.8,3.9-.3,2.7-.8,3.9-1.2,2.3-2.1,3.2-2,1.6-3.2,2.1-2.5.8-3.9.8ZM1052.7,37.5c1.1,0,2.2-.2,3.2-.6s1.9-1,2.7-1.8,1.4-1.6,1.8-2.7.6-2.1.6-3.2-.2-2.2-.6-3.2-1-1.9-1.8-2.7-1.6-1.4-2.7-1.8-2.1-.6-3.2-.6-2.2.2-3.2.6-1.9,1-2.7,1.8-1.4,1.6-1.8,2.7-.6,2.1-.6,3.2.2,2.2.6,3.2,1,1.9,1.8,2.7,1.6,1.4,2.7,1.8,2.1.6,3.2.6ZM1048.2,34.2c-.2,0-.3,0-.4-.2s-.1-.3-.1-.4c0-.3.1-.6.3-1s.5-.9.9-1.3.9-.8,1.6-1.1,1.4-.4,2.2-.4,1.6.1,2.2.4,1.2.7,1.6,1.1.7.9.9,1.3.3.8.3,1,0,.3-.1.4-.2.2-.4.2h-8.9ZM1052.7,28.9c-.5,0-.9-.1-1.3-.4s-.7-.6-.9-1-.3-.9-.3-1.4.1-.9.3-1.3.5-.7.9-1,.8-.4,1.3-.4.9.1,1.3.4.7.6.9,1,.3.9.3,1.3-.1,1-.3,1.4-.5.7-.9,1-.8.4-1.3.4Z"/>
  <path d="M1045.3,184.2c-.4,0-.8-.1-1-.3-.3-.2-.4-.5-.4-.8s0-.6.3-.9c.2-.3.4-.6.7-.9.3-.3.5-.6.8-.8.2-.2.4-.5.5-.8s.2-.7.3-1.1c0-.4,0-.8.1-1.1,0-1.2.1-2.3.4-3.2s.6-1.7,1.1-2.4c.5-.6,1.2-1.1,2-1.4.2-.6.5-1.1,1-1.6.5-.4,1-.6,1.7-.6s1.3.2,1.7.6c.5.4.8.9,1,1.6.8.3,1.5.8,2,1.4.5.6.9,1.4,1.1,2.4s.4,2,.4,3.2c0,.4,0,.7.1,1.1,0,.4.1.8.3,1.1.1.3.3.6.5.8.3.3.5.6.8.8.3.3.5.6.7.9.2.3.3.6.3.9s-.1.6-.4.8-.6.3-1,.3h-14.9ZM1052.7,188c-.5,0-1-.1-1.4-.3-.4-.2-.8-.5-1-.9s-.4-.8-.4-1.2h5.8c0,.4-.2.8-.4,1.2s-.6.7-1,.9-.9.3-1.4.3Z"/>
  <path d="M1114.6,29.7c-.5,0-.9-.1-1.1-.4-.3-.3-.4-.6-.4-1s.2-.9.6-1.2l18.7-15.7c.7-.6,1.4-.9,2.2-.9s1.5.3,2.2.9l18.7,15.7c.4.3.6.7.6,1.2s-.1.7-.4,1c-.3.3-.7.4-1.1.4s-.5,0-.7-.2c-.2-.1-.4-.3-.6-.4l-18-15.1c-.2-.2-.4-.3-.6-.3s-.4,0-.6.3l-18,15.1c-.2.1-.4.3-.6.4-.2.1-.4.2-.7.2ZM1118.6,44.3v-14.3l14.8-12.4c.7-.6,1.4-.6,2.2,0l14.8,12.4v14.3c0,1.2-.4,2.2-1.1,2.9-.7.7-1.7,1-3,1h-23.7c-1.3,0-2.3-.3-3-1-.7-.7-1.1-1.7-1.1-2.9ZM1129.6,45.4h9.7v-10.6c0-.4-.1-.7-.4-1-.2-.3-.6-.4-1-.4h-7c-.4,0-.8.1-1,.4-.3.3-.4.6-.4,1v10.6ZM1146.2,20.1v-4.3c0-.4.1-.7.4-.9s.6-.4.9-.4h1.9c.4,0,.7.1.9.4s.4.5.4.9v8.1l-4.5-3.8Z"/>
  <path d="M1122.8,100.7c-2.2,0-3.8-.5-4.9-1.6-1.1-1.1-1.6-2.7-1.6-4.8v-25.2c0-2.1.5-3.7,1.6-4.8,1.1-1.1,2.7-1.6,4.9-1.6h25c2.2,0,3.8.5,4.9,1.6,1.1,1.1,1.6,2.7,1.6,4.8v25.2c0,2.1-.5,3.7-1.6,4.8s-2.7,1.6-4.9,1.6h-25ZM1122.9,97.4h25c1,0,1.8-.3,2.4-.8.6-.5.8-1.4.8-2.4v-24.9c0-1.1-.3-1.9-.8-2.4-.6-.5-1.3-.8-2.4-.8h-25c-1,0-1.8.3-2.4.8s-.8,1.4-.8,2.4v24.9c0,1.1.3,1.9.8,2.4.5.5,1.3.8,2.4.8ZM1121.2,98.6c.3-1.4.9-2.8,1.7-4s1.9-2.3,3.2-3.2c1.3-.9,2.7-1.6,4.3-2.1,1.6-.5,3.3-.7,5.1-.7s3.5.2,5.1.7c1.6.5,3,1.2,4.3,2.1,1.3.9,2.3,2,3.1,3.2s1.4,2.6,1.7,4h-28.4ZM1135.4,85.2c-1.3,0-2.5-.4-3.6-1-1.1-.7-1.9-1.6-2.5-2.8-.6-1.2-.9-2.5-1-4,0-1.4.3-2.6.9-3.8.6-1.1,1.5-2.1,2.5-2.8,1.1-.7,2.3-1,3.6-1s2.5.3,3.6,1c1.1.7,1.9,1.6,2.5,2.8.6,1.1,1,2.4,1,3.8s-.3,2.8-1,4c-.6,1.2-1.5,2.1-2.5,2.8-1.1.7-2.3,1-3.6,1Z"/>
  <g>
    <g>
      <rect class="st11" x="183.3" y="19.9" width="176.4" height="17.5"/>
      <rect class="st6" x="183.3" y=".6" width="176.4" height="19.3"/>
      <path class="st8" d="M289.3,231.8c25.3,0,49.2,0,70.4,0v-8.6h-219V46.3h42.6v-8.9h-40c-6.3,0-11.5,5.1-11.5,11.5v183.2h.4c0-.1,70.3-.2,157.1-.2Z"/>
      <rect class="st8" x="183.3" y="37.4" width="176.4" height="8.9"/>
      <path class="st8" d="M143.3,246.9c-6.3,0-11.5-5.1-11.5-11.5v-3.4h-12.8v4.3c0,7.7,6.3,14,14,14h226.7v-3.4h-216.4Z"/>
      <path class="st8" d="M143.3,246.9h216.4v-14.7c-21.2,0-45.1,0-70.4,0-86.8,0-157.1,0-157.1-.2h-.4v3.4c0,6.3,5.1,11.5,11.5,11.5Z"/>
      <path class="st16" d="M146.9,222.7V54.9c0-1.4,1.2-2.6,2.6-2.6h33.9v-6h-42.6v176.9h219v-.6h-212.8Z"/>
      <rect class="st16" x="183.3" y="46.3" width="176.4" height="6"/>
      <path class="st6" d="M183.3,52.3h-33.9c-1.4,0-2.6,1.2-2.6,2.6v9.9h36.4v-12.5Z"/>
      <rect class="st6" x="183.3" y="52.3" width="176.4" height="12.5"/>
      <path class="st11" d="M149.5,222.7c-1.4,0-2.6-1.2-2.6-2.6v2.6h212.8s-210.3,0-210.3,0Z"/>
      <path class="st11" d="M149.5,222.7h210.3v-25.8c-29.6,0-53.6,0-53.6-.2s24-.2,53.6-.2v-2.8h-176.4V64.8h-36.4v155.3c0,1.4,1.2,2.6,2.6,2.6Z"/>
      <path class="st11" d="M306.2,186.6c0-.1,24-.2,53.6-.2v-9.8c-29.6,0-53.6,0-53.6-.2s24-.2,53.6-.2v-9.8c-29.6,0-53.6,0-53.6-.2s24-.2,53.6-.2v-27.8c-8.4,0-17.4,0-26.7,0-45,0-81.5,0-81.5-.2s36.5-.2,81.5-.2,18.4,0,26.7,0v-9.2c-8.4,0-17.4,0-26.7,0-45,0-81.5,0-81.5-.2s36.5-.2,81.5-.2,18.4,0,26.7,0v-9.2c-8.4,0-17.4,0-26.7,0-45,0-81.5,0-81.5-.2s36.5-.2,81.5-.2,18.4,0,26.7,0v-9.2c-8.4,0-17.4,0-26.7,0-45,0-81.5,0-81.5-.2s36.5-.2,81.5-.2,18.4,0,26.7,0v-9.2c-8.4,0-17.4,0-26.7,0-45,0-81.5,0-81.5-.2s36.5-.2,81.5-.2c9.4,0,18.4,0,26.7,0v-34.8h-176.4v128.9h176.4v-6.9c-29.6,0-53.6,0-53.6-.2Z"/>
      <path class="st16" d="M359.7,231.8c-21.2,0-45.1,0-70.4,0-86.8,0-157.1,0-157.1.2h227.5v-.2Z"/>
      <path class="st16" d="M132.2,232c0,.1,70.3.2,157.1.2s49.2,0,70.4,0v-.2h-227.5Z"/>
      <path class="st0" d="M251.5,99.8c0,.1,36.5.2,81.5.2s18.4,0,26.7,0v-.4c-8.4,0-17.4,0-26.7,0-45,0-81.5,0-81.5.2Z"/>
      <path class="st0" d="M251.5,109.4c0,.1,36.5.2,81.5.2s18.4,0,26.7,0v-.4c-8.4,0-17.4,0-26.7,0-45,0-81.5,0-81.5.2Z"/>
      <path class="st0" d="M251.5,118.9c0,.1,36.5.2,81.5.2s18.4,0,26.7,0v-.4c-8.4,0-17.4,0-26.7,0-45,0-81.5,0-81.5.2Z"/>
      <path class="st0" d="M251.5,128.5c0,.1,36.5.2,81.5.2s18.4,0,26.7,0v-.4c-8.4,0-17.4,0-26.7,0-45,0-81.5,0-81.5.2Z"/>
      <path class="st0" d="M251.5,138.1c0,.1,36.5.2,81.5.2s18.4,0,26.7,0v-.4c-8.4,0-17.4,0-26.7,0-45,0-81.5,0-81.5.2Z"/>
      <path class="st0" d="M359.7,166.5v-.4c-29.6,0-53.6,0-53.6.2s24,.2,53.6.2Z"/>
      <path class="st0" d="M359.7,176.6v-.4c-29.6,0-53.6,0-53.6.2s24,.2,53.6.2Z"/>
      <path class="st0" d="M359.7,186.8v-.4c-29.6,0-53.6,0-53.6.2s24,.2,53.6.2Z"/>
      <path class="st0" d="M359.7,196.9v-.4c-29.6,0-53.6,0-53.6.2s24,.2,53.6.2Z"/>
    </g>
    <path class="st11" d="M195.8,10.3c0,1.2-1,2.2-2.3,2.2s-2.3-1-2.3-2.2,1-2.2,2.3-2.2,2.3,1,2.3,2.2Z"/>
    <path class="st11" d="M203.3,10.3c0,1.2-1,2.2-2.3,2.2s-2.3-1-2.3-2.2,1-2.2,2.3-2.2,2.3,1,2.3,2.2Z"/>
    <path class="st11" d="M210.9,10.3c0,1.2-1,2.2-2.3,2.2s-2.3-1-2.3-2.2,1-2.2,2.3-2.2,2.3,1,2.3,2.2Z"/>
    <path class="st8" d="M116.1,91.9c0,.2-1.3.3-2.8.3s-2.8-.1-2.8-.3,1.3-.3,2.8-.3,2.8.1,2.8.3Z"/>
    <path class="st8" d="M119.1,84.3c.2,0,.3,1.3.3,2.8s-.1,2.8-.3,2.8-.3-1.3-.3-2.8c0-1.6.1-2.8.3-2.8Z"/>
    <path class="st8" d="M122.3,91.8c0-.2,1.3-.3,2.8-.3s2.8.1,2.8.3-1.3.3-2.8.3-2.8-.1-2.8-.3Z"/>
    <path class="st8" d="M119.3,99.4c-.2,0-.3-1.3-.3-2.8s.1-2.8.3-2.8.3,1.3.3,2.8c0,1.6-.1,2.8-.3,2.8Z"/>
    <path class="st8" d="M123.8,96.1c-.1.1-.7-.3-1.2-1-.5-.7-.9-1.3-.8-1.4.1-.1.7.3,1.2,1,.5.7.9,1.3.8,1.4Z"/>
    <path class="st8" d="M123.5,87.5c.1.1-.2.7-.8,1.3s-1.1.9-1.3.8c-.1-.1.2-.7.8-1.3.6-.6,1.1-.9,1.3-.8Z"/>
    <path class="st8" d="M117.1,89.7c-.1.1-.6-.1-1.2-.6-.5-.5-.9-.9-.8-1.1.1-.1.6.1,1.2.6.5.5.9.9.8,1.1Z"/>
    <path class="st8" d="M116.9,93.5c.1.1-.2.7-.7,1.2-.5.6-1,.9-1.2.8-.1-.1.2-.7.7-1.2.5-.6,1-.9,1.2-.8Z"/>
    <path class="st8" d="M4.6,175.9c0,0-.7.2-1.6.2s-1.6,0-1.6-.2.7-.2,1.6-.2c.9,0,1.6,0,1.6.2Z"/>
    <path class="st8" d="M6.3,171.5c0,0,.2.7.2,1.6s0,1.6-.2,1.6-.2-.7-.2-1.6,0-1.6.2-1.6Z"/>
    <path class="st8" d="M8.1,175.8c0,0,.7-.2,1.6-.2s1.6,0,1.6.2-.7.2-1.6.2c-.9,0-1.6,0-1.6-.2Z"/>
    <path class="st8" d="M6.4,180.1c0,0-.2-.7-.2-1.6s0-1.6.2-1.6.2.7.2,1.6,0,1.6-.2,1.6Z"/>
    <path class="st8" d="M9,178.2c0,0-.4-.2-.7-.6-.3-.4-.5-.7-.4-.8,0,0,.4.2.7.6.3.4.5.7.4.8Z"/>
    <path class="st8" d="M8.9,173.3c0,0-.1.4-.5.7-.3.3-.6.5-.7.5,0,0,.1-.4.5-.7.3-.3.6-.5.7-.5Z"/>
    <path class="st8" d="M5.2,174.6c0,0-.4,0-.7-.3-.3-.3-.5-.5-.4-.6,0,0,.4,0,.7.3.3.3.5.5.4.6Z"/>
    <path class="st8" d="M5.1,176.7c0,0-.1.4-.4.7-.3.3-.6.5-.7.5,0,0,.1-.4.4-.7.3-.3.6-.5.7-.5Z"/>
    <path class="st8" d="M123.5,161.8l.2.4c.3.8.9,1.4,1.7,1.7l.5.2-.5.2c-.8.3-1.4.9-1.7,1.7v.3c-.1,0-.3-.4-.3-.4-.3-.7-1-1.3-1.7-1.6l-.4-.2.5-.3c.7-.3,1.2-.9,1.5-1.6l.2-.5Z"/>
    <path class="st8" d="M38.7,105.6l.2.4c.3.8.9,1.4,1.7,1.7l.5.2-.5.2c-.8.3-1.4.9-1.7,1.7v.3c-.1,0-.3-.4-.3-.4-.3-.7-1-1.3-1.7-1.6l-.4-.2.5-.3c.7-.3,1.2-.9,1.5-1.6l.2-.5Z"/>
    <polygon class="st16" points="259.4 232 263.7 238.8 323.6 238.8 327.6 232 259.4 232"/>
    <path class="st8" d="M170.5,58.9c0,1.3-1,2.3-2.3,2.3s-2.3-1-2.3-2.3,1-2.3,2.3-2.3,2.3,1,2.3,2.3Z"/>
    <path class="st8" d="M156.6,58.9c0,1.3-1,2.3-2.3,2.3s-2.3-1-2.3-2.3,1-2.3,2.3-2.3,2.3,1,2.3,2.3Z"/>
    <path class="st8" d="M163.2,58.9c0,1.3-1,2.3-2.3,2.3s-2.3-1-2.3-2.3,1-2.3,2.3-2.3,2.3,1,2.3,2.3Z"/>
    <rect class="st0" x="251.5" y="83.5" width="65.5" height="4.4"/>
    <path class="st0" d="M315.1,147.7c0,.1-14.2.2-31.8.2s-31.8,0-31.8-.2,14.2-.2,31.8-.2,31.8,0,31.8.2Z"/>
    <rect class="st14" x="251.4" y="161.4" width="46.5" height="45"/>
    <polygon class="st6" points="255 202.5 267.9 179.4 278.4 194.2 284.8 186.3 294.3 202.5 255 202.5"/>
    <path class="st6" d="M282.9,174.9c0,1.8-1.5,3.3-3.3,3.3s-3.3-1.5-3.3-3.3,1.5-3.3,3.3-3.3,3.3,1.5,3.3,3.3Z"/>
    <path class="st6" d="M294.3,202.7s0,0,0-.2c0-.1,0-.3,0-.5,0-.5,0-1.2,0-2,0-1.8,0-4.4,0-7.6,0-6.6,0-15.9,0-27.2l.2.2c-11.4,0-24.9,0-39.3,0,0,0,.4-.4.2-.2h0v5.1c0,1.7,0,3.4,0,5,0,3.3,0,6.5,0,9.7,0,6.3,0,12.3,0,17.7l-.2-.2c11.7,0,21.5,0,28.4,0,3.4,0,6.1,0,8,0,.9,0,1.6,0,2.1,0,.2,0,.4,0,.6,0,.1,0,.2,0,.2,0,0,0,0,0-.2,0-.1,0-.3,0-.5,0-.5,0-1.2,0-2.1,0-1.9,0-4.6,0-8,0-6.9,0-16.8,0-28.5,0h-.2s0-.2,0-.2c0-5.5,0-11.4,0-17.7,0-3.2,0-6.4,0-9.7,0-1.7,0-3.3,0-5v-4.5s0-.3,0-.3v-.2h0v-.2c-.2.2.3-.3.2-.2,14.4,0,27.9,0,39.3,0h.2s0,.2,0,.2c0,11.3,0,20.7,0,27.3,0,3.3,0,5.8,0,7.6,0,.9,0,1.5,0,2,0,.2,0,.4,0,.5,0,.1,0,.2,0,.2Z"/>
    <path class="st0" d="M210.7,94.3c0,2.5-2,4.5-4.5,4.5s-4.5-2-4.5-4.5,2-4.5,4.5-4.5c2.5,0,4.5,2,4.5,4.5Z"/>
    <path class="st8" d="M322.2,121.5h-6.3c0,0,.2-17.3.2-17.3,0-12.6-10.3-22.9-23-22.9s-23,10.3-23,23l-.2,17.2h-6.3c0,0,.2-17.3.2-17.3,0-16.1,13.1-29.2,29.3-29.2s29.3,13.1,29.3,29.3l-.2,17.2Z"/>
    <path class="st1" d="M322.8,198.4h-58.5c-8,0-14.4-6.5-14.4-14.4v-56.5c0-8,6.5-14.4,14.4-14.4h58.5c8,0,14.4,6.5,14.4,14.4v56.5c0,8-6.5,14.4-14.4,14.4Z"/>
    <path d="M302.2,151.3c0-4.8-3.9-8.7-8.7-8.7s-8.7,3.9-8.7,8.7,1.7,5.9,4.1,7.4l-2.2,10.3h14.3s-1.6-6.5-2.6-10.5c2.3-1.6,3.9-4.2,3.9-7.2Z"/>
    <path class="st10" d="M255.4,172.6c-.6,0-.8-10-.6-22.2.3-12.3.9-22.2,1.5-22.2s.8,10,.6,22.2c-.3,12.3-.9,22.2-1.5,22.2Z"/>
    <path class="st10" d="M255.5,182.4c-.6,0-1-1-1.1-2.2,0-1.2.4-2.2,1-2.2s1,1,1.1,2.2c0,1.2-.4,2.2-1,2.2Z"/>
    <path class="st10" d="M282.9,170.4c-.5-.1.6-4.7,2.5-10.7l.2,1c-.8-.8-1.7-1.7-2.6-2.7-1.5-1.7-2.3-3.9-2.4-5.8-.1-2,.4-3.7,1.2-4.9.7-1.3,1.6-2.1,2.2-2.5.6-.4,1.1-.6,1.2-.5.2.2-1.1,1.3-2.1,3.6-.5,1.1-.8,2.6-.6,4.1.2,1.6.8,3.2,2,4.6.9.9,1.7,1.8,2.5,2.7l.4.4-.2.6c-2.1,6-3.9,10.3-4.4,10.1Z"/>
    <path class="st10" d="M318.9,119c0,.3-3.5.5-9.1.7-5.6.1-13.4.2-22,.1-4.3,0-8.4,0-12.1-.2-3.7,0-7.1-.3-9.8,0-2.7.3-4.7,1.2-6,2-1.2.9-1.8,1.6-1.9,1.5,0,0,.2-1,1.4-2.1,1.2-1.1,3.4-2.4,6.3-2.8,1.4-.2,3-.3,4.7-.4,1.7,0,3.4,0,5.3,0,3.7,0,7.8,0,12.1,0,8.6,0,16.4.2,22,.5,5.6.2,9.1.5,9.1.8Z"/>
    <path class="st2" d="M24.1,301.4l-.6,2.1s-7.6,12.4-6.7,13.5c.9,1.2,2.6,2.3,5.3,1.6,2.6-.7,13.8-11.2,13.8-11.2l.6-1.7-12.4-4.3Z"/>
    <path d="M17.6,314.2s3.3-1.5,5.2,2.8c0,0,1.4-.5,5.4-3.8,3.9-3.3,7.7-6.5,7.7-6.5,0,0,.4-.3.3,0-.1.3-.3.9-.3.9l-7.6,6.7s-4.6,3.9-5.7,4.2c-1.1.3-2.3.7-3.7,0s-2.2-1.7-2.2-1.9.9-2.4.9-2.4Z"/>
    <path class="st8" d="M23.2,318.4s-.1-.4-.4-1.1c-.3-.6-.8-1.5-1.6-2.1s-1.7-1-2.4-1.2c-.7-.2-1.1-.2-1.1-.2,0,0,.4,0,1.1,0,.7.1,1.7.5,2.5,1.2.8.7,1.4,1.6,1.6,2.3.2.7.3,1.1.2,1.1Z"/>
    <path class="st8" d="M36.5,306.1s0,0-.2.2c-.2.1-.3.3-.5.5-.5.5-1.2,1-2,1.7-1.8,1.5-4.1,3.4-6.6,5.6-1.3,1.1-2.5,2.2-3.8,2.9-1.3.7-2.7,1.1-3.8.9-1.1-.2-1.9-.7-2.3-1.2-.4-.5-.5-.8-.5-.8,0,0,.1.3.6.8.4.4,1.2,1,2.3,1.1,1.1.1,2.4-.2,3.6-.9,1.3-.7,2.5-1.8,3.8-2.9,2.6-2.1,4.9-4.1,6.6-5.5.8-.7,1.5-1.2,2-1.7.2-.2.4-.3.6-.4.1,0,.2-.1.2-.1Z"/>
    <path class="st8" d="M24.5,311.3c0,0-.6-.4-1.4-.9-.8-.5-1.4-.9-1.4-.9,0,0,.7.2,1.5.7.8.5,1.3,1,1.3,1.1Z"/>
    <path class="st8" d="M26.1,309.5c0,0-.8-.3-1.7-.7-.9-.4-1.7-.7-1.7-.8,0,0,.8.1,1.8.6,1,.4,1.7.9,1.6.9Z"/>
    <path class="st8" d="M27.7,308c0,0-.7-.5-1.7-1-1-.5-1.9-.7-1.9-.7,0,0,1,0,2,.5,1,.5,1.7,1.2,1.6,1.3Z"/>
    <path class="st8" d="M28.5,306.2c0,0-.7-.4-1.6-.8-.9-.4-1.7-.6-1.6-.6,0,0,.8,0,1.7.4.9.4,1.5,1,1.5,1Z"/>
    <path class="st8" d="M28.2,304.5s-.4-.2-.9-.6c-.3-.2-.6-.5-.9-.9-.1-.2-.3-.4-.4-.6,0-.1-.1-.2-.2-.4,0-.1,0-.3,0-.5.3-.3.6-.2.9,0,.2.1.5.3.6.4.3.4.5.8.6,1.1,0,.3,0,.6,0,.8,0,.2,0,.3,0,.3,0,0,0-.4-.2-1.1,0-.3-.3-.7-.6-1-.2-.2-.3-.3-.6-.4-.2,0-.5,0-.6,0-.1.1,0,.4.1.6.1.2.3.4.4.6.3.4.6.7.8.9.5.5.8.7.8.8Z"/>
    <path class="st8" d="M28,304.3s0-.1,0-.3c0-.2.2-.4.5-.7.2-.3.6-.6,1-.8.2-.1.4-.2.7-.3.1,0,.3,0,.4,0,.2,0,.3.2.4.4,0,.4-.2.6-.3.8-.2.2-.4.4-.6.5-.4.3-.8.4-1.2.5-.4,0-.7,0-.9,0-.2,0-.3,0-.3,0,0,0,.4,0,1.1,0,.3,0,.7-.2,1.1-.5.2-.1.4-.3.5-.5.2-.2.3-.4.3-.6,0-.2-.3-.2-.5-.2-.2,0-.5.1-.7.2-.4.2-.7.5-1,.7-.5.5-.6.9-.7.9Z"/>
    <path class="st8" d="M34.4,305.1s-.4-.2-1.1,0c-.6.2-1.4.8-1.9,1.7-.5.9-.6,1.9-.5,2.6,0,.7.3,1.1.2,1.1,0,0-.3-.4-.4-1.1-.1-.7,0-1.7.5-2.7.5-1,1.4-1.6,2.1-1.8.7-.2,1.2,0,1.1.1Z"/>
    <path class="st8" d="M29.9,310.1c0,0-.5.6-1.3,1.3-.8.6-1.4,1.1-1.4,1.1,0,0,.5-.6,1.3-1.3.8-.6,1.4-1.1,1.4-1.1Z"/>
    <path class="st8" d="M31.4,309.3c0,0,.2.2.2.4,0,.2,0,.4,0,.4s-.2-.1-.2-.4c0-.2,0-.4,0-.4Z"/>
    <path class="st8" d="M31.6,307.7c0,0,0,.2,0,.4,0,.2-.1.4-.2.4,0,0,0-.2,0-.4,0-.2.1-.4.2-.4Z"/>
    <path class="st8" d="M32.4,306.4c0,0,0,.2-.2.4-.1.2-.3.3-.3.2,0,0,0-.2.1-.4.1-.2.3-.3.4-.2Z"/>
    <path class="st8" d="M33.8,305.6c0,0-.1.2-.3.3-.2,0-.4.1-.4,0,0,0,0-.2.3-.3.2,0,.4-.1.4,0Z"/>
    <path class="st8" d="M35.3,305.4c0,0-.2.1-.4.1s-.4,0-.4-.1c0,0,.2-.1.4-.1.2,0,.4,0,.4.1Z"/>
    <path class="st9" d="M128.8,105.8c-.5.6-1.2,6.8-1.2,6.8,0,0-11.5,19.7-13.2,20s-8.6-13.7-8.6-13.7l-7.2,6.6s3.8,17.6,15.5,20.6c5.5,1.4,15.2-16.1,21.6-30.7.1-.2,3.4-8.2,3.4-8.2l-10.4-1.5Z"/>
    <g>
      <path class="st9" d="M139.1,108s0,0,0,.2c-.3.9-2.1,4.8-2.6,4.8-.6,0-1.8-.9-1.7-1.5s2.4-4.8,2.4-4.8c0,0,.4-.7,1.6-.3.8.2.3,1.7.3,1.7Z"/>
      <path class="st9" d="M137.4,105.6s0,0,0,.2c-.3.9-2.1,4.8-2.6,4.8-.6,0-1.8-.9-1.7-1.5.1-.6,2.4-4.8,2.4-4.8,0,0,.4-.7,1.6-.3.8.2.3,1.7.3,1.7Z"/>
      <path class="st9" d="M135.4,103.8s0,0,0,.2c-.3.9-2.1,4.8-2.6,4.8-.6,0-1.8-.9-1.7-1.5.1-.6,2.4-4.8,2.4-4.8,0,0,.4-.7,1.6-.3.8.2.3,1.7.3,1.7Z"/>
      <path class="st9" d="M133.4,102.2s0,0,0,.2c-.3.9-2.1,4.8-2.6,4.8-.6,0-1.8-.9-1.7-1.5.1-.6,2.4-4.8,2.4-4.8,0,0,.4-.7,1.6-.3.8.2.3,1.7.3,1.7Z"/>
      <path class="st18" d="M135.2,110.4c0,0,.5-.8,1-1.8.5-1,.8-1.9.8-1.9,0,0-.5.8-1,1.8-.5,1-.8,1.9-.8,1.9Z"/>
      <path class="st18" d="M132.9,109.3c0,0,.7-1.1,1.4-2.6.7-1.5,1.2-2.7,1.2-2.7s-.7,1.1-1.4,2.6c-.7,1.5-1.2,2.7-1.2,2.7Z"/>
      <g class="st12">
        <path class="st18" d="M130.6,108.1c0,0,.7-1.1,1.4-2.6.7-1.5,1.2-2.7,1.2-2.7s-.7,1.1-1.4,2.6c-.7,1.5-1.2,2.7-1.2,2.7Z"/>
      </g>
    </g>
    <path class="st9" d="M128.8,113.6l-.8-3.5c-.3-1.5,0-3.1.7-4.4l.6-1,7.5,3.8s-1.9,2.5-3.8,1l1.4,3-5.7,1.1Z"/>
    <path class="st18" d="M133.8,112.8s0-.4,0-1.1c-.1-.7-.5-1.6-1.4-2.4l-.7-.6.9.3c.6.2,1.3.4,2,.6h0c.8,0,1.8-.2,2.3-.9,0,0,0-.1,0-.2v.3c-2.1-1-4-1.9-5.4-2.7-1.4-.7-2.2-1.3-2.2-1.3,0,0,.9.4,2.3,1.1,1.4.7,3.4,1.6,5.5,2.5h.2c0,0,0,.3,0,.3,0,0,0,.2-.1.2-.3.5-.7.8-1.2,1-.5.2-1,.2-1.4.1h0s0,0,0,0c-.7-.2-1.3-.5-1.9-.7l.2-.3c1,.8,1.3,1.9,1.3,2.6,0,.7-.1,1.1-.1,1.1Z"/>
    <path class="st18" d="M135.8,109.4c0,0,0,.4,0,1,0,.3.3.6.6.6.3,0,.7-.2.9-.6.5-.8,1-1.5,1.3-2,.3-.5.5-.9.5-.9,0,0,0,.4-.3,1-.3.6-.7,1.3-1.2,2.2-.3.4-.8.8-1.3.7-.6,0-.8-.6-.8-.9,0-.4,0-.6.1-.8,0-.2.1-.3.1-.2Z"/>
    <path class="st16" d="M103.1,159.8s-6.4-15.8-6.4-16.1l1.7-5.9.7-3.4,2.2,2.5,10.6-11.1c.2.3-4.8-7-9.9-14.1-3.5-5-7.4-6-9.6-6.2-1.7-.5-2.8-.6-2.8-.6l-18.3-.2s-5.7-.3-10.9,4c-.8.7-7.8,10-12.6,19.2l14.7,10.6,2.4-4.3h0c.2,1.5,1.1,5.7,1.4,7.2.9,4.4,1.2,9.8-1,13.4,0,0-2.4,5.9-4.2,12.6h45.1s-1.5-3.9-3-7.7Z"/>
    <path class="st7" d="M66.8,153.2l-1.5-1.2c0,0,0-.1,0-.1h0c0,0-10.2-8.1-10.2-8.1l4.4-7.2-10.6-7.7c0,.5-9.8,15.1-8.5,18,1.9,4.1,14.7,12.2,19.9,15.3-.6,0-3,.4-4.2.8-1.3.4,3,1.6,4.1,1.8.4,0,1.3-.6,2.2-1.4.2,0,.2.1.2.1l.3-.7c1.2-1.3,2.4-2.7,2.7-3.1.2-.3.2-1.9.1-3.5l1.2-2.9Z"/>
    <path class="st2" d="M123.3,305.7v-1.5c0,0-15.2.4-15.2.4v4.9c.1,0,1.1,0,1.1,0,4.2.1,21.1.3,23.9-.6,3.1-1-9.8-3.3-9.8-3.3Z"/>
    <g class="st13">
      <path d="M113.7,309.3c-.3-1.2-1-2.2-2-2.9-1-.7-2.3-1.1-3.5-.9v3.9c.1,0,5.6,0,5.6,0Z"/>
    </g>
    <g class="st13">
      <path d="M129.6,307s4.5,1.1,4,1.8c-.5.7-17.7,1.2-25.3.7v-.3s20.1-.4,20.1-.4c0,0,.4-1.8,1.3-1.8Z"/>
    </g>
    <path class="st8" d="M108,309.3s0,0,.3,0c.2,0,.5,0,.7,0,.7,0,1.7,0,2.7,0,2.3,0,5.5,0,9,0,3.5,0,6.7-.2,9-.4,1.1,0,2-.1,2.7-.2.3,0,.5,0,.7,0,.2,0,.3,0,.3,0,0,0,0,0-.3,0-.2,0-.5,0-.7,0-.7,0-1.7,0-2.7.1-2.3.1-5.5.2-9,.3-3.5,0-6.7.1-9,.1-1.1,0-2,0-2.7,0-.3,0-.5,0-.7,0-.2,0-.3,0-.3,0Z"/>
    <path class="st8" d="M128.3,309.1c0,0,0-.6.5-1.2.4-.6.9-1,.9-1,0,0-.6.2-1.1.9-.4.7-.4,1.3-.3,1.3Z"/>
    <path class="st8" d="M123.8,307.1s.2-.2.5-.5.3-.6.3-.6-.2.2-.5.5c-.2.3-.3.6-.3.6Z"/>
    <path class="st8" d="M122.6,306.6s.3-.1.5-.3.4-.4.4-.5c0,0-.3.1-.5.3-.3.2-.4.4-.4.5Z"/>
    <path class="st8" d="M121.8,305.3s.4,0,.8,0,.8,0,.8,0c0,0-.4,0-.8,0-.4,0-.8,0-.8,0Z"/>
    <path class="st8" d="M121.5,304.3s.4.2.9.2c.5,0,.9,0,.9-.1,0,0-.4,0-.9,0-.5,0-.9,0-.9,0Z"/>
    <path class="st8" d="M124.3,305.9s.4,0,1,0,.6-.1,1-.2c.2,0,.4-.1.6-.2,0,0,.2-.1.2-.3,0-.1,0-.3-.2-.4-.9-.4-1.8,0-2.2.5-.2.2-.3.5-.3.6,0,.2,0,.2,0,.2,0,0,0-.4.4-.8.2-.2.5-.4.8-.5.3-.1.8-.1,1.2,0,.2.1.1.3,0,.4-.2,0-.4.2-.5.2-.4.1-.7.2-1,.3-.6.1-.9.1-.9.1Z"/>
    <path class="st8" d="M124.5,305.9s.1-.2,0-.6c0-.2-.1-.4-.3-.6-.2-.2-.4-.5-.8-.4-.2,0-.3.3-.3.4,0,.2.1.3.2.4.2.2.3.4.5.5.3.3.6.4.6.3,0,0-.2-.2-.5-.4-.1-.1-.3-.3-.4-.5-.1-.2-.2-.5,0-.6.2,0,.5.2.6.4.2.2.2.4.3.6,0,.4,0,.6,0,.6Z"/>
    <path class="st8" d="M108.2,305.4s.4,0,1.1,0c.7,0,1.6.3,2.5.9.8.6,1.3,1.4,1.6,2,.2.6.3,1,.3,1,0,0,0-.1,0-.3s0-.4-.2-.8c-.2-.6-.7-1.4-1.6-2-.9-.6-1.9-.8-2.6-.8-.4,0-.6,0-.8,0-.2,0-.3,0-.3,0Z"/>
    <path class="st8" d="M115.6,307.9s1,.2,2.2.1c1.2,0,2.2-.2,2.2-.2,0,0-1,0-2.2,0-1.2,0-2.2,0-2.2,0Z"/>
    <path class="st8" d="M112.6,308s0,.2.2.4c.1.2.2.4.2.4,0,0,0-.2,0-.5-.1-.2-.3-.4-.4-.3Z"/>
    <path class="st8" d="M111.5,306.7s0,.2.2.3c.2.1.3.2.4.2,0,0,0-.2-.2-.3-.2-.1-.3-.2-.4-.2Z"/>
    <path class="st8" d="M109.9,306.2s.2,0,.4.1c.2,0,.4.2.4.1,0,0,0-.2-.4-.3-.3,0-.5,0-.5,0Z"/>
    <path class="st8" d="M108.7,305.9s0,.1.2.2c.1,0,.2,0,.3,0,0,0,0-.1-.2-.2-.1,0-.2,0-.3,0Z"/>
    <path class="st8" d="M79,67.7c-1.7-1.5-4.5-1.7-6.4-.5-1,.6-1.7,1.6-2.8,2-1.7.8-3.8.2-5.7.5-2.8.4-5,3.2-4.9,6,0,1.5.7,3.1,0,4.5-.6,1.2-2.1,1.6-3.1,2.4-1.8,1.4-2.1,4.3-.6,6.1.6.7,1.3,1.2,1.8,1.9.7,1.2.6,2.6.8,4s1,2.9,2.3,3c1.1,0,2.1-.9,3.2-.8,1.5.1,2.2,2,3.1,3.3,1.1,1.6,3.2,2.5,5.1,2.2,1.4-.2,2.8-.9,4.2-.6,1.7.4,2.8,2.5,4.5,2.7,1.3.2,2.5-.7,3.5-1.6s2-1.9,3.3-2.2c1.6-.3,3.1.7,4.7.9,2,.3,4.2-.8,5.2-2.6.9-1.6.9-3.5,1.7-5.1.5-1.1,1.4-1.9,2.1-2.9.7-1,1.2-2.3.8-3.4-.3-.8-1-1.4-1.3-2.2-.5-1.2-.1-2.6,0-3.8.1-1.3-.1-2.9-1.3-3.4-.5-.2-1.1-.2-1.5-.5-.9-.6-.9-1.9-1-3-.1-1.6-.9-3.2-2.2-4-1.4-.8-3.4-.4-4.1,1"/>
    <path class="st3" d="M70.2,82.2c-1.4-2.6-1.6-5.8-.6-8.5s3.3-5,6.1-6c2-.7,4.1-.8,6.2-.7,1.8,0,3.6.3,5.2,1.1,1.6.8,3,2.2,3.2,4"/>
    <g>
      <path class="st9" d="M80,114.1h0c4.1.3,7.6-2.8,7.8-6.9.2-3.9.3-7.9.3-7.9,0,0,6-.6,6.4-6.5s.2-19.6.2-19.6h0c-6.7-3.4-14.6-2.8-20.8,1.3l-.9.6.3,31.8c0,3.8,2.9,6.9,6.7,7.1Z"/>
      <g>
        <path class="st8" d="M91.9,83.6c-.3-.3-.3-.9,0-1.2.3-.3.9-.3,1.2,0,.3.3.3.9,0,1.2-.3.3-.9.3-1.2,0Z"/>
        <path class="st8" d="M94.3,82.6c0,0-.7-.4-1.5-.4-.8,0-1.4.3-1.5.2,0,0,0-.2.3-.4.3-.2.7-.3,1.2-.3.5,0,.9.3,1.2.5.2.2.3.4.3.5Z"/>
      </g>
      <g>
        <path class="st8" d="M84.2,82.5c.4.3.5.8.2,1.2-.3.4-.8.5-1.2.2-.4-.3-.5-.8-.2-1.2.3-.4.8-.5,1.2-.2Z"/>
        <path class="st8" d="M85.4,82.8s-.5-.6-1.5-.4c-.8,0-1.4.3-1.5.2,0,0,0-.2.3-.4.3-.2.7-.3,1.2-.3.5,0,.9.3,1.2.5.2.2.3.4.3.5Z"/>
      </g>
      <path class="st8" d="M88.3,89.1c0,0,.5-.1,1.3-.2.2,0,.4,0,.4-.2,0-.1,0-.4-.1-.6-.2-.6-.4-1.1-.5-1.7-.7-2.4-1.3-4.4-1.1-4.4.1,0,.8,1.9,1.6,4.3.2.6.3,1.2.5,1.7,0,.3.2.5,0,.9,0,.2-.2.3-.4.3-.1,0-.3,0-.4,0-.8,0-1.3,0-1.3-.1Z"/>
      <path class="st18" d="M88.1,99.1s-3.8,0-7.6-2.7c0,0,1.6,4.4,7.5,4.2v-1.5Z"/>
    </g>
    <path class="st8" d="M78.4,71.2c.2,2.4,2.3,4.6,4.7,4.9,1.5.2,3-.2,4.3.4.9.5,1.5,1.4,2.2,2.2s1.6,1.6,2.6,1.6c.5,0,1-.2,1.5-.3.5-.1,1.1-.1,1.5.2.6-1.8,1.1-3.6.9-5.5s-1.5-3.7-3.3-4.2c-1.2-.3-2.4-.1-3.7-.3-1-.2-1.9-.6-2.8-1-1.5-.7-3.2-1.3-4.9-1-1.7.3-3.3,1.6-3.2,3.3"/>
    <path class="st8" d="M73.4,87.3c2.1,1.7,4.7-2.7,5.9-5.5s1.5-5.9,1.7-8.9c0-1,0-2.1-.5-2.9-.6-.8-.9.2-1.6-.6-1.3-1.5-3.7-.7-4.9-.2-2,.9-3.2,3.1-3.6,5.4-.4,2.3,0,4.6.2,6.9.1,1,.3,2.1.4,3.1.1.7.2,1.5.6,2.1.4.6,1.2,1,1.8.7"/>
    <path class="st9" d="M73.4,82.5c0-.5-.4-.9-.9-.9-1.1,0-2.9.4-3.1,3.5-.2,4.4,3.9,3.3,4,3.1,0,0,0-4,0-5.7Z"/>
    <path class="st18" d="M72.4,86.5s0,0-.2.1c-.1,0-.3,0-.6,0-.4-.2-.8-.9-.8-1.7,0-.4.1-.8.3-1.1.2-.3.4-.5.6-.6.2,0,.4.1.4.2,0,.1,0,.2,0,.2,0,0,0,0,0-.2,0,0,0-.2-.2-.3-.1,0-.3-.1-.4-.1-.3,0-.7.3-.8.6-.2.3-.3.8-.3,1.2,0,.9.4,1.7,1,1.9.3,0,.6,0,.7,0,.1-.1.2-.2.2-.2Z"/>
    <path class="st18" d="M86.2,90.2c-.3.5-.1,1.2.4,1.6.5.3,1.2.2,1.6-.3.3-.5.2-1.2-.3-1.6s-1.2-.2-1.6.2"/>
    <path class="st8" d="M88.9,91c0,.1-.8.3-1.8,0-1-.4-1.6-1.1-1.5-1.1,0,0,.7.4,1.6.7.9.3,1.7.3,1.7.4Z"/>
    <path class="st3" d="M77.8,67.8c-1.6-.2-2.8-1.8-3-3.4-.3-1.6.1-3.2.6-4.8,1.3.9,2.3,2.3,2.7,3.8.4,1.5.3,3.2-.4,4.7"/>
    <path class="st3" d="M77.8,67.5c-.4-1.2.3-2.5,1.3-3.1,1-.6,2.3-.7,3.5-.6.1,0,.2,0,.3,0,.1,0,.2.2.2.4.2,1.2-.6,2.4-1.7,2.9-1.1.6-2.3.7-3.5.8-.2,0-.4,0-.6,0s-.3-.3-.2-.5"/>
    <path class="st8" d="M99.3,75.3s0,0-.1-.2c0-.1-.3-.3-.5-.3-.3,0-.7,0-.8.4-.1.3,0,.8.5,1,.4.2,1,0,1.3-.4.3-.4.4-1.1.1-1.7-.5-1.2-2-2.1-3.5-1.7,0,0-.2,0-.2,0l-1.1.3.9-.7c.6-.4.7-1.2.5-1.9-.2-.7-.8-1.1-1.3-1.4-1.2-.5-2.5,0-3.3.5-.4.3-.8.6-1.2.8-.4.2-.7.3-1,.3-.6,0-.9-.3-.8-.3,0,0,.3.2.8.2.3,0,.6-.1.9-.4.3-.2.7-.5,1.1-.8.4-.3,1-.6,1.6-.7.6-.1,1.3-.2,2,.1.7.3,1.3.8,1.6,1.6.2.8,0,1.8-.7,2.3l-.2-.4c0,0,.2,0,.3,0,1.7-.4,3.5.6,4,2,.3.7.2,1.5-.2,2.1-.4.5-1.2.8-1.7.5-.5-.3-.7-.9-.6-1.4,0-.2.3-.4.5-.5.2,0,.4,0,.5,0,.3,0,.5.3.6.4,0,.2,0,.2,0,.2Z"/>
    <path class="st8" d="M56,82.3s.1,0,.4,0c.3,0,.7.3,1,.7.1.2.3.5.3.9,0,.3,0,.7-.4,1-.3.3-.7.5-1.1.6-.4,0-1,0-1.4-.4-.8-.7-.8-2-.5-3,.4-1.1,1.2-2.1,2.4-2.6.6-.2,1.2-.3,1.8-.5.6-.2,1.1-.5,1.4-1.1.3-.5.3-1.2.2-1.9,0-.7-.3-1.3-.6-2-.2-.7-.4-1.4-.4-2.1,0-.7.3-1.5.8-2,.5-.5,1.1-.9,1.7-1.1.7-.2,1.3-.2,2-.1,1.3.1,2.3.8,3.4.9.5,0,1,0,1.5-.2.4-.2.8-.6,1.1-.9.6-.7,1.2-1.4,1.9-1.7.7-.3,1.4-.4,1.9-.3.5,0,.9.2,1.2.3.1,0,.2.1.3.2,0,0,0,0,0,0,0,0-.5-.3-1.5-.4-.5,0-1.2,0-1.8.4-.7.3-1.2,1-1.8,1.7-.3.4-.7.7-1.2,1-.5.3-1.1.3-1.6.3-1.1-.2-2.2-.8-3.4-.9-1.2-.1-2.5.2-3.4,1.1-.4.5-.7,1.1-.7,1.8,0,.7.2,1.3.4,2,.2.7.5,1.4.6,2.1,0,.7,0,1.5-.3,2.1-.3.7-1,1.1-1.7,1.2-.6.2-1.3.3-1.8.5-1.1.4-1.9,1.4-2.3,2.3-.3,1-.3,2.1.3,2.7.6.6,1.7.4,2.1-.1.5-.5.4-1.2.1-1.7-.3-.4-.6-.7-.9-.7-.3,0-.4,0-.4-.1Z"/>
    <path class="st8" d="M81.1,86.5c-.1,0-.2,0-.3,0s0-.2.1-.2c.1,0,.2,0,.3,0,0,0,0,.2-.1.2Z"/>
    <path class="st8" d="M82.7,86.4c-.1,0-.2,0-.2-.2,0-.1,0-.2.2-.3.1,0,.2,0,.2.2,0,.1,0,.2-.2.3Z"/>
    <path class="st8" d="M84.1,86.7c-.1,0-.2-.1-.2-.3,0-.1.1-.2.2-.2.1,0,.2.1.2.3,0,.1-.1.2-.2.2Z"/>
    <ellipse class="st8" cx="82.4" cy="87.5" rx=".2" ry=".2"/>
    <path class="st8" d="M92.2,86.9c-.1,0-.2,0-.2-.2s0-.2.2-.3.2,0,.2.2c0,.1,0,.2-.2.3Z"/>
    <path class="st8" d="M93.3,87c-.1,0-.2-.2,0-.4,0-.2.2-.3.3-.2.1,0,.2.2,0,.4,0,.2-.2.3-.3.2Z"/>
    <path class="st8" d="M92.7,88.4c-.1,0-.2-.1-.2-.3,0-.1.1-.2.2-.2s.2.1.2.3-.1.2-.2.2Z"/>
    <path class="st8" d="M124.3,304.7l-17.8-128.8h0l-.5-8.3-44.5-2.1-1.9,7c-6.2,22-37.8,128.4-37.8,128.4l15.4,4.9,45.9-121.9,21.4,120.7,19.8.2Z"/>
    <path class="st16" d="M103.8,166.3c-.1,0-.2-.2-.3-.6s0-.6.1-.6c.1,0,.2.2.3.6,0,.3,0,.6-.1.6Z"/>
    <path class="st16" d="M104.3,171c-.1,0-.3-.5-.3-1.2,0-.6,0-1.2,0-1.2s.3.5.3,1.2c0,.6,0,1.2,0,1.2Z"/>
    <path class="st16" d="M104.8,175.6c-.1,0-.3-.5-.3-1.1s0-1.2,0-1.2c.1,0,.3.5.3,1.1,0,.6,0,1.2,0,1.2Z"/>
    <path class="st16" d="M105.3,180.3c-.1,0-.3-.5-.3-1.1,0-.6,0-1.2,0-1.2.1,0,.3.5.3,1.1,0,.6,0,1.2,0,1.2Z"/>
    <path class="st16" d="M105.8,185c-.1,0-.3-.5-.3-1.1s0-1.2,0-1.2c.1,0,.3.5.3,1.1,0,.6,0,1.2,0,1.2Z"/>
    <path class="st16" d="M106.3,189.7c-.1,0-.3-.5-.3-1.1,0-.6,0-1.2,0-1.2.1,0,.3.5.3,1.1,0,.6,0,1.2,0,1.2Z"/>
    <path class="st16" d="M106.9,194.4c-.1,0-.3-.5-.3-1.1,0-.6,0-1.2,0-1.2.1,0,.3.5.3,1.1,0,.6,0,1.2,0,1.2Z"/>
    <path class="st16" d="M107.4,199c-.1,0-.3-.5-.3-1.1s0-1.2,0-1.2c.1,0,.3.5.3,1.1,0,.6,0,1.2,0,1.2Z"/>
    <path class="st16" d="M108,203.7c-.1,0-.3-.5-.3-1.1,0-.6,0-1.2,0-1.2.1,0,.3.5.3,1.1,0,.6,0,1.2,0,1.2Z"/>
    <path class="st16" d="M108.6,208.4c-.1,0-.3-.5-.4-1.1s0-1.2,0-1.2.3.5.4,1.1c0,.6,0,1.2,0,1.2Z"/>
    <path class="st16" d="M109.2,213.1c-.1,0-.3-.5-.4-1.1s0-1.2,0-1.2c.1,0,.3.5.4,1.1s0,1.2,0,1.2Z"/>
    <path class="st16" d="M109.8,217.7c-.1,0-.3-.5-.4-1.1,0-.6,0-1.2,0-1.2.1,0,.3.5.4,1.1,0,.6,0,1.2,0,1.2Z"/>
    <path class="st16" d="M110.4,222.4c-.1,0-.3-.5-.4-1.1s0-1.2,0-1.2c.1,0,.3.5.4,1.1,0,.6,0,1.2,0,1.2Z"/>
    <path class="st16" d="M111.1,227.1c-.1,0-.3-.5-.4-1.1s0-1.2,0-1.2c.1,0,.3.5.4,1.1,0,.6,0,1.2,0,1.2Z"/>
    <path class="st16" d="M111.7,231.8c-.1,0-.3-.5-.4-1.1,0-.6,0-1.2,0-1.2.1,0,.3.5.4,1.1,0,.6,0,1.2,0,1.2Z"/>
    <path class="st16" d="M112.3,236.4c-.1,0-.3-.5-.4-1.1,0-.6,0-1.2,0-1.2.1,0,.3.5.4,1.1,0,.6,0,1.2,0,1.2Z"/>
    <path class="st16" d="M113,241.1c-.1,0-.3-.5-.4-1.1,0-.6,0-1.2,0-1.2.1,0,.3.5.4,1.1,0,.6,0,1.2,0,1.2Z"/>
    <path class="st16" d="M113.6,245.8c-.1,0-.3-.5-.4-1.1s0-1.2,0-1.2.3.5.4,1.1c0,.6,0,1.2,0,1.2Z"/>
    <path class="st16" d="M114.3,250.4c-.1,0-.3-.5-.4-1.1,0-.6,0-1.2,0-1.2.1,0,.3.5.4,1.1,0,.6,0,1.2,0,1.2Z"/>
    <path class="st16" d="M115,255.1c-.1,0-.3-.5-.4-1.1s0-1.2,0-1.2c.1,0,.3.5.4,1.1,0,.6,0,1.2,0,1.2Z"/>
    <path class="st16" d="M115.7,259.7c-.1,0-.3-.5-.4-1.1,0-.6,0-1.2,0-1.2.1,0,.3.5.4,1.1,0,.6,0,1.2,0,1.2Z"/>
    <path class="st16" d="M116.4,264.4c-.1,0-.3-.5-.4-1.1s0-1.2,0-1.2c.1,0,.3.5.4,1.1,0,.6,0,1.2,0,1.2Z"/>
    <path class="st16" d="M117.1,269c-.1,0-.3-.5-.4-1.1s0-1.2,0-1.2.3.5.4,1.1c0,.6,0,1.2,0,1.2Z"/>
    <path class="st16" d="M117.8,273.7c-.1,0-.3-.5-.4-1.1,0-.6,0-1.2,0-1.2.1,0,.3.5.4,1.1s0,1.2,0,1.2Z"/>
    <path class="st16" d="M118.5,278.3c-.1,0-.3-.5-.4-1.1,0-.6,0-1.2,0-1.2.1,0,.3.5.4,1.1,0,.6,0,1.2,0,1.2Z"/>
    <path class="st16" d="M119.2,283c-.1,0-.3-.5-.4-1.1,0-.6,0-1.2,0-1.2s.3.5.4,1.1c0,.6,0,1.2,0,1.2Z"/>
    <path class="st16" d="M119.9,287.7c-.1,0-.3-.5-.4-1.1s0-1.2,0-1.2c.1,0,.3.5.4,1.1,0,.6,0,1.2,0,1.2Z"/>
    <path class="st16" d="M120.6,292.3c-.1,0-.3-.5-.4-1.1s0-1.2,0-1.2.3.5.4,1.1c0,.6,0,1.2,0,1.2Z"/>
    <path class="st16" d="M121.3,297c-.1,0-.3-.5-.4-1.1,0-.6,0-1.2,0-1.2s.3.5.4,1.1c0,.6,0,1.2,0,1.2Z"/>
    <path class="st16" d="M122,301.6c-.1,0-.3-.5-.4-1.1s0-1.2,0-1.2.3.5.4,1.1c0,.6,0,1.2,0,1.2Z"/>
    <path class="st16" d="M122.6,305.2c-.1,0-.2-.2-.3-.6,0-.3,0-.6.1-.6.1,0,.2.2.3.6,0,.3,0,.6-.1.6Z"/>
    <path class="st16" d="M36.3,302.3c.1,0,.1.3,0,.6s-.3.5-.4.5c-.1,0-.1-.3,0-.6,0-.3.3-.5.4-.5Z"/>
    <path class="st16" d="M37.7,297.8c.1,0,0,.6-.2,1.2-.2.6-.5,1.1-.6,1.1s0-.6.2-1.2c.2-.6.5-1.1.6-1.1Z"/>
    <path class="st16" d="M39.2,293.2c.1,0,0,.6-.2,1.2s-.5,1.1-.6,1.1c-.1,0,0-.6.2-1.2.2-.6.5-1.1.6-1.1Z"/>
    <path class="st16" d="M40.7,288.7c.1,0,0,.6-.2,1.2s-.5,1.1-.6,1.1,0-.6.2-1.2.5-1.1.6-1.1Z"/>
    <path class="st16" d="M42.2,284.1c.1,0,0,.6-.2,1.2s-.5,1.1-.6,1.1c-.1,0,0-.6.2-1.2.2-.6.5-1.1.6-1.1Z"/>
    <path class="st16" d="M43.8,279.6c.1,0,0,.6-.2,1.2s-.5,1.1-.6,1.1,0-.6.2-1.2c.2-.6.5-1.1.6-1.1Z"/>
    <path class="st16" d="M45.3,275.1c.1,0,0,.6-.2,1.2s-.5,1.1-.6,1.1,0-.6.2-1.2c.2-.6.5-1.1.6-1.1Z"/>
    <path class="st16" d="M46.9,270.5c.1,0,0,.6-.2,1.2s-.5,1.1-.6,1.1,0-.6.2-1.2c.2-.6.5-1.1.6-1.1Z"/>
    <path class="st16" d="M48.5,266c.1,0,0,.6-.2,1.2-.2.6-.5,1.1-.6,1.1-.1,0,0-.6.2-1.2.2-.6.5-1.1.6-1.1Z"/>
    <path class="st16" d="M50.2,261.5c.1,0,0,.6-.2,1.2-.2.6-.5,1.1-.6,1.1-.1,0,0-.6.2-1.2.2-.6.5-1.1.6-1.1Z"/>
    <path class="st16" d="M51.8,257c.1,0,0,.6-.2,1.2-.2.6-.5,1.1-.6,1.1-.1,0,0-.6.2-1.2.2-.6.5-1.1.6-1.1Z"/>
    <path class="st16" d="M53.4,252.5c.1,0,0,.6-.2,1.2s-.5,1.1-.6,1.1c-.1,0,0-.6.2-1.2.2-.6.5-1.1.6-1.1Z"/>
    <path class="st16" d="M55.1,248c.1,0,0,.6-.2,1.2-.2.6-.5,1.1-.6,1.1-.1,0,0-.6.2-1.2.2-.6.5-1.1.6-1.1Z"/>
    <path class="st16" d="M56.8,243.5c.1,0,0,.6-.2,1.2-.2.6-.5,1.1-.6,1.1s0-.6.2-1.2c.2-.6.5-1.1.6-1Z"/>
    <path class="st16" d="M58.5,239c.1,0,0,.6-.2,1.2-.2.6-.5,1.1-.6,1-.1,0,0-.6.2-1.2.2-.6.5-1.1.6-1Z"/>
    <path class="st16" d="M60.2,234.5c.1,0,0,.6-.2,1.2-.2.6-.5,1.1-.6,1s0-.6.2-1.2c.2-.6.5-1.1.6-1Z"/>
    <path class="st16" d="M61.9,230.1c.1,0,0,.6-.2,1.2s-.5,1.1-.6,1c-.1,0,0-.6.2-1.2s.5-1.1.6-1Z"/>
    <path class="st16" d="M63.6,225.6c.1,0,0,.6-.2,1.2-.2.6-.5,1.1-.6,1s0-.6.2-1.2c.2-.6.5-1.1.6-1Z"/>
    <path class="st16" d="M65.3,221.1c.1,0,0,.6-.2,1.2-.2.6-.5,1.1-.6,1s0-.6.2-1.2c.2-.6.5-1.1.6-1Z"/>
    <path class="st16" d="M67.1,216.7c.1,0,0,.6-.2,1.2-.2.6-.5,1.1-.6,1s0-.6.2-1.2c.2-.6.5-1.1.6-1Z"/>
    <path class="st16" d="M68.8,212.2c.1,0,0,.6-.2,1.2-.2.6-.5,1.1-.6,1s0-.6.2-1.2c.2-.6.5-1.1.6-1Z"/>
    <path class="st16" d="M70.6,207.7c.1,0,0,.6-.2,1.2-.2.6-.5,1.1-.6,1s0-.6.2-1.2c.2-.6.5-1.1.6-1Z"/>
    <path class="st16" d="M72.3,203.3c.1,0,0,.6-.2,1.2-.2.6-.5,1.1-.6,1-.1,0,0-.6.2-1.2.2-.6.5-1.1.6-1Z"/>
    <path class="st16" d="M74,198.8c.1,0,0,.6-.2,1.2s-.5,1.1-.6,1c-.1,0,0-.6.2-1.2.2-.6.5-1.1.6-1Z"/>
    <path class="st16" d="M75.9,194.4c.1,0,0,.6-.3,1.2s-.6,1.1-.7,1,0-.6.3-1.2c.3-.6.6-1.1.7-1Z"/>
    <path class="st16" d="M77.9,190c.1,0,0,.6-.3,1.2-.3.6-.6,1-.7,1s0-.6.3-1.2c.3-.6.6-1,.7-1Z"/>
    <path class="st16" d="M80.5,186c0,0-.1.6-.5,1.1-.4.5-.8.9-.9.9,0,0,.1-.6.5-1.1s.8-.9.9-.9Z"/>
    <path class="st16" d="M83.2,183.8c0,.1-.2.3-.4.4-.3.1-.5.2-.6.1,0,0,0-.3.4-.5.3-.2.6-.2.6,0Z"/>
    <path class="st3" d="M76,116.2l-28.2-.8h-28.7c-3.8,0-6.8,3.2-6.8,7.1v19.5c0,13.5,3.1,27,9.4,38.8,5.3,10,13.5,20.2,26.2,26.8,11.6-4.4,20.3-16,25.6-26,6.3-11.8,9.4-25.3,9.4-38.8v-19.5c0-3.9-3.1-7.1-6.8-7.1Z"/>
    <polygon class="st10" points="46.9 161.9 36.4 153.2 39.9 149 46.2 154.2 56.5 142.4 60.7 146 46.9 161.9"/>
    <path class="st4" d="M76,116.2l-28.2-.8h-28.7c-3.8,0-6.8,3.2-6.8,7.1v19.5c0,13.5,3.1,27,9.4,38.8,5.3,10,13.5,20.2,26.2,26.8,11.6-4.4,20.3-16,25.6-26,6.3-11.8,9.4-25.3,9.4-38.8v-19.5c0-3.9-3.1-7.1-6.8-7.1ZM75.1,144.3c0,10.7-2.4,21.3-7.4,30.7-4.2,7.9-10.4,16-20.4,21.2-10-5.2-16-13.3-20.2-21.2-5-9.4-7.4-20-7.4-30.7v-15.4c0-3.1,2.4-5.6,5.4-5.6h44.6c3,0,5.4,2.5,5.4,5.6v15.4h0Z"/>
    <rect class="st0" x="166.8" y="144.3" width="65.5" height="4.4"/>
    <path class="st0" d="M232.5,165.3c0,.1-14.3.2-31.9.2s-31.9,0-31.9-.2,14.3-.2,31.9-.2c17.6,0,31.9,0,31.9.2Z"/>
    <path class="st0" d="M232.5,173.3c0,.1-14.3.2-31.9.2s-31.9,0-31.9-.2,14.3-.2,31.9-.2,31.9,0,31.9.2Z"/>
    <path class="st0" d="M232.5,181.2c0,.1-14.3.2-31.9.2s-31.9,0-31.9-.2,14.3-.2,31.9-.2,31.9,0,31.9.2Z"/>
    <path class="st0" d="M232.5,189.2c0,.1-14.3.2-31.9.2s-31.9,0-31.9-.2,14.3-.2,31.9-.2c17.6,0,31.9,0,31.9.2Z"/>
    <path class="st0" d="M232.5,197.2c0,.1-14.3.2-31.9.2s-31.9,0-31.9-.2,14.3-.2,31.9-.2c17.6,0,31.9,0,31.9.2Z"/>
    <rect class="st14" x="168" y="76" width="63.1" height="61"/>
    <polygon class="st0" points="172.9 131.8 190.4 100.4 204.6 120.4 213.3 109.8 226.2 131.8 172.9 131.8"/>
    <path class="st0" d="M226.2,131.9s0,0,0-.3c0-.2,0-.4,0-.7,0-.6,0-1.6,0-2.7,0-2.4,0-5.9,0-10.4,0-8.9,0-21.6-.1-36.8l.3.3c-15.4,0-33.7,0-53.3,0,0,0,.6-.6.3-.3h0v3.5c0,1.2,0,2.3,0,3.4,0,2.3,0,4.6,0,6.8,0,4.5,0,8.9,0,13.2,0,8.5,0,16.6,0,24.1l-.3-.3c15.9,0,29.2.1,38.5.1,4.7,0,8.3,0,10.9,0,1.2,0,2.2,0,2.9,0,.3,0,.6,0,.7,0,.2,0,.3,0,.3,0,0,0,0,0-.2,0-.2,0-.4,0-.7,0-.7,0-1.6,0-2.8,0-2.5,0-6.2,0-10.8,0-9.4,0-22.7,0-38.7.1h-.3s0-.3,0-.3c0-7.4,0-15.5,0-24.1,0-4.3,0-8.7,0-13.2,0-2.2,0-4.5,0-6.8,0-1.1,0-2.3,0-3.4v-2.6s0-.4,0-.4v-.2h0v-.2h0c-.3.2.4-.4.3-.3,19.6,0,37.9,0,53.3,0h.3s0,.3,0,.3c0,15.3-.1,28.1-.1,37,0,4.4,0,7.9,0,10.3,0,1.2,0,2.1,0,2.7,0,.3,0,.5,0,.7,0,.2,0,.2,0,.2Z"/>
  </g>
  <rect class="st15" x="296.3" y="473.3" width="315" height="315"/>
  <path d="M1060.8,225.8c0,.2,0,.4-.2.6-.2.2-.4.2-.6.2s-.4,0-.6-.2-.2-.4-.2-.6v-19.4c0-.4-.2-.6-.5-.6h-11.7c-.4,0-.5.2-.5.6v19.4c0,.2,0,.4-.2.6-.2.2-.4.2-.6.2s-.4,0-.6-.2-.2-.4-.2-.6v-19.5c0-.7.2-1.2.6-1.6.4-.4.9-.6,1.6-.6h11.7c.7,0,1.2.2,1.6.6.4.4.6.9.6,1.6v19.5ZM1057.8,226.1c0,0,0,.2-.1.2,0,0-.2,0-.3,0l-3.3-1.5c-.1,0-.2-.1-.3-.2,0,0,0-.2,0-.3v-15.3c0-.1,0-.2,0-.3,0,0,.1-.1.3-.2l3.3-1.5c.1,0,.2,0,.3,0,0,0,.1.1.1.2v18.8Z"/>
</svg>