<?xml version="1.0" encoding="UTF-8"?>
<svg id="Layer_1" xmlns="http://www.w3.org/2000/svg" version="1.1" viewBox="0 0 20 19.8">
  <!-- Generator: Adobe Illustrator 29.1.0, SVG Export Plug-In . SVG Version: 2.1.0 Build 142)  -->
  <defs>
    <style>
      .st0 {
        fill: #231f20;
      }
    </style>
  </defs>
  <path class="st0" d="M10,19.9c-1.4,0-2.7-.3-3.9-.8s-2.3-1.2-3.2-2.1-1.6-2-2.1-3.2-.8-2.5-.8-3.9.3-2.7.8-3.9,1.2-2.3,2.1-3.2,2-1.6,3.2-2.1S8.6,0,10,0s2.7.3,3.9.8,2.3,1.2,3.2,2.1,1.6,2,2.1,3.2.8,2.5.8,3.9-.3,2.7-.8,3.9-1.2,2.3-2.1,3.2-2,1.6-3.2,2.1-2.5.8-3.9.8ZM10,17.4c1,0,2-.2,2.9-.6s1.7-.9,2.4-1.6,1.2-1.5,1.6-2.4.6-1.9.6-2.9-.2-2-.6-2.9-.9-1.7-1.6-2.4-1.5-1.2-2.4-1.6-1.9-.6-2.9-.6-2,.2-2.9.6-1.7.9-2.4,1.6-1.2,1.5-1.6,2.4-.6,1.9-.6,2.9.2,2,.6,2.9.9,1.7,1.6,2.4,1.5,1.2,2.4,1.6,1.9.6,2.9.6ZM7.3,14.3c-.3,0-.5,0-.7-.3s-.3-.4-.3-.7,0-.5.3-.8l2-2.6-1.9-2.5c-.2-.3-.3-.5-.3-.8s0-.5.3-.7.4-.3.7-.3.4,0,.6.2.3.3.5.5l1.5,2.3h0l1.5-2.3c.2-.3.3-.4.5-.5s.3-.2.6-.2.5,0,.7.3.3.4.3.7-.1.5-.3.8l-2,2.6,1.9,2.6c.2.3.3.5.3.8s0,.5-.3.7-.4.3-.8.3-.4,0-.6-.2-.3-.3-.5-.5l-1.5-2.3h0l-1.5,2.3c-.2.3-.3.4-.5.5s-.3.1-.6.1Z"/>
</svg>