<?xml version="1.0" encoding="UTF-8"?>
<svg id="Layer_1" xmlns="http://www.w3.org/2000/svg" version="1.1" viewBox="0 0 20 20">
  <!-- Generator: Adobe Illustrator 29.1.0, SVG Export Plug-In . SVG Version: 2.1.0 Build 142)  -->
  <defs>
    <style>
      .st0 {
        fill: #231f20;
      }
    </style>
  </defs>
  <path class="st0" d="M10,20c-1.4,0-2.7-.3-3.9-.8s-2.3-1.2-3.2-2.1-1.6-2-2.1-3.2-.8-2.5-.8-3.9.3-2.7.8-3.9,1.2-2.3,2.1-3.2,2-1.6,3.2-2.1,2.5-.8,3.9-.8,2.7.3,3.9.8,2.3,1.2,3.2,2.1,1.6,2,2.1,3.2.8,2.5.8,3.9-.3,2.7-.8,3.9-1.2,2.3-2.1,3.2-2,1.6-3.2,2.1-2.5.8-3.9.8ZM10,18.3c1.1,0,2.2-.2,3.2-.6s1.9-1,2.7-1.8,1.4-1.6,1.8-2.7.6-2.1.6-3.2-.2-2.2-.6-3.2-1-1.9-1.8-2.7-1.6-1.4-2.7-1.8-2.1-.6-3.2-.6-2.2.2-3.2.6-1.9,1-2.7,1.8-1.4,1.6-1.8,2.7-.6,2.1-.6,3.2.2,2.2.6,3.2,1,1.9,1.8,2.7,1.6,1.4,2.7,1.8,2.1.6,3.2.6ZM5.5,14.9c-.2,0-.3,0-.4-.2s-.1-.3-.1-.4c0-.3.1-.6.3-1s.5-.9.9-1.3.9-.8,1.6-1.1,1.4-.4,2.2-.4,1.6.1,2.2.4,1.2.7,1.6,1.1.7.9.9,1.3.3.8.3,1,0,.3-.1.4-.2.2-.4.2H5.5ZM10,9.7c-.5,0-.9-.1-1.3-.4s-.7-.6-.9-1-.3-.9-.3-1.4.1-.9.3-1.3.5-.7.9-1,.8-.4,1.3-.4.9.1,1.3.4.7.6.9,1,.3.9.3,1.3-.1,1-.3,1.4-.5.7-.9,1-.8.4-1.3.4Z"/>
</svg>