<?xml version="1.0" encoding="UTF-8"?>
<svg id="Layer_1" xmlns="http://www.w3.org/2000/svg" version="1.1" viewBox="0 0 27.1 17.3">
  <!-- Generator: Adobe Illustrator 29.1.0, SVG Export Plug-In . SVG Version: 2.1.0 Build 142)  -->
  <defs>
    <style>
      .st0 {
        fill: #231f20;
      }
    </style>
  </defs>
  <path class="st0" d="M13.6,17.2c-1.3,0-2.6-.2-3.8-.5-1.2-.3-2.3-.8-3.3-1.3-1-.5-1.9-1.1-2.7-1.8s-1.5-1.3-2-1.9-1-1.2-1.3-1.8-.4-1-.4-1.3.1-.8.4-1.3.7-1.1,1.3-1.8,1.2-1.3,2-1.9c.8-.6,1.7-1.2,2.7-1.8s2.1-1,3.3-1.3c1.2-.3,2.5-.5,3.8-.5s2.7.2,3.9.5c1.2.3,2.3.8,3.3,1.3s1.9,1.1,2.7,1.8c.8.6,1.5,1.3,2,1.9s1,1.2,1.3,1.8.4,1,.4,1.3-.1.8-.4,1.3-.7,1.1-1.3,1.8-1.2,1.3-2,1.9-1.7,1.2-2.7,1.8c-1,.5-2.1,1-3.3,1.3-1.2.3-2.5.5-3.9.5ZM13.6,14.7c1,0,1.9-.1,2.8-.4.9-.2,1.7-.6,2.5-.9s1.5-.8,2.1-1.3c.6-.5,1.2-.9,1.6-1.4.4-.5.8-.9,1-1.3s.4-.7.4-.9-.1-.5-.4-.8c-.2-.4-.6-.8-1-1.2-.4-.5-1-.9-1.6-1.4-.6-.5-1.3-.9-2.1-1.3s-1.6-.7-2.5-1c-.9-.2-1.8-.4-2.8-.4s-1.9.1-2.8.4c-.9.2-1.7.6-2.5,1s-1.5.8-2.1,1.3c-.6.5-1.2.9-1.6,1.4-.4.5-.8.9-1,1.2-.2.4-.4.6-.4.8s.1.5.4.9.6.8,1,1.3c.4.5,1,.9,1.6,1.4.6.5,1.3.9,2.1,1.3s1.6.7,2.5.9c.9.2,1.8.4,2.8.4ZM13.6,13.5c-.7,0-1.3-.1-1.9-.4-.6-.3-1.1-.6-1.6-1.1-.4-.5-.8-1-1.1-1.6-.3-.6-.4-1.2-.4-1.9s.1-1.3.4-1.9c.3-.6.6-1.1,1.1-1.6.4-.4,1-.8,1.6-1.1.6-.3,1.2-.4,1.9-.4s1.3.1,1.9.4,1.1.6,1.6,1.1c.5.4.8,1,1.1,1.6.3.6.4,1.2.4,1.9s-.1,1.3-.4,1.9c-.3.6-.6,1.1-1.1,1.6-.4.5-1,.8-1.6,1.1s-1.2.4-1.9.4ZM13.6,10.1c.4,0,.8-.1,1.1-.4.3-.3.4-.6.4-1.1s-.1-.8-.4-1.1c-.3-.3-.6-.4-1.1-.4s-.8.1-1.1.4-.4.6-.4,1.1.1.8.4,1.1.6.4,1.1.4Z"/>
</svg>