<?xml version="1.0" encoding="UTF-8"?>
<svg id="Layer_1" xmlns="http://www.w3.org/2000/svg" version="1.1" viewBox="0 0 43 37.8">
  <!-- Generator: Adobe Illustrator 29.1.0, SVG Export Plug-In . SVG Version: 2.1.0 Build 142)  -->
  <defs>
    <style>
      .st0 {
        fill: #010101;
      }
    </style>
  </defs>
  <path class="st0" d="M1.5,19.2c-.5,0-.9-.1-1.1-.4-.3-.3-.4-.6-.4-1s.2-.9.6-1.2L19.3.9c.7-.6,1.4-.9,2.2-.9s1.5.3,2.2.9l18.7,15.7c.4.3.6.7.6,1.2s-.1.7-.4,1c-.3.3-.7.4-1.1.4s-.5,0-.7-.2c-.2-.1-.4-.3-.6-.4L22.1,3.5c-.2-.2-.4-.3-.6-.3s-.4,0-.6.3L2.8,18.6c-.2.1-.4.3-.6.4-.2.1-.4.2-.7.2ZM5.6,33.9v-14.3l14.8-12.4c.7-.6,1.4-.6,2.2,0l14.8,12.4v14.3c0,1.2-.4,2.2-1.1,2.9-.7.7-1.7,1-3,1H9.7c-1.3,0-2.3-.3-3-1-.7-.7-1.1-1.7-1.1-2.9ZM16.6,34.9h9.7v-10.6c0-.4-.1-.7-.4-1-.2-.3-.6-.4-1-.4h-7c-.4,0-.8.1-1,.4-.3.3-.4.6-.4,1v10.6ZM33.2,9.7v-4.3c0-.4.1-.7.4-.9s.6-.4.9-.4h1.9c.4,0,.7.1.9.4.2.2.4.5.4.9v8.1l-4.5-3.8Z"/>
</svg>