<?xml version="1.0" encoding="UTF-8"?>
<svg id="Layer_1" xmlns="http://www.w3.org/2000/svg" version="1.1" viewBox="0 0 16.2 22.6">
  <!-- Generator: Adobe Illustrator 29.1.0, SVG Export Plug-In . SVG Version: 2.1.0 Build 142)  -->
  <defs>
    <style>
      .st0 {
        fill: #010101;
      }
    </style>
  </defs>
  <path class="st0" d="M16.2,21.7c0,.2,0,.4-.2.6-.2.2-.4.2-.6.2s-.4,0-.6-.2-.2-.4-.2-.6V2.3c0-.4-.2-.6-.5-.6H2.3c-.4,0-.5.2-.5.6v19.4c0,.2,0,.4-.2.6-.2.2-.4.2-.6.2s-.4,0-.6-.2-.2-.4-.2-.6V2.2C0,1.5.2,1,.6.6c.4-.4.9-.6,1.6-.6h11.7c.7,0,1.2.2,1.6.6.4.4.6.9.6,1.6v19.5ZM13.2,21.9c0,0,0,.2-.1.2,0,0-.2,0-.3,0l-3.3-1.5c-.1,0-.2-.1-.3-.2,0,0,0-.2,0-.3V4.9c0-.1,0-.2,0-.3,0,0,.1-.1.3-.2l3.3-1.5c.1,0,.2,0,.3,0,0,0,.1.1.1.2v18.8Z"/>
</svg>