<?xml version="1.0" encoding="UTF-8"?>
<svg id="Layer_1" xmlns="http://www.w3.org/2000/svg" version="1.1" viewBox="0 0 44.5 27.9">
  <!-- Generator: Adobe Illustrator 29.1.0, SVG Export Plug-In . SVG Version: 2.1.0 Build 142)  -->
  <defs>
    <style>
      .st0 {
        fill: #010101;
      }
    </style>
  </defs>
  <path class="st0" d="M5.6,27.9c-1.9,0-3.2-.5-4.2-1.4s-1.4-2.3-1.4-4.1V5.5C0,3.6.5,2.3,1.4,1.4,2.3.5,3.7,0,5.6,0h33.4c1.8,0,3.2.5,4.2,1.4.9.9,1.4,2.3,1.4,4.1v17c0,1.8-.5,3.2-1.4,4.1-.9.9-2.3,1.4-4.2,1.4H5.6ZM5.6,25.1h33.3c.9,0,1.5-.2,2-.7.5-.5.7-1.2.7-2.1V5.6c0-.9-.2-1.6-.7-2.1-.5-.5-1.2-.7-2-.7H5.6c-.9,0-1.6.2-2,.7-.5.5-.7,1.2-.7,2.1v16.7c0,.9.2,1.6.7,2.1.5.5,1.1.7,2,.7ZM7.2,9.8c-.5,0-.8-.3-.8-.8v-1.6c0-.5.3-.8.8-.8h1.6c.5,0,.8.3.8.8v1.6c0,.5-.3.8-.8.8h-1.6ZM7.2,15.5c-.5,0-.8-.3-.8-.8v-1.6c0-.5.3-.8.8-.8h1.6c.5,0,.8.3.8.8v1.6c0,.5-.3.8-.8.8h-1.6ZM7.2,21.2c-.5,0-.8-.3-.8-.8v-1.6c0-.5.3-.8.8-.8h1.6c.5,0,.8.3.8.8v1.6c0,.5-.3.8-.8.8h-1.6ZM12.9,9.8c-.5,0-.8-.3-.8-.8v-1.6c0-.5.3-.8.8-.8h1.6c.5,0,.8.3.8.8v1.6c0,.5-.3.8-.8.8h-1.6ZM12.9,15.5c-.5,0-.8-.3-.8-.8v-1.6c0-.5.3-.8.8-.8h1.6c.5,0,.8.3.8.8v1.6c0,.5-.3.8-.8.8h-1.6ZM13,21.2c-.6,0-1-.3-1-1v-1.3c0-.6.3-1,1-1h18.3c.6,0,1,.3,1,1v1.3c0,.6-.3,1-1,1H13ZM18.6,9.8c-.5,0-.8-.3-.8-.8v-1.6c0-.5.3-.8.8-.8h1.6c.5,0,.8.3.8.8v1.6c0,.5-.3.8-.8.8h-1.6ZM18.6,15.5c-.5,0-.8-.3-.8-.8v-1.6c0-.5.3-.8.8-.8h1.6c.5,0,.8.3.8.8v1.6c0,.5-.3.8-.8.8h-1.6ZM24.2,9.8c-.5,0-.8-.3-.8-.8v-1.6c0-.5.3-.8.8-.8h1.6c.5,0,.8.3.8.8v1.6c0,.5-.3.8-.8.8h-1.6ZM24.2,15.5c-.5,0-.8-.3-.8-.8v-1.6c0-.5.3-.8.8-.8h1.6c.5,0,.8.3.8.8v1.6c0,.5-.3.8-.8.8h-1.6ZM29.9,9.8c-.5,0-.8-.3-.8-.8v-1.6c0-.5.3-.8.8-.8h1.6c.5,0,.8.3.8.8v1.6c0,.5-.3.8-.8.8h-1.6ZM29.9,15.5c-.5,0-.8-.3-.8-.8v-1.6c0-.5.3-.8.8-.8h1.6c.5,0,.8.3.8.8v1.6c0,.5-.3.8-.8.8h-1.6ZM35.6,9.8c-.5,0-.8-.3-.8-.8v-1.6c0-.5.3-.8.8-.8h1.6c.5,0,.8.3.8.8v1.6c0,.5-.3.8-.8.8h-1.6ZM35.6,15.5c-.5,0-.8-.3-.8-.8v-1.6c0-.5.3-.8.8-.8h1.6c.5,0,.8.3.8.8v1.6c0,.5-.3.8-.8.8h-1.6ZM35.6,21.2c-.5,0-.8-.3-.8-.8v-1.6c0-.5.3-.8.8-.8h1.6c.5,0,.8.3.8.8v1.6c0,.5-.3.8-.8.8h-1.6Z"/>
</svg>