<?xml version="1.0" encoding="UTF-8"?>
<svg id="Layer_1" xmlns="http://www.w3.org/2000/svg" version="1.1" viewBox="0 0 17.7 19.8">
  <!-- Generator: Adobe Illustrator 29.1.0, SVG Export Plug-In . SVG Version: 2.1.0 Build 142)  -->
  <defs>
    <style>
      .st0 {
        fill: #010101;
      }
    </style>
  </defs>
  <path class="st0" d="M1.4,16c-.4,0-.8-.1-1-.3-.3-.2-.4-.5-.4-.8s0-.6.3-.9c.2-.3.4-.6.7-.9.3-.3.5-.6.8-.8.2-.2.4-.5.5-.8s.2-.7.3-1.1c0-.4,0-.8.1-1.1,0-1.2.1-2.3.4-3.2s.6-1.7,1.1-2.4c.5-.6,1.2-1.1,2-1.4.2-.6.5-1.1,1-1.6C7.6.2,8.2,0,8.9,0s1.3.2,1.7.6c.5.4.8.9,1,1.6.8.3,1.5.8,2,1.4.5.6.9,1.4,1.1,2.4s.4,2,.4,3.2c0,.4,0,.7.1,1.1,0,.4.1.8.3,1.1.1.3.3.6.5.8.3.3.5.6.8.8.3.3.5.6.7.9.2.3.3.6.3.9s-.1.6-.4.8-.6.3-1,.3H1.4ZM8.9,19.8c-.5,0-1-.1-1.4-.3-.4-.2-.8-.5-1-.9s-.4-.8-.4-1.2h5.8c0,.4-.2.8-.4,1.2s-.6.7-1,.9-.9.3-1.4.3Z"/>
</svg>