<?xml version="1.0" encoding="UTF-8"?>
<svg id="Layer_1" xmlns="http://www.w3.org/2000/svg" version="1.1" viewBox="0 0 13.9 20">
  <!-- Generator: Adobe Illustrator 29.1.0, SVG Export Plug-In . SVG Version: 2.1.0 Build 142)  -->
  <defs>
    <style>
      .st0 {
        fill: #231f20;
      }
    </style>
  </defs>
  <path class="st0" d="M2.3,20c-.7,0-1.3-.2-1.7-.6-.4-.4-.6-1-.6-1.8v-7c0-.8.2-1.4.6-1.8s1-.6,1.7-.6h9.3c.7,0,1.3.2,1.7.6s.6,1,.6,1.8v7c0,.8-.2,1.4-.6,1.8-.4.4-1,.6-1.7.6H2.3ZM1.8,8.9v-3.2c0-1.3.2-2.3.7-3.2.5-.8,1.1-1.5,1.9-1.9C5.2.2,6.1,0,6.9,0s1.7.2,2.5.6c.8.4,1.4,1,1.9,1.9.5.8.7,1.9.7,3.2v3.2h-1.6v-3.4c0-.9-.2-1.6-.5-2.2-.3-.6-.8-1-1.3-1.3-.5-.3-1.1-.4-1.8-.4s-1.2.1-1.8.4-1,.7-1.3,1.3c-.3.6-.5,1.3-.5,2.2v3.4h-1.6Z"/>
</svg>