<?xml version="1.0" encoding="UTF-8"?>
<svg id="Layer_1" xmlns="http://www.w3.org/2000/svg" version="1.1" viewBox="0 0 359.7 318.2">
  <!-- Generator: Adobe Illustrator 29.1.0, SVG Export Plug-In . SVG Version: 2.1.0 Build 142)  -->
  <defs>
    <style>
      .st0 {
        fill: #273339;
      }

      .st1, .st2 {
        fill: #010101;
      }

      .st3 {
        fill: #7d4536;
      }

      .st4 {
        fill: #ebebeb;
      }

      .st5 {
        fill: #0897ba;
        stroke: #2d479b;
      }

      .st5, .st6, .st7, .st2 {
        stroke-miterlimit: 10;
        stroke-width: .8px;
      }

      .st8 {
        fill: #fafbfc;
      }

      .st9 {
        fill: #fbae34;
      }

      .st10 {
        fill: #fff;
      }

      .st6, .st7 {
        fill: #00b3ce;
      }

      .st6, .st2 {
        stroke: #2e459a;
      }

      .st11 {
        fill: #a56a5a;
      }

      .st12 {
        opacity: .8;
      }

      .st13 {
        opacity: .3;
      }

      .st14 {
        fill: #e0e1e0;
      }

      .st7 {
        stroke: #3e5ba9;
      }

      .st15 {
        fill: #465b65;
      }

      .st16 {
        fill: #f5f6f6;
      }
    </style>
  </defs>
  <g>
    <rect class="st8" x="181.9" y="19.3" width="176.4" height="17.5"/>
    <rect class="st4" x="181.9" width="176.4" height="19.3"/>
    <path class="st0" d="M287.8,231.2c25.3,0,49.2,0,70.4,0v-8.6h-219V45.7h42.6v-8.9h-40c-6.3,0-11.5,5.1-11.5,11.5v183.2h.4c0-.1,70.3-.2,157.1-.2Z"/>
    <rect class="st0" x="181.9" y="36.8" width="176.4" height="8.9"/>
    <path class="st0" d="M141.8,246.3c-6.3,0-11.5-5.1-11.5-11.5v-3.4h-12.8v4.3c0,7.7,6.3,14,14,14h226.7v-3.4h-216.4Z"/>
    <path class="st0" d="M141.8,246.3h216.4v-14.7c-21.2,0-45.1,0-70.4,0-86.8,0-157.1,0-157.1-.2h-.4v3.4c0,6.3,5.1,11.5,11.5,11.5Z"/>
    <path class="st15" d="M145.4,222.1V54.3c0-1.4,1.2-2.6,2.6-2.6h33.9v-6h-42.6v176.9h219v-.6h-212.8Z"/>
    <rect class="st15" x="181.9" y="45.7" width="176.4" height="6"/>
    <path class="st4" d="M181.9,51.7h-33.9c-1.4,0-2.6,1.2-2.6,2.6v9.9h36.4v-12.5Z"/>
    <rect class="st4" x="181.9" y="51.7" width="176.4" height="12.5"/>
    <path class="st8" d="M148,222.1c-1.4,0-2.6-1.2-2.6-2.6v2.6h212.8s-210.3,0-210.3,0Z"/>
    <path class="st8" d="M148,222.1h210.3v-25.8c-29.6,0-53.6,0-53.6-.2s24-.2,53.6-.2v-2.8h-176.4V64.2h-36.4v155.3c0,1.4,1.2,2.6,2.6,2.6Z"/>
    <path class="st8" d="M304.7,185.9c0-.1,24-.2,53.6-.2v-9.8c-29.6,0-53.6,0-53.6-.2s24-.2,53.6-.2v-9.8c-29.6,0-53.6,0-53.6-.2s24-.2,53.6-.2v-27.8c-8.4,0-17.4,0-26.7,0-45,0-81.5,0-81.5-.2s36.5-.2,81.5-.2,18.4,0,26.7,0v-9.2c-8.4,0-17.4,0-26.7,0-45,0-81.5,0-81.5-.2s36.5-.2,81.5-.2,18.4,0,26.7,0v-9.2c-8.4,0-17.4,0-26.7,0-45,0-81.5,0-81.5-.2s36.5-.2,81.5-.2,18.4,0,26.7,0v-9.2c-8.4,0-17.4,0-26.7,0-45,0-81.5,0-81.5-.2s36.5-.2,81.5-.2,18.4,0,26.7,0v-9.2c-8.4,0-17.4,0-26.7,0-45,0-81.5,0-81.5-.2s36.5-.2,81.5-.2c9.4,0,18.4,0,26.7,0v-34.8h-176.4v128.9h176.4v-6.9c-29.6,0-53.6,0-53.6-.2Z"/>
    <path class="st15" d="M358.3,231.2c-21.2,0-45.1,0-70.4,0-86.8,0-157.1,0-157.1.2h227.5v-.2Z"/>
    <path class="st15" d="M130.8,231.4c0,.1,70.3.2,157.1.2s49.2,0,70.4,0v-.2h-227.5Z"/>
    <path class="st14" d="M250,99.2c0,.1,36.5.2,81.5.2s18.4,0,26.7,0v-.4c-8.4,0-17.4,0-26.7,0-45,0-81.5,0-81.5.2Z"/>
    <path class="st14" d="M250,108.7c0,.1,36.5.2,81.5.2s18.4,0,26.7,0v-.4c-8.4,0-17.4,0-26.7,0-45,0-81.5,0-81.5.2Z"/>
    <path class="st14" d="M250,118.3c0,.1,36.5.2,81.5.2s18.4,0,26.7,0v-.4c-8.4,0-17.4,0-26.7,0-45,0-81.5,0-81.5.2Z"/>
    <path class="st14" d="M250,127.9c0,.1,36.5.2,81.5.2s18.4,0,26.7,0v-.4c-8.4,0-17.4,0-26.7,0-45,0-81.5,0-81.5.2Z"/>
    <path class="st14" d="M250,137.5c0,.1,36.5.2,81.5.2s18.4,0,26.7,0v-.4c-8.4,0-17.4,0-26.7,0-45,0-81.5,0-81.5.2Z"/>
    <path class="st14" d="M358.3,165.8v-.4c-29.6,0-53.6,0-53.6.2s24,.2,53.6.2Z"/>
    <path class="st14" d="M358.3,176v-.4c-29.6,0-53.6,0-53.6.2s24,.2,53.6.2Z"/>
    <path class="st14" d="M358.3,186.1v-.4c-29.6,0-53.6,0-53.6.2s24,.2,53.6.2Z"/>
    <path class="st14" d="M358.3,196.3v-.4c-29.6,0-53.6,0-53.6.2s24,.2,53.6.2Z"/>
  </g>
  <path class="st8" d="M194.3,9.6c0,1.2-1,2.2-2.3,2.2s-2.3-1-2.3-2.2,1-2.2,2.3-2.2,2.3,1,2.3,2.2Z"/>
  <path class="st8" d="M201.9,9.6c0,1.2-1,2.2-2.3,2.2s-2.3-1-2.3-2.2,1-2.2,2.3-2.2,2.3,1,2.3,2.2Z"/>
  <path class="st8" d="M209.4,9.6c0,1.2-1,2.2-2.3,2.2s-2.3-1-2.3-2.2,1-2.2,2.3-2.2,2.3,1,2.3,2.2Z"/>
  <path class="st0" d="M114.6,91.3c0,.2-1.3.3-2.8.3s-2.8-.1-2.8-.3,1.3-.3,2.8-.3,2.8.1,2.8.3Z"/>
  <path class="st0" d="M117.6,83.7c.2,0,.3,1.3.3,2.8s-.1,2.8-.3,2.8-.3-1.3-.3-2.8c0-1.6.1-2.8.3-2.8Z"/>
  <path class="st0" d="M120.8,91.1c0-.2,1.3-.3,2.8-.3s2.8.1,2.8.3-1.3.3-2.8.3-2.8-.1-2.8-.3Z"/>
  <path class="st0" d="M117.8,98.7c-.2,0-.3-1.3-.3-2.8s.1-2.8.3-2.8.3,1.3.3,2.8c0,1.6-.1,2.8-.3,2.8Z"/>
  <path class="st0" d="M122.3,95.5c-.1.1-.7-.3-1.2-1-.5-.7-.9-1.3-.8-1.4.1-.1.7.3,1.2,1,.5.7.9,1.3.8,1.4Z"/>
  <path class="st0" d="M122.1,86.8c.1.1-.2.7-.8,1.3s-1.1.9-1.3.8c-.1-.1.2-.7.8-1.3.6-.6,1.1-.9,1.3-.8Z"/>
  <path class="st0" d="M115.7,89c-.1.1-.6-.1-1.2-.6-.5-.5-.9-.9-.8-1.1.1-.1.6.1,1.2.6.5.5.9.9.8,1.1Z"/>
  <path class="st0" d="M115.4,92.8c.1.1-.2.7-.7,1.2-.5.6-1,.9-1.2.8-.1-.1.2-.7.7-1.2.5-.6,1-.9,1.2-.8Z"/>
  <path class="st0" d="M3.2,175.2c0,0-.7.2-1.6.2s-1.6,0-1.6-.2.7-.2,1.6-.2c.9,0,1.6,0,1.6.2Z"/>
  <path class="st0" d="M4.9,170.9c0,0,.2.7.2,1.6s0,1.6-.2,1.6-.2-.7-.2-1.6,0-1.6.2-1.6Z"/>
  <path class="st0" d="M6.7,175.1c0,0,.7-.2,1.6-.2s1.6,0,1.6.2-.7.2-1.6.2c-.9,0-1.6,0-1.6-.2Z"/>
  <path class="st0" d="M5,179.4c0,0-.2-.7-.2-1.6s0-1.6.2-1.6.2.7.2,1.6,0,1.6-.2,1.6Z"/>
  <path class="st0" d="M7.5,177.6c0,0-.4-.2-.7-.6-.3-.4-.5-.7-.4-.8,0,0,.4.2.7.6.3.4.5.7.4.8Z"/>
  <path class="st0" d="M7.4,172.7c0,0-.1.4-.5.7-.3.3-.6.5-.7.5,0,0,.1-.4.5-.7.3-.3.6-.5.7-.5Z"/>
  <path class="st0" d="M3.7,173.9c0,0-.4,0-.7-.3-.3-.3-.5-.5-.4-.6,0,0,.4,0,.7.3.3.3.5.5.4.6Z"/>
  <path class="st0" d="M3.6,176.1c0,0-.1.4-.4.7-.3.3-.6.5-.7.5,0,0,.1-.4.4-.7.3-.3.6-.5.7-.5Z"/>
  <path class="st0" d="M122.1,161.1l.2.4c.3.8.9,1.4,1.7,1.7l.5.2-.5.2c-.8.3-1.4.9-1.7,1.7v.3c-.1,0-.3-.4-.3-.4-.3-.7-1-1.3-1.7-1.6l-.4-.2.5-.3c.7-.3,1.2-.9,1.5-1.6l.2-.5Z"/>
  <path class="st0" d="M37.3,105l.2.4c.3.8.9,1.4,1.7,1.7l.5.2-.5.2c-.8.3-1.4.9-1.7,1.7v.3c-.1,0-.3-.4-.3-.4-.3-.7-1-1.3-1.7-1.6l-.4-.2.5-.3c.7-.3,1.2-.9,1.5-1.6l.2-.5Z"/>
  <polygon class="st15" points="257.9 231.4 262.2 238.2 322.1 238.2 326.1 231.4 257.9 231.4"/>
  <path class="st0" d="M169,58.3c0,1.3-1,2.3-2.3,2.3s-2.3-1-2.3-2.3,1-2.3,2.3-2.3,2.3,1,2.3,2.3Z"/>
  <path class="st0" d="M155.1,58.3c0,1.3-1,2.3-2.3,2.3s-2.3-1-2.3-2.3,1-2.3,2.3-2.3,2.3,1,2.3,2.3Z"/>
  <path class="st0" d="M161.7,58.3c0,1.3-1,2.3-2.3,2.3s-2.3-1-2.3-2.3,1-2.3,2.3-2.3,2.3,1,2.3,2.3Z"/>
  <rect class="st14" x="250" y="82.8" width="65.5" height="4.4"/>
  <path class="st14" d="M313.6,147c0,.1-14.2.2-31.8.2s-31.8,0-31.8-.2,14.2-.2,31.8-.2,31.8,0,31.8.2Z"/>
  <rect class="st16" x="250" y="160.8" width="46.5" height="45"/>
  <polygon class="st4" points="253.6 201.9 266.4 178.8 276.9 193.6 283.3 185.7 292.9 201.9 253.6 201.9"/>
  <path class="st4" d="M281.4,174.2c0,1.8-1.5,3.3-3.3,3.3s-3.3-1.5-3.3-3.3,1.5-3.3,3.3-3.3,3.3,1.5,3.3,3.3Z"/>
  <path class="st4" d="M292.9,202s0,0,0-.2c0-.1,0-.3,0-.5,0-.5,0-1.2,0-2,0-1.8,0-4.4,0-7.6,0-6.6,0-15.9,0-27.2l.2.2c-11.4,0-24.9,0-39.3,0,0,0,.4-.4.2-.2h0v5.1c0,1.7,0,3.4,0,5,0,3.3,0,6.5,0,9.7,0,6.3,0,12.3,0,17.7l-.2-.2c11.7,0,21.5,0,28.4,0,3.4,0,6.1,0,8,0,.9,0,1.6,0,2.1,0,.2,0,.4,0,.6,0,.1,0,.2,0,.2,0,0,0,0,0-.2,0-.1,0-.3,0-.5,0-.5,0-1.2,0-2.1,0-1.9,0-4.6,0-8,0-6.9,0-16.8,0-28.5,0h-.2s0-.2,0-.2c0-5.5,0-11.4,0-17.7,0-3.2,0-6.4,0-9.7,0-1.7,0-3.3,0-5v-4.5s0-.3,0-.3v-.2h0v-.2c-.2.2.3-.3.2-.2,14.4,0,27.9,0,39.3,0h.2s0,.2,0,.2c0,11.3,0,20.7,0,27.3,0,3.3,0,5.8,0,7.6,0,.9,0,1.5,0,2,0,.2,0,.4,0,.5,0,.1,0,.2,0,.2Z"/>
  <path class="st14" d="M209.3,93.6c0,2.5-2,4.5-4.5,4.5s-4.5-2-4.5-4.5,2-4.5,4.5-4.5c2.5,0,4.5,2,4.5,4.5Z"/>
  <path class="st0" d="M320.7,120.8h-6.3c0,0,.2-17.3.2-17.3,0-12.6-10.3-22.9-23-22.9s-23,10.3-23,23l-.2,17.2h-6.3c0,0,.2-17.3.2-17.3,0-16.1,13.1-29.2,29.3-29.2s29.3,13.1,29.3,29.3l-.2,17.2Z"/>
  <path class="st6" d="M321.3,197.8h-58.5c-8,0-14.4-6.5-14.4-14.4v-56.5c0-8,6.5-14.4,14.4-14.4h58.5c8,0,14.4,6.5,14.4,14.4v56.5c0,8-6.5,14.4-14.4,14.4Z"/>
  <path class="st1" d="M300.7,150.6c0-4.8-3.9-8.7-8.7-8.7s-8.7,3.9-8.7,8.7,1.7,5.9,4.1,7.4l-2.2,10.3h14.3s-1.6-6.5-2.6-10.5c2.3-1.6,3.9-4.2,3.9-7.2Z"/>
  <path class="st10" d="M253.9,171.9c-.6,0-.8-10-.6-22.2.3-12.3.9-22.2,1.5-22.2s.8,10,.6,22.2c-.3,12.3-.9,22.2-1.5,22.2Z"/>
  <path class="st10" d="M254,181.8c-.6,0-1-1-1.1-2.2,0-1.2.4-2.2,1-2.2s1,1,1.1,2.2c0,1.2-.4,2.2-1,2.2Z"/>
  <path class="st10" d="M281.4,169.7c-.5-.1.6-4.7,2.5-10.7l.2,1c-.8-.8-1.7-1.7-2.6-2.7-1.5-1.7-2.3-3.9-2.4-5.8-.1-2,.4-3.7,1.2-4.9.7-1.3,1.6-2.1,2.2-2.5.6-.4,1.1-.6,1.2-.5.2.2-1.1,1.3-2.1,3.6-.5,1.1-.8,2.6-.6,4.1.2,1.6.8,3.2,2,4.6.9.9,1.7,1.8,2.5,2.7l.4.4-.2.6c-2.1,6-3.9,10.3-4.4,10.1Z"/>
  <path class="st10" d="M317.5,118.4c0,.3-3.5.5-9.1.7-5.6.1-13.4.2-22,.1-4.3,0-8.4,0-12.1-.2-3.7,0-7.1-.3-9.8,0-2.7.3-4.7,1.2-6,2-1.2.9-1.8,1.6-1.9,1.5,0,0,.2-1,1.4-2.1,1.2-1.1,3.4-2.4,6.3-2.8,1.4-.2,3-.3,4.7-.4,1.7,0,3.4,0,5.3,0,3.7,0,7.8,0,12.1,0,8.6,0,16.4.2,22,.5,5.6.2,9.1.5,9.1.8Z"/>
  <path class="st5" d="M22.6,300.8l-.6,2.1s-7.6,12.4-6.7,13.5c.9,1.2,2.6,2.3,5.3,1.6,2.6-.7,13.8-11.2,13.8-11.2l.6-1.7-12.4-4.3Z"/>
  <path class="st1" d="M16.1,313.6s3.3-1.5,5.2,2.8c0,0,1.4-.5,5.4-3.8,3.9-3.3,7.7-6.5,7.7-6.5,0,0,.4-.3.3,0-.1.3-.3.9-.3.9l-7.6,6.7s-4.6,3.9-5.7,4.2c-1.1.3-2.3.7-3.7,0s-2.2-1.7-2.2-1.9.9-2.4.9-2.4Z"/>
  <path class="st0" d="M21.8,317.8s-.1-.4-.4-1.1c-.3-.6-.8-1.5-1.6-2.1s-1.7-1-2.4-1.2c-.7-.2-1.1-.2-1.1-.2,0,0,.4,0,1.1,0,.7.1,1.7.5,2.5,1.2.8.7,1.4,1.6,1.6,2.3.2.7.3,1.1.2,1.1Z"/>
  <path class="st0" d="M35.1,305.5s0,0-.2.2c-.2.1-.3.3-.5.5-.5.5-1.2,1-2,1.7-1.8,1.5-4.1,3.4-6.6,5.6-1.3,1.1-2.5,2.2-3.8,2.9-1.3.7-2.7,1.1-3.8.9-1.1-.2-1.9-.7-2.3-1.2-.4-.5-.5-.8-.5-.8,0,0,.1.3.6.8.4.4,1.2,1,2.3,1.1,1.1.1,2.4-.2,3.6-.9,1.3-.7,2.5-1.8,3.8-2.9,2.6-2.1,4.9-4.1,6.6-5.5.8-.7,1.5-1.2,2-1.7.2-.2.4-.3.6-.4.1,0,.2-.1.2-.1Z"/>
  <path class="st0" d="M23,310.7c0,0-.6-.4-1.4-.9-.8-.5-1.4-.9-1.4-.9,0,0,.7.2,1.5.7.8.5,1.3,1,1.3,1.1Z"/>
  <path class="st0" d="M24.7,308.9c0,0-.8-.3-1.7-.7-.9-.4-1.7-.7-1.7-.8,0,0,.8.1,1.8.6,1,.4,1.7.9,1.6.9Z"/>
  <path class="st0" d="M26.2,307.4c0,0-.7-.5-1.7-1-1-.5-1.9-.7-1.9-.7,0,0,1,0,2,.5,1,.5,1.7,1.2,1.6,1.3Z"/>
  <path class="st0" d="M27.1,305.6c0,0-.7-.4-1.6-.8-.9-.4-1.7-.6-1.6-.6,0,0,.8,0,1.7.4.9.4,1.5,1,1.5,1Z"/>
  <path class="st0" d="M26.7,303.8s-.4-.2-.9-.6c-.3-.2-.6-.5-.9-.9-.1-.2-.3-.4-.4-.6,0-.1-.1-.2-.2-.4,0-.1,0-.3,0-.5.3-.3.6-.2.9,0,.2.1.5.3.6.4.3.4.5.8.6,1.1,0,.3,0,.6,0,.8,0,.2,0,.3,0,.3,0,0,0-.4-.2-1.1,0-.3-.3-.7-.6-1-.2-.2-.3-.3-.6-.4-.2,0-.5,0-.6,0-.1.1,0,.4.1.6.1.2.3.4.4.6.3.4.6.7.8.9.5.5.8.7.8.8Z"/>
  <path class="st0" d="M26.5,303.6s0-.1,0-.3c0-.2.2-.4.5-.7.2-.3.6-.6,1-.8.2-.1.4-.2.7-.3.1,0,.3,0,.4,0,.2,0,.3.2.4.4,0,.4-.2.6-.3.8-.2.2-.4.4-.6.5-.4.3-.8.4-1.2.5-.4,0-.7,0-.9,0-.2,0-.3,0-.3,0,0,0,.4,0,1.1,0,.3,0,.7-.2,1.1-.5.2-.1.4-.3.5-.5.2-.2.3-.4.3-.6,0-.2-.3-.2-.5-.2-.2,0-.5.1-.7.2-.4.2-.7.5-1,.7-.5.5-.6.9-.7.9Z"/>
  <path class="st0" d="M32.9,304.5s-.4-.2-1.1,0c-.6.2-1.4.8-1.9,1.7-.5.9-.6,1.9-.5,2.6,0,.7.3,1.1.2,1.1,0,0-.3-.4-.4-1.1-.1-.7,0-1.7.5-2.7.5-1,1.4-1.6,2.1-1.8.7-.2,1.2,0,1.1.1Z"/>
  <path class="st0" d="M28.4,309.5c0,0-.5.6-1.3,1.3-.8.6-1.4,1.1-1.4,1.1,0,0,.5-.6,1.3-1.3.8-.6,1.4-1.1,1.4-1.1Z"/>
  <path class="st0" d="M29.9,308.7c0,0,.2.2.2.4,0,.2,0,.4,0,.4s-.2-.1-.2-.4c0-.2,0-.4,0-.4Z"/>
  <path class="st0" d="M30.1,307.1c0,0,0,.2,0,.4,0,.2-.1.4-.2.4,0,0,0-.2,0-.4,0-.2.1-.4.2-.4Z"/>
  <path class="st0" d="M30.9,305.8c0,0,0,.2-.2.4-.1.2-.3.3-.3.2,0,0,0-.2.1-.4.1-.2.3-.3.4-.2Z"/>
  <path class="st0" d="M32.3,305c0,0-.1.2-.3.3-.2,0-.4.1-.4,0,0,0,0-.2.3-.3.2,0,.4-.1.4,0Z"/>
  <path class="st0" d="M33.8,304.8c0,0-.2.1-.4.1s-.4,0-.4-.1c0,0,.2-.1.4-.1.2,0,.4,0,.4.1Z"/>
  <path class="st9" d="M127.3,105.2c-.5.6-1.2,6.8-1.2,6.8,0,0-11.5,19.7-13.2,20s-8.6-13.7-8.6-13.7l-7.2,6.6s3.8,17.6,15.5,20.6c5.5,1.4,15.2-16.1,21.6-30.7.1-.2,3.4-8.2,3.4-8.2l-10.4-1.5Z"/>
  <g>
    <path class="st9" d="M137.6,107.4s0,0,0,.2c-.3.9-2.1,4.8-2.6,4.8-.6,0-1.8-.9-1.7-1.5s2.4-4.8,2.4-4.8c0,0,.4-.7,1.6-.3.8.2.3,1.7.3,1.7Z"/>
    <path class="st9" d="M135.9,104.9s0,0,0,.2c-.3.9-2.1,4.8-2.6,4.8-.6,0-1.8-.9-1.7-1.5.1-.6,2.4-4.8,2.4-4.8,0,0,.4-.7,1.6-.3.8.2.3,1.7.3,1.7Z"/>
    <path class="st9" d="M133.9,103.2s0,0,0,.2c-.3.9-2.1,4.8-2.6,4.8-.6,0-1.8-.9-1.7-1.5.1-.6,2.4-4.8,2.4-4.8,0,0,.4-.7,1.6-.3.8.2.3,1.7.3,1.7Z"/>
    <path class="st9" d="M131.9,101.5s0,0,0,.2c-.3.9-2.1,4.8-2.6,4.8-.6,0-1.8-.9-1.7-1.5.1-.6,2.4-4.8,2.4-4.8,0,0,.4-.7,1.6-.3.8.2.3,1.7.3,1.7Z"/>
    <path class="st3" d="M133.7,109.7c0,0,.5-.8,1-1.8.5-1,.8-1.9.8-1.9,0,0-.5.8-1,1.8-.5,1-.8,1.9-.8,1.9Z"/>
    <path class="st3" d="M131.4,108.7c0,0,.7-1.1,1.4-2.6.7-1.5,1.2-2.7,1.2-2.7s-.7,1.1-1.4,2.6c-.7,1.5-1.2,2.7-1.2,2.7Z"/>
    <g class="st12">
      <path class="st3" d="M129.1,107.5c0,0,.7-1.1,1.4-2.6.7-1.5,1.2-2.7,1.2-2.7s-.7,1.1-1.4,2.6c-.7,1.5-1.2,2.7-1.2,2.7Z"/>
    </g>
  </g>
  <path class="st9" d="M127.3,113l-.8-3.5c-.3-1.5,0-3.1.7-4.4l.6-1,7.5,3.8s-1.9,2.5-3.8,1l1.4,3-5.7,1.1Z"/>
  <path class="st3" d="M132.3,112.1s0-.4,0-1.1c-.1-.7-.5-1.6-1.4-2.4l-.7-.6.9.3c.6.2,1.3.4,2,.6h0c.8,0,1.8-.2,2.3-.9,0,0,0-.1,0-.2v.3c-2.1-1-4-1.9-5.4-2.7-1.4-.7-2.2-1.3-2.2-1.3,0,0,.9.4,2.3,1.1,1.4.7,3.4,1.6,5.5,2.5h.2c0,0,0,.3,0,.3,0,0,0,.2-.1.2-.3.5-.7.8-1.2,1-.5.2-1,.2-1.4.1h0s0,0,0,0c-.7-.2-1.3-.5-1.9-.7l.2-.3c1,.8,1.3,1.9,1.3,2.6,0,.7-.1,1.1-.1,1.1Z"/>
  <path class="st3" d="M134.3,108.8c0,0,0,.4,0,1,0,.3.3.6.6.6.3,0,.7-.2.9-.6.5-.8,1-1.5,1.3-2,.3-.5.5-.9.5-.9,0,0,0,.4-.3,1-.3.6-.7,1.3-1.2,2.2-.3.4-.8.8-1.3.7-.6,0-.8-.6-.8-.9,0-.4,0-.6.1-.8,0-.2.1-.3.1-.2Z"/>
  <path class="st15" d="M101.6,159.2s-6.4-15.8-6.4-16.1l1.7-5.9.7-3.4,2.2,2.5,10.6-11.1c.2.3-4.8-7-9.9-14.1-3.5-5-7.4-6-9.6-6.2-1.7-.5-2.8-.6-2.8-.6l-18.3-.2s-5.7-.3-10.9,4c-.8.7-7.8,10-12.6,19.2l14.7,10.6,2.4-4.3h0c.2,1.5,1.1,5.7,1.4,7.2.9,4.4,1.2,9.8-1,13.4,0,0-2.4,5.9-4.2,12.6h45.1s-1.5-3.9-3-7.7Z"/>
  <path class="st11" d="M65.3,152.6l-1.5-1.2c0,0,0-.1,0-.1h0c0,0-10.2-8.1-10.2-8.1l4.4-7.2-10.6-7.7c0,.5-9.8,15.1-8.5,18,1.9,4.1,14.7,12.2,19.9,15.3-.6,0-3,.4-4.2.8-1.3.4,3,1.6,4.1,1.8.4,0,1.3-.6,2.2-1.4.2,0,.2.1.2.1l.3-.7c1.2-1.3,2.4-2.7,2.7-3.1.2-.3.2-1.9.1-3.5l1.2-2.9Z"/>
  <path class="st5" d="M121.8,305.1v-1.5c0,0-15.2.4-15.2.4v4.9c.1,0,1.1,0,1.1,0,4.2.1,21.1.3,23.9-.6,3.1-1-9.8-3.3-9.8-3.3Z"/>
  <g class="st13">
    <path class="st1" d="M112.2,308.7c-.3-1.2-1-2.2-2-2.9-1-.7-2.3-1.1-3.5-.9v3.9c.1,0,5.6,0,5.6,0Z"/>
  </g>
  <g class="st13">
    <path class="st1" d="M128.1,306.4s4.5,1.1,4,1.8c-.5.7-17.7,1.2-25.3.7v-.3s20.1-.4,20.1-.4c0,0,.4-1.8,1.3-1.8Z"/>
  </g>
  <path class="st0" d="M106.6,308.6s0,0,.3,0c.2,0,.5,0,.7,0,.7,0,1.7,0,2.7,0,2.3,0,5.5,0,9,0,3.5,0,6.7-.2,9-.4,1.1,0,2-.1,2.7-.2.3,0,.5,0,.7,0,.2,0,.3,0,.3,0,0,0,0,0-.3,0-.2,0-.5,0-.7,0-.7,0-1.7,0-2.7.1-2.3.1-5.5.2-9,.3-3.5,0-6.7.1-9,.1-1.1,0-2,0-2.7,0-.3,0-.5,0-.7,0-.2,0-.3,0-.3,0Z"/>
  <path class="st0" d="M126.8,308.5c0,0,0-.6.5-1.2.4-.6.9-1,.9-1,0,0-.6.2-1.1.9-.4.7-.4,1.3-.3,1.3Z"/>
  <path class="st0" d="M122.3,306.5s.2-.2.5-.5.3-.6.3-.6-.2.2-.5.5c-.2.3-.3.6-.3.6Z"/>
  <path class="st0" d="M121.1,305.9s.3-.1.5-.3.4-.4.4-.5c0,0-.3.1-.5.3-.3.2-.4.4-.4.5Z"/>
  <path class="st0" d="M120.3,304.6s.4,0,.8,0,.8,0,.8,0c0,0-.4,0-.8,0-.4,0-.8,0-.8,0Z"/>
  <path class="st0" d="M120,303.7s.4.2.9.2c.5,0,.9,0,.9-.1,0,0-.4,0-.9,0-.5,0-.9,0-.9,0Z"/>
  <path class="st0" d="M122.8,305.3s.4,0,1,0,.6-.1,1-.2c.2,0,.4-.1.6-.2,0,0,.2-.1.2-.3,0-.1,0-.3-.2-.4-.9-.4-1.8,0-2.2.5-.2.2-.3.5-.3.6,0,.2,0,.2,0,.2,0,0,0-.4.4-.8.2-.2.5-.4.8-.5.3-.1.8-.1,1.2,0,.2.1.1.3,0,.4-.2,0-.4.2-.5.2-.4.1-.7.2-1,.3-.6.1-.9.1-.9.1Z"/>
  <path class="st0" d="M123.1,305.3s.1-.2,0-.6c0-.2-.1-.4-.3-.6-.2-.2-.4-.5-.8-.4-.2,0-.3.3-.3.4,0,.2.1.3.2.4.2.2.3.4.5.5.3.3.6.4.6.3,0,0-.2-.2-.5-.4-.1-.1-.3-.3-.4-.5-.1-.2-.2-.5,0-.6.2,0,.5.2.6.4.2.2.2.4.3.6,0,.4,0,.6,0,.6Z"/>
  <path class="st0" d="M106.8,304.8s.4,0,1.1,0c.7,0,1.6.3,2.5.9.8.6,1.3,1.4,1.6,2,.2.6.3,1,.3,1,0,0,0-.1,0-.3s0-.4-.2-.8c-.2-.6-.7-1.4-1.6-2-.9-.6-1.9-.8-2.6-.8-.4,0-.6,0-.8,0-.2,0-.3,0-.3,0Z"/>
  <path class="st0" d="M114.1,307.3s1,.2,2.2.1c1.2,0,2.2-.2,2.2-.2,0,0-1,0-2.2,0-1.2,0-2.2,0-2.2,0Z"/>
  <path class="st0" d="M111.1,307.3s0,.2.2.4c.1.2.2.4.2.4,0,0,0-.2,0-.5-.1-.2-.3-.4-.4-.3Z"/>
  <path class="st0" d="M110,306.1s0,.2.2.3c.2.1.3.2.4.2,0,0,0-.2-.2-.3-.2-.1-.3-.2-.4-.2Z"/>
  <path class="st0" d="M108.4,305.5s.2,0,.4.1c.2,0,.4.2.4.1,0,0,0-.2-.4-.3-.3,0-.5,0-.5,0Z"/>
  <path class="st0" d="M107.2,305.3s0,.1.2.2c.1,0,.2,0,.3,0,0,0,0-.1-.2-.2-.1,0-.2,0-.3,0Z"/>
  <path class="st0" d="M77.6,67c-1.7-1.5-4.5-1.7-6.4-.5-1,.6-1.7,1.6-2.8,2-1.7.8-3.8.2-5.7.5-2.8.4-5,3.2-4.9,6,0,1.5.7,3.1,0,4.5-.6,1.2-2.1,1.6-3.1,2.4-1.8,1.4-2.1,4.3-.6,6.1.6.7,1.3,1.2,1.8,1.9.7,1.2.6,2.6.8,4s1,2.9,2.3,3c1.1,0,2.1-.9,3.2-.8,1.5.1,2.2,2,3.1,3.3,1.1,1.6,3.2,2.5,5.1,2.2,1.4-.2,2.8-.9,4.2-.6,1.7.4,2.8,2.5,4.5,2.7,1.3.2,2.5-.7,3.5-1.6s2-1.9,3.3-2.2c1.6-.3,3.1.7,4.7.9,2,.3,4.2-.8,5.2-2.6.9-1.6.9-3.5,1.7-5.1.5-1.1,1.4-1.9,2.1-2.9.7-1,1.2-2.3.8-3.4-.3-.8-1-1.4-1.3-2.2-.5-1.2-.1-2.6,0-3.8.1-1.3-.1-2.9-1.3-3.4-.5-.2-1.1-.2-1.5-.5-.9-.6-.9-1.9-1-3-.1-1.6-.9-3.2-2.2-4-1.4-.8-3.4-.4-4.1,1"/>
  <path class="st7" d="M68.7,81.6c-1.4-2.6-1.6-5.8-.6-8.5s3.3-5,6.1-6c2-.7,4.1-.8,6.2-.7,1.8,0,3.6.3,5.2,1.1,1.6.8,3,2.2,3.2,4"/>
  <g>
    <path class="st9" d="M78.6,113.5h0c4.1.3,7.6-2.8,7.8-6.9.2-3.9.3-7.9.3-7.9,0,0,6-.6,6.4-6.5s.2-19.6.2-19.6h0c-6.7-3.4-14.6-2.8-20.8,1.3l-.9.6.3,31.8c0,3.8,2.9,6.9,6.7,7.1Z"/>
    <g>
      <path class="st0" d="M90.5,83c-.3-.3-.3-.9,0-1.2.3-.3.9-.3,1.2,0,.3.3.3.9,0,1.2-.3.3-.9.3-1.2,0Z"/>
      <path class="st0" d="M92.8,82c0,0-.7-.4-1.5-.4-.8,0-1.4.3-1.5.2,0,0,0-.2.3-.4.3-.2.7-.3,1.2-.3.5,0,.9.3,1.2.5.2.2.3.4.3.5Z"/>
    </g>
    <g>
      <path class="st0" d="M82.8,81.9c.4.3.5.8.2,1.2-.3.4-.8.5-1.2.2-.4-.3-.5-.8-.2-1.2.3-.4.8-.5,1.2-.2Z"/>
      <path class="st0" d="M83.9,82.2s-.5-.6-1.5-.4c-.8,0-1.4.3-1.5.2,0,0,0-.2.3-.4.3-.2.7-.3,1.2-.3.5,0,.9.3,1.2.5.2.2.3.4.3.5Z"/>
    </g>
    <path class="st0" d="M86.8,88.5c0,0,.5-.1,1.3-.2.2,0,.4,0,.4-.2,0-.1,0-.4-.1-.6-.2-.6-.4-1.1-.5-1.7-.7-2.4-1.3-4.4-1.1-4.4.1,0,.8,1.9,1.6,4.3.2.6.3,1.2.5,1.7,0,.3.2.5,0,.9,0,.2-.2.3-.4.3-.1,0-.3,0-.4,0-.8,0-1.3,0-1.3-.1Z"/>
    <path class="st3" d="M86.7,98.5s-3.8,0-7.6-2.7c0,0,1.6,4.4,7.5,4.2v-1.5Z"/>
  </g>
  <path class="st0" d="M76.9,70.5c.2,2.4,2.3,4.6,4.7,4.9,1.5.2,3-.2,4.3.4.9.5,1.5,1.4,2.2,2.2s1.6,1.6,2.6,1.6c.5,0,1-.2,1.5-.3.5-.1,1.1-.1,1.5.2.6-1.8,1.1-3.6.9-5.5s-1.5-3.7-3.3-4.2c-1.2-.3-2.4-.1-3.7-.3-1-.2-1.9-.6-2.8-1-1.5-.7-3.2-1.3-4.9-1-1.7.3-3.3,1.6-3.2,3.3"/>
  <path class="st0" d="M72,86.7c2.1,1.7,4.7-2.7,5.9-5.5s1.5-5.9,1.7-8.9c0-1,0-2.1-.5-2.9-.6-.8-.9.2-1.6-.6-1.3-1.5-3.7-.7-4.9-.2-2,.9-3.2,3.1-3.6,5.4-.4,2.3,0,4.6.2,6.9.1,1,.3,2.1.4,3.1.1.7.2,1.5.6,2.1.4.6,1.2,1,1.8.7"/>
  <path class="st9" d="M71.9,81.8c0-.5-.4-.9-.9-.9-1.1,0-2.9.4-3.1,3.5-.2,4.4,3.9,3.3,4,3.1,0,0,0-4,0-5.7Z"/>
  <path class="st3" d="M71,85.8s0,0-.2.1c-.1,0-.3,0-.6,0-.4-.2-.8-.9-.8-1.7,0-.4.1-.8.3-1.1.2-.3.4-.5.6-.6.2,0,.4.1.4.2,0,.1,0,.2,0,.2,0,0,0,0,0-.2,0,0,0-.2-.2-.3-.1,0-.3-.1-.4-.1-.3,0-.7.3-.8.6-.2.3-.3.8-.3,1.2,0,.9.4,1.7,1,1.9.3,0,.6,0,.7,0,.1-.1.2-.2.2-.2Z"/>
  <path class="st3" d="M84.7,89.5c-.3.5-.1,1.2.4,1.6.5.3,1.2.2,1.6-.3.3-.5.2-1.2-.3-1.6s-1.2-.2-1.6.2"/>
  <path class="st0" d="M87.4,90.4c0,.1-.8.3-1.8,0-1-.4-1.6-1.1-1.5-1.1,0,0,.7.4,1.6.7.9.3,1.7.3,1.7.4Z"/>
  <path class="st7" d="M76.3,67.1c-1.6-.2-2.8-1.8-3-3.4-.3-1.6.1-3.2.6-4.8,1.3.9,2.3,2.3,2.7,3.8.4,1.5.3,3.2-.4,4.7"/>
  <path class="st7" d="M76.3,66.9c-.4-1.2.3-2.5,1.3-3.1,1-.6,2.3-.7,3.5-.6.1,0,.2,0,.3,0,.1,0,.2.2.2.4.2,1.2-.6,2.4-1.7,2.9-1.1.6-2.3.7-3.5.8-.2,0-.4,0-.6,0s-.3-.3-.2-.5"/>
  <path class="st0" d="M97.8,74.7s0,0-.1-.2c0-.1-.3-.3-.5-.3-.3,0-.7,0-.8.4-.1.3,0,.8.5,1,.4.2,1,0,1.3-.4.3-.4.4-1.1.1-1.7-.5-1.2-2-2.1-3.5-1.7,0,0-.2,0-.2,0l-1.1.3.9-.7c.6-.4.7-1.2.5-1.9-.2-.7-.8-1.1-1.3-1.4-1.2-.5-2.5,0-3.3.5-.4.3-.8.6-1.2.8-.4.2-.7.3-1,.3-.6,0-.9-.3-.8-.3,0,0,.3.2.8.2.3,0,.6-.1.9-.4.3-.2.7-.5,1.1-.8.4-.3,1-.6,1.6-.7.6-.1,1.3-.2,2,.1.7.3,1.3.8,1.6,1.6.2.8,0,1.8-.7,2.3l-.2-.4c0,0,.2,0,.3,0,1.7-.4,3.5.6,4,2,.3.7.2,1.5-.2,2.1-.4.5-1.2.8-1.7.5-.5-.3-.7-.9-.6-1.4,0-.2.3-.4.5-.5.2,0,.4,0,.5,0,.3,0,.5.3.6.4,0,.2,0,.2,0,.2Z"/>
  <path class="st0" d="M54.6,81.7s.1,0,.4,0c.3,0,.7.3,1,.7.1.2.3.5.3.9,0,.3,0,.7-.4,1-.3.3-.7.5-1.1.6-.4,0-1,0-1.4-.4-.8-.7-.8-2-.5-3,.4-1.1,1.2-2.1,2.4-2.6.6-.2,1.2-.3,1.8-.5.6-.2,1.1-.5,1.4-1.1.3-.5.3-1.2.2-1.9,0-.7-.3-1.3-.6-2-.2-.7-.4-1.4-.4-2.1,0-.7.3-1.5.8-2,.5-.5,1.1-.9,1.7-1.1.7-.2,1.3-.2,2-.1,1.3.1,2.3.8,3.4.9.5,0,1,0,1.5-.2.4-.2.8-.6,1.1-.9.6-.7,1.2-1.4,1.9-1.7.7-.3,1.4-.4,1.9-.3.5,0,.9.2,1.2.3.1,0,.2.1.3.2,0,0,0,0,0,0,0,0-.5-.3-1.5-.4-.5,0-1.2,0-1.8.4-.7.3-1.2,1-1.8,1.7-.3.4-.7.7-1.2,1-.5.3-1.1.3-1.6.3-1.1-.2-2.2-.8-3.4-.9-1.2-.1-2.5.2-3.4,1.1-.4.5-.7,1.1-.7,1.8,0,.7.2,1.3.4,2,.2.7.5,1.4.6,2.1,0,.7,0,1.5-.3,2.1-.3.7-1,1.1-1.7,1.2-.6.2-1.3.3-1.8.5-1.1.4-1.9,1.4-2.3,2.3-.3,1-.3,2.1.3,2.7.6.6,1.7.4,2.1-.1.5-.5.4-1.2.1-1.7-.3-.4-.6-.7-.9-.7-.3,0-.4,0-.4-.1Z"/>
  <path class="st0" d="M79.6,85.9c-.1,0-.2,0-.3,0s0-.2.1-.2c.1,0,.2,0,.3,0,0,0,0,.2-.1.2Z"/>
  <path class="st0" d="M81.2,85.8c-.1,0-.2,0-.2-.2,0-.1,0-.2.2-.3.1,0,.2,0,.2.2,0,.1,0,.2-.2.3Z"/>
  <path class="st0" d="M82.6,86.1c-.1,0-.2-.1-.2-.3,0-.1.1-.2.2-.2.1,0,.2.1.2.3,0,.1-.1.2-.2.2Z"/>
  <ellipse class="st0" cx="80.9" cy="86.9" rx=".2" ry=".2"/>
  <path class="st0" d="M90.7,86.3c-.1,0-.2,0-.2-.2s0-.2.2-.3.2,0,.2.2c0,.1,0,.2-.2.3Z"/>
  <path class="st0" d="M91.8,86.3c-.1,0-.2-.2,0-.4,0-.2.2-.3.3-.2.1,0,.2.2,0,.4,0,.2-.2.3-.3.2Z"/>
  <path class="st0" d="M91.3,87.8c-.1,0-.2-.1-.2-.3,0-.1.1-.2.2-.2s.2.1.2.3-.1.2-.2.2Z"/>
  <path class="st0" d="M122.9,304l-17.8-128.8h0l-.5-8.3-44.5-2.1-1.9,7c-6.2,22-37.8,128.4-37.8,128.4l15.4,4.9,45.9-121.9,21.4,120.7,19.8.2Z"/>
  <path class="st15" d="M102.3,165.6c-.1,0-.2-.2-.3-.6s0-.6.1-.6c.1,0,.2.2.3.6,0,.3,0,.6-.1.6Z"/>
  <path class="st15" d="M102.8,170.3c-.1,0-.3-.5-.3-1.2,0-.6,0-1.2,0-1.2s.3.5.3,1.2c0,.6,0,1.2,0,1.2Z"/>
  <path class="st15" d="M103.3,175c-.1,0-.3-.5-.3-1.1s0-1.2,0-1.2c.1,0,.3.5.3,1.1,0,.6,0,1.2,0,1.2Z"/>
  <path class="st15" d="M103.8,179.7c-.1,0-.3-.5-.3-1.1,0-.6,0-1.2,0-1.2.1,0,.3.5.3,1.1,0,.6,0,1.2,0,1.2Z"/>
  <path class="st15" d="M104.3,184.4c-.1,0-.3-.5-.3-1.1s0-1.2,0-1.2c.1,0,.3.5.3,1.1,0,.6,0,1.2,0,1.2Z"/>
  <path class="st15" d="M104.8,189.1c-.1,0-.3-.5-.3-1.1,0-.6,0-1.2,0-1.2.1,0,.3.5.3,1.1,0,.6,0,1.2,0,1.2Z"/>
  <path class="st15" d="M105.4,193.7c-.1,0-.3-.5-.3-1.1,0-.6,0-1.2,0-1.2.1,0,.3.5.3,1.1,0,.6,0,1.2,0,1.2Z"/>
  <path class="st15" d="M106,198.4c-.1,0-.3-.5-.3-1.1s0-1.2,0-1.2c.1,0,.3.5.3,1.1,0,.6,0,1.2,0,1.2Z"/>
  <path class="st15" d="M106.5,203.1c-.1,0-.3-.5-.3-1.1,0-.6,0-1.2,0-1.2.1,0,.3.5.3,1.1,0,.6,0,1.2,0,1.2Z"/>
  <path class="st15" d="M107.1,207.8c-.1,0-.3-.5-.4-1.1s0-1.2,0-1.2.3.5.4,1.1c0,.6,0,1.2,0,1.2Z"/>
  <path class="st15" d="M107.7,212.4c-.1,0-.3-.5-.4-1.1s0-1.2,0-1.2c.1,0,.3.5.4,1.1s0,1.2,0,1.2Z"/>
  <path class="st15" d="M108.3,217.1c-.1,0-.3-.5-.4-1.1,0-.6,0-1.2,0-1.2.1,0,.3.5.4,1.1,0,.6,0,1.2,0,1.2Z"/>
  <path class="st15" d="M109,221.8c-.1,0-.3-.5-.4-1.1s0-1.2,0-1.2c.1,0,.3.5.4,1.1,0,.6,0,1.2,0,1.2Z"/>
  <path class="st15" d="M109.6,226.4c-.1,0-.3-.5-.4-1.1s0-1.2,0-1.2c.1,0,.3.5.4,1.1,0,.6,0,1.2,0,1.2Z"/>
  <path class="st15" d="M110.2,231.1c-.1,0-.3-.5-.4-1.1,0-.6,0-1.2,0-1.2.1,0,.3.5.4,1.1,0,.6,0,1.2,0,1.2Z"/>
  <path class="st15" d="M110.8,235.8c-.1,0-.3-.5-.4-1.1,0-.6,0-1.2,0-1.2.1,0,.3.5.4,1.1,0,.6,0,1.2,0,1.2Z"/>
  <path class="st15" d="M111.5,240.5c-.1,0-.3-.5-.4-1.1,0-.6,0-1.2,0-1.2.1,0,.3.5.4,1.1,0,.6,0,1.2,0,1.2Z"/>
  <path class="st15" d="M112.1,245.1c-.1,0-.3-.5-.4-1.1s0-1.2,0-1.2.3.5.4,1.1c0,.6,0,1.2,0,1.2Z"/>
  <path class="st15" d="M112.8,249.8c-.1,0-.3-.5-.4-1.1,0-.6,0-1.2,0-1.2.1,0,.3.5.4,1.1,0,.6,0,1.2,0,1.2Z"/>
  <path class="st15" d="M113.5,254.4c-.1,0-.3-.5-.4-1.1s0-1.2,0-1.2c.1,0,.3.5.4,1.1,0,.6,0,1.2,0,1.2Z"/>
  <path class="st15" d="M114.2,259.1c-.1,0-.3-.5-.4-1.1,0-.6,0-1.2,0-1.2.1,0,.3.5.4,1.1,0,.6,0,1.2,0,1.2Z"/>
  <path class="st15" d="M114.9,263.7c-.1,0-.3-.5-.4-1.1s0-1.2,0-1.2c.1,0,.3.5.4,1.1,0,.6,0,1.2,0,1.2Z"/>
  <path class="st15" d="M115.6,268.4c-.1,0-.3-.5-.4-1.1s0-1.2,0-1.2.3.5.4,1.1c0,.6,0,1.2,0,1.2Z"/>
  <path class="st15" d="M116.3,273c-.1,0-.3-.5-.4-1.1,0-.6,0-1.2,0-1.2.1,0,.3.5.4,1.1s0,1.2,0,1.2Z"/>
  <path class="st15" d="M117.1,277.7c-.1,0-.3-.5-.4-1.1,0-.6,0-1.2,0-1.2.1,0,.3.5.4,1.1,0,.6,0,1.2,0,1.2Z"/>
  <path class="st15" d="M117.8,282.4c-.1,0-.3-.5-.4-1.1,0-.6,0-1.2,0-1.2s.3.5.4,1.1c0,.6,0,1.2,0,1.2Z"/>
  <path class="st15" d="M118.5,287c-.1,0-.3-.5-.4-1.1s0-1.2,0-1.2c.1,0,.3.5.4,1.1,0,.6,0,1.2,0,1.2Z"/>
  <path class="st15" d="M119.2,291.7c-.1,0-.3-.5-.4-1.1s0-1.2,0-1.2.3.5.4,1.1c0,.6,0,1.2,0,1.2Z"/>
  <path class="st15" d="M119.9,296.3c-.1,0-.3-.5-.4-1.1,0-.6,0-1.2,0-1.2s.3.5.4,1.1c0,.6,0,1.2,0,1.2Z"/>
  <path class="st15" d="M120.6,301c-.1,0-.3-.5-.4-1.1s0-1.2,0-1.2.3.5.4,1.1c0,.6,0,1.2,0,1.2Z"/>
  <path class="st15" d="M121.1,304.5c-.1,0-.2-.2-.3-.6,0-.3,0-.6.1-.6.1,0,.2.2.3.6,0,.3,0,.6-.1.6Z"/>
  <path class="st15" d="M34.8,301.7c.1,0,.1.3,0,.6s-.3.5-.4.5c-.1,0-.1-.3,0-.6,0-.3.3-.5.4-.5Z"/>
  <path class="st15" d="M36.2,297.1c.1,0,0,.6-.2,1.2-.2.6-.5,1.1-.6,1.1s0-.6.2-1.2c.2-.6.5-1.1.6-1.1Z"/>
  <path class="st15" d="M37.7,292.6c.1,0,0,.6-.2,1.2s-.5,1.1-.6,1.1c-.1,0,0-.6.2-1.2.2-.6.5-1.1.6-1.1Z"/>
  <path class="st15" d="M39.2,288c.1,0,0,.6-.2,1.2s-.5,1.1-.6,1.1,0-.6.2-1.2.5-1.1.6-1.1Z"/>
  <path class="st15" d="M40.8,283.5c.1,0,0,.6-.2,1.2s-.5,1.1-.6,1.1c-.1,0,0-.6.2-1.2.2-.6.5-1.1.6-1.1Z"/>
  <path class="st15" d="M42.3,278.9c.1,0,0,.6-.2,1.2s-.5,1.1-.6,1.1,0-.6.2-1.2c.2-.6.5-1.1.6-1.1Z"/>
  <path class="st15" d="M43.9,274.4c.1,0,0,.6-.2,1.2s-.5,1.1-.6,1.1,0-.6.2-1.2c.2-.6.5-1.1.6-1.1Z"/>
  <path class="st15" d="M45.5,269.9c.1,0,0,.6-.2,1.2s-.5,1.1-.6,1.1,0-.6.2-1.2c.2-.6.5-1.1.6-1.1Z"/>
  <path class="st15" d="M47.1,265.4c.1,0,0,.6-.2,1.2-.2.6-.5,1.1-.6,1.1-.1,0,0-.6.2-1.2.2-.6.5-1.1.6-1.1Z"/>
  <path class="st15" d="M48.7,260.9c.1,0,0,.6-.2,1.2-.2.6-.5,1.1-.6,1.1-.1,0,0-.6.2-1.2.2-.6.5-1.1.6-1.1Z"/>
  <path class="st15" d="M50.3,256.4c.1,0,0,.6-.2,1.2-.2.6-.5,1.1-.6,1.1-.1,0,0-.6.2-1.2.2-.6.5-1.1.6-1.1Z"/>
  <path class="st15" d="M52,251.9c.1,0,0,.6-.2,1.2s-.5,1.1-.6,1.1c-.1,0,0-.6.2-1.2.2-.6.5-1.1.6-1.1Z"/>
  <path class="st15" d="M53.6,247.4c.1,0,0,.6-.2,1.2-.2.6-.5,1.1-.6,1.1-.1,0,0-.6.2-1.2.2-.6.5-1.1.6-1.1Z"/>
  <path class="st15" d="M55.3,242.9c.1,0,0,.6-.2,1.2-.2.6-.5,1.1-.6,1.1s0-.6.2-1.2c.2-.6.5-1.1.6-1Z"/>
  <path class="st15" d="M57,238.4c.1,0,0,.6-.2,1.2-.2.6-.5,1.1-.6,1-.1,0,0-.6.2-1.2.2-.6.5-1.1.6-1Z"/>
  <path class="st15" d="M58.7,233.9c.1,0,0,.6-.2,1.2-.2.6-.5,1.1-.6,1s0-.6.2-1.2c.2-.6.5-1.1.6-1Z"/>
  <path class="st15" d="M60.4,229.4c.1,0,0,.6-.2,1.2s-.5,1.1-.6,1c-.1,0,0-.6.2-1.2s.5-1.1.6-1Z"/>
  <path class="st15" d="M62.1,225c.1,0,0,.6-.2,1.2-.2.6-.5,1.1-.6,1s0-.6.2-1.2c.2-.6.5-1.1.6-1Z"/>
  <path class="st15" d="M63.9,220.5c.1,0,0,.6-.2,1.2-.2.6-.5,1.1-.6,1s0-.6.2-1.2c.2-.6.5-1.1.6-1Z"/>
  <path class="st15" d="M65.6,216c.1,0,0,.6-.2,1.2-.2.6-.5,1.1-.6,1s0-.6.2-1.2c.2-.6.5-1.1.6-1Z"/>
  <path class="st15" d="M67.3,211.5c.1,0,0,.6-.2,1.2-.2.6-.5,1.1-.6,1s0-.6.2-1.2c.2-.6.5-1.1.6-1Z"/>
  <path class="st15" d="M69.1,207.1c.1,0,0,.6-.2,1.2-.2.6-.5,1.1-.6,1s0-.6.2-1.2c.2-.6.5-1.1.6-1Z"/>
  <path class="st15" d="M70.8,202.6c.1,0,0,.6-.2,1.2-.2.6-.5,1.1-.6,1-.1,0,0-.6.2-1.2.2-.6.5-1.1.6-1Z"/>
  <path class="st15" d="M72.6,198.2c.1,0,0,.6-.2,1.2s-.5,1.1-.6,1c-.1,0,0-.6.2-1.2.2-.6.5-1.1.6-1Z"/>
  <path class="st15" d="M74.4,193.7c.1,0,0,.6-.3,1.2s-.6,1.1-.7,1,0-.6.3-1.2c.3-.6.6-1.1.7-1Z"/>
  <path class="st15" d="M76.5,189.4c.1,0,0,.6-.3,1.2-.3.6-.6,1-.7,1s0-.6.3-1.2c.3-.6.6-1,.7-1Z"/>
  <path class="st15" d="M79,185.3c0,0-.1.6-.5,1.1-.4.5-.8.9-.9.9,0,0,.1-.6.5-1.1s.8-.9.9-.9Z"/>
  <path class="st15" d="M81.7,183.1c0,.1-.2.3-.4.4-.3.1-.5.2-.6.1,0,0,0-.3.4-.5.3-.2.6-.2.6,0Z"/>
  <path class="st7" d="M74.5,115.6l-28.2-.8h-28.7c-3.8,0-6.8,3.2-6.8,7.1v19.5c0,13.5,3.1,27,9.4,38.8,5.3,10,13.5,20.2,26.2,26.8,11.6-4.4,20.3-16,25.6-26,6.3-11.8,9.4-25.3,9.4-38.8v-19.5c0-3.9-3.1-7.1-6.8-7.1Z"/>
  <polygon class="st10" points="45.4 161.2 34.9 152.6 38.5 148.3 44.7 153.6 55 141.7 59.2 145.4 45.4 161.2"/>
  <path class="st2" d="M74.5,115.6l-28.2-.8h-28.7c-3.8,0-6.8,3.2-6.8,7.1v19.5c0,13.5,3.1,27,9.4,38.8,5.3,10,13.5,20.2,26.2,26.8,11.6-4.4,20.3-16,25.6-26,6.3-11.8,9.4-25.3,9.4-38.8v-19.5c0-3.9-3.1-7.1-6.8-7.1ZM73.6,143.6c0,10.7-2.4,21.3-7.4,30.7-4.2,7.9-10.4,16-20.4,21.2-10-5.2-16-13.3-20.2-21.2-5-9.4-7.4-20-7.4-30.7v-15.4c0-3.1,2.4-5.6,5.4-5.6h44.6c3,0,5.4,2.5,5.4,5.6v15.4h0Z"/>
  <rect class="st14" x="165.3" y="143.7" width="65.5" height="4.4"/>
  <path class="st14" d="M231,164.6c0,.1-14.3.2-31.9.2s-31.9,0-31.9-.2,14.3-.2,31.9-.2c17.6,0,31.9,0,31.9.2Z"/>
  <path class="st14" d="M231,172.6c0,.1-14.3.2-31.9.2s-31.9,0-31.9-.2,14.3-.2,31.9-.2,31.9,0,31.9.2Z"/>
  <path class="st14" d="M231,180.6c0,.1-14.3.2-31.9.2s-31.9,0-31.9-.2,14.3-.2,31.9-.2,31.9,0,31.9.2Z"/>
  <path class="st14" d="M231,188.6c0,.1-14.3.2-31.9.2s-31.9,0-31.9-.2,14.3-.2,31.9-.2c17.6,0,31.9,0,31.9.2Z"/>
  <path class="st14" d="M231,196.6c0,.1-14.3.2-31.9.2s-31.9,0-31.9-.2,14.3-.2,31.9-.2c17.6,0,31.9,0,31.9.2Z"/>
  <rect class="st16" x="166.6" y="75.3" width="63.1" height="61"/>
  <polygon class="st14" points="171.5 131.1 188.9 99.7 203.2 119.8 211.8 109.2 224.7 131.1 171.5 131.1"/>
  <path class="st14" d="M224.7,131.3s0,0,0-.3c0-.2,0-.4,0-.7,0-.6,0-1.6,0-2.7,0-2.4,0-5.9,0-10.4,0-8.9,0-21.6-.1-36.8l.3.3c-15.4,0-33.7,0-53.3,0,0,0,.6-.6.3-.3h0v3.5c0,1.2,0,2.3,0,3.4,0,2.3,0,4.6,0,6.8,0,4.5,0,8.9,0,13.2,0,8.5,0,16.6,0,24.1l-.3-.3c15.9,0,29.2.1,38.5.1,4.7,0,8.3,0,10.9,0,1.2,0,2.2,0,2.9,0,.3,0,.6,0,.7,0,.2,0,.3,0,.3,0,0,0,0,0-.2,0-.2,0-.4,0-.7,0-.7,0-1.6,0-2.8,0-2.5,0-6.2,0-10.8,0-9.4,0-22.7,0-38.7.1h-.3s0-.3,0-.3c0-7.4,0-15.5,0-24.1,0-4.3,0-8.7,0-13.2,0-2.2,0-4.5,0-6.8,0-1.1,0-2.3,0-3.4v-2.6s0-.4,0-.4v-.2h0v-.2h0c-.3.2.4-.4.3-.3,19.6,0,37.9,0,53.3,0h.3s0,.3,0,.3c0,15.3-.1,28.1-.1,37,0,4.4,0,7.9,0,10.3,0,1.2,0,2.1,0,2.7,0,.3,0,.5,0,.7,0,.2,0,.2,0,.2Z"/>
</svg>